{
.appVersion = "1192";
DisplayStrings = (
"",
"",
"",
"",
"",
"",
"",
"",
"",
"",
"",
"",
"",
"",
"",
"",
"",
"",
"",
"",
"",
"",
"",
"",
"",
"",
"",
"",
"",
"",
"",
"",
"",
"",
"",
"",
"",
"",
"",
"",
"",
"",
"",
"",
"",
"",
"",
"/_part.hoo",
"",
"",
"",
"/_part.hi",
"",
"",
"",
"",
"",
"",
"",
"",
"",
"",
"",
"",
"",
"",
"",
"",
"",
"",
"",
"",
"",
"",
"",
"",
"",
"",
"",
"",
"",
"",
"",
"",
"",
"",
"",
"",
"",
"",
"",
"",
"",
"",
"",
"",
"",
"",
"",
"",
"",
"",
"",
"",
"",
"/_part.hee",
"/_part.ha",
"",
"",
"",
"",
"",
"",
"",
"",
"",
"",
"",
"",
"",
"",
"",
"",
"",
"",
"",
"",
"",
"/_part.hoa",
"",
"",
"",
"",
"",
"",
"",
"",
"",
"",
"",
"",
"",
"",
"",
"",
"",
"",
"",
"",
"",
"",
"",
"",
"",
"",
"",
"",
"",
"",
"",
"",
"",
"",
"",
"",
"",
"",
"",
"",
"",
"",
"",
"",
"",
"",
"",
"",
"",
"",
A,
a,
b,
"/re-ethiopic c",
"",
"",
"",
"",
"",
d,
e,
f,
g,
g,
h,
i,
j,
ik,
k,
l,
m,
n,
o,
p,
q,
r,
t,
u,
v,
w,
y,
z,
x,
s,
B,
C,
D,
E,
F,
G,
H,
I,
J,
K,
L,
M,
N,
O,
P,
Q,
R,
S,
T,
U,
V,
W,
X,
Y,
Z,
"0",
"1",
"2",
"3",
"4",
"5",
"6",
"7",
"8",
"9",
"",
"",
"",
"",
"",
"",
"",
"",
"",
"",
"",
"",
"",
"",
"",
"",
"",
"",
"/hi-ethiopic",
"/haa-ethiopic",
"/hee-ethiopic",
"",
"",
"",
"",
"",
"",
"",
"",
"",
"",
"",
"",
"/mi-ethiopic",
"/maa-ethiopic",
"/mee-ethiopic",
"/me-ethiopic",
"/mo-ethiopic",
"/mwa-ethiopic",
"/szi-ethiopic",
"/szaa-ethiopic",
"/szee-ethiopic",
"/sze-ethiopic",
"/szo-ethiopic",
"/szwa-ethiopic",
"/ru-ethiopic",
"",
"",
"",
"",
"/he-ethiopic",
"/rwa-ethiopic",
"/sa-ethiopic",
"/su-ethiopic",
"/si-ethiopic",
"/saa-ethiopic",
"/see-ethiopic",
"/se-ethiopic",
"/so-ethiopic",
"/swa-ethiopic",
"/sha-ethiopic",
"/shu-ethiopic",
"",
"",
"/shi-ethiopic",
"/shaa-ethiopic",
"/shee-ethiopic",
"/she-ethiopic",
"/sho-ethiopic",
"/_part.hoa",
"/shwa-ethiopic",
"/qa-ethiopic",
"",
"",
"/qi-ethiopic",
"/qaa-ethiopic",
"/qee-ethiopic",
"/qe-ethiopic",
"/qo-ethiopic",
"/qoa-ethiopic",
"/qwaa-ethiopic",
"/bi-ethiopic",
"/baa-ethiopic",
"/bee-ethiopic",
"/bo-ethiopic",

glyphs = (
{
glyphname = A;
lastChange = "2019-02-19 01:08:00 +0000";
layers = (
{
layerId = "A36D14D1-FF07-4574-A62D-30DF65569781";
paths = (
{
closed = 1;
nodes = (
"409 9 OFFCURVE",
"418 0 OFFCURVE",
"429 0 CURVE SMOOTH",
"470 0 LINE SMOOTH",
"481 0 OFFCURVE",
"490 9 OFFCURVE",
"490 20 CURVE SMOOTH",
"490 601 LINE SMOOTH",
"490 608 OFFCURVE",
"486 616 OFFCURVE",
"480 617 CURVE",
"123 694 LINE SMOOTH",
"106 698 OFFCURVE",
"89 692 OFFCURVE",
"89 673 CURVE SMOOTH",
"89 20 LINE SMOOTH",
"89 9 OFFCURVE",
"98 0 OFFCURVE",
"109 0 CURVE SMOOTH",
"150 0 LINE SMOOTH",
"161 0 OFFCURVE",
"170 9 OFFCURVE",
"170 20 CURVE SMOOTH",
"169 587 LINE SMOOTH",
"169 602 OFFCURVE",
"182 611 OFFCURVE",
"196 608 CURVE SMOOTH",
"393 565 LINE SMOOTH",
"402 563 OFFCURVE",
"408 557 OFFCURVE",
"408 547 CURVE SMOOTH",
"409 20 LINE SMOOTH"
);
},
{
closed = 1;
nodes = (
"149 260 LINE",
"420 260 LINE",
"420 308 LINE",
"149 308 LINE"
);
}
);
width = 579;
}
);
unicode = 0041;
},
{
glyphname = B;
lastChange = "2019-02-19 01:25:49 +0000";
layers = (
{
layerId = "A36D14D1-FF07-4574-A62D-30DF65569781";
paths = (
{
closed = 1;
nodes = (
"149 253 LINE",
"454 253 LINE",
"454 301 LINE",
"149 301 LINE"
);
},
{
closed = 1;
nodes = (
"119 0 LINE",
"470 0 LINE",
"470 58 LINE",
"119 58 LINE"
);
},
{
closed = 1;
nodes = (
"438 300 LINE",
"440 0 LINE",
"470 0 LINE",
"481 0 OFFCURVE",
"520 14 OFFCURVE",
"520 25 CURVE SMOOTH",
"520 280 LINE SMOOTH",
"520 291 OFFCURVE",
"511 300 OFFCURVE",
"500 300 CURVE SMOOTH"
);
},
{
closed = 1;
nodes = (
"490 300 LINE",
"490 681 LINE SMOOTH",
"490 688 OFFCURVE",
"486 696 OFFCURVE",
"480 697 CURVE",
"123 694 LINE SMOOTH",
"106 694 OFFCURVE",
"89 692 OFFCURVE",
"89 673 CURVE SMOOTH",
"89 20 LINE SMOOTH",
"89 9 OFFCURVE",
"98 0 OFFCURVE",
"109 0 CURVE SMOOTH",
"150 0 LINE SMOOTH",
"161 0 OFFCURVE",
"170 9 OFFCURVE",
"170 20 CURVE",
"169 623 LINE",
"169 638 OFFCURVE",
"182 644 OFFCURVE",
"196 644 CURVE SMOOTH",
"393 645 LINE SMOOTH",
"402 645 OFFCURVE",
"408 637 OFFCURVE",
"408 627 CURVE SMOOTH",
"408 300 LINE"
);
}
);
width = 579;
}
);
unicode = 0042;
},
{
glyphname = C;
lastChange = "2019-02-19 01:27:27 +0000";
layers = (
{
layerId = "A36D14D1-FF07-4574-A62D-30DF65569781";
paths = (
{
closed = 1;
nodes = (
"489 684 LINE",
"488 689 OFFCURVE",
"484 693 OFFCURVE",
"480 694 CURVE",
"123 694 LINE SMOOTH",
"106 694 OFFCURVE",
"89 692 OFFCURVE",
"89 673 CURVE SMOOTH",
"89 20 LINE SMOOTH",
"89 9 OFFCURVE",
"98 0 OFFCURVE",
"109 0 CURVE SMOOTH",
"150 0 LINE SMOOTH",
"161 0 OFFCURVE",
"170 9 OFFCURVE",
"170 20 CURVE SMOOTH",
"169 587 LINE SMOOTH",
"169 602 OFFCURVE",
"182 608 OFFCURVE",
"196 608 CURVE SMOOTH",
"393 610 LINE SMOOTH",
"397 610 OFFCURVE",
"400 608 OFFCURVE",
"403 606 CURVE"
);
},
{
closed = 1;
nodes = (
"400 86 OFFCURVE",
"397 84 OFFCURVE",
"393 84 CURVE SMOOTH",
"196 86 LINE SMOOTH",
"182 86 OFFCURVE",
"169 92 OFFCURVE",
"169 107 CURVE SMOOTH",
"170 674 LINE SMOOTH",
"170 685 OFFCURVE",
"161 694 OFFCURVE",
"150 694 CURVE SMOOTH",
"109 694 LINE SMOOTH",
"98 694 OFFCURVE",
"89 685 OFFCURVE",
"89 674 CURVE SMOOTH",
"89 21 LINE SMOOTH",
"89 2 OFFCURVE",
"106 0 OFFCURVE",
"123 0 CURVE SMOOTH",
"480 0 LINE",
"484 1 OFFCURVE",
"488 5 OFFCURVE",
"489 10 CURVE",
"403 88 LINE"
);
}
);
width = 579;
}
);
unicode = 0043;
},
{
glyphname = D;
lastChange = "2019-02-19 01:31:44 +0000";
layers = (
{
layerId = "A36D14D1-FF07-4574-A62D-30DF65569781";
paths = (
{
closed = 1;
nodes = (
"113 14 LINE",
"176 14 LINE",
"176 686 LINE",
"113 686 LINE"
);
},
{
closed = 1;
nodes = (
"92 610 OFFCURVE",
"182 610 OFFCURVE",
"186 610 CURVE SMOOTH",
"383 608 LINE SMOOTH",
"397 608 OFFCURVE",
"410 602 OFFCURVE",
"410 587 CURVE SMOOTH",
"409 20 LINE SMOOTH",
"409 9 OFFCURVE",
"418 0 OFFCURVE",
"429 0 CURVE SMOOTH",
"470 0 LINE SMOOTH",
"481 0 OFFCURVE",
"490 9 OFFCURVE",
"490 20 CURVE SMOOTH",
"490 673 LINE SMOOTH",
"490 692 OFFCURVE",
"473 694 OFFCURVE",
"456 694 CURVE SMOOTH",
"99 694 LINE",
"95 693 OFFCURVE",
"91 689 OFFCURVE",
"90 684 CURVE",
"89 608 LINE"
);
},
{
closed = 1;
nodes = (
"90 10 LINE",
"91 5 OFFCURVE",
"95 1 OFFCURVE",
"99 0 CURVE",
"456 0 LINE SMOOTH",
"473 0 OFFCURVE",
"490 2 OFFCURVE",
"490 21 CURVE SMOOTH",
"490 674 LINE SMOOTH",
"490 685 OFFCURVE",
"481 694 OFFCURVE",
"470 694 CURVE SMOOTH",
"429 694 LINE SMOOTH",
"418 694 OFFCURVE",
"409 685 OFFCURVE",
"409 674 CURVE SMOOTH",
"410 107 LINE SMOOTH",
"410 92 OFFCURVE",
"397 86 OFFCURVE",
"383 86 CURVE SMOOTH",
"186 84 LINE SMOOTH",
"182 84 OFFCURVE",
"94 82 OFFCURVE",
"91 84 CURVE"
);
}
);
width = 579;
}
);
unicode = 0044;
},
{
glyphname = E;
lastChange = "2019-02-19 01:33:34 +0000";
layers = (
{
components = (
{
name = C;
}
);
layerId = "A36D14D1-FF07-4574-A62D-30DF65569781";
paths = (
{
closed = 1;
nodes = (
"127 257 LINE",
"395 257 LINE",
"395 313 LINE",
"127 313 LINE"
);
}
);
width = 579;
}
);
unicode = 0045;
},
{
glyphname = F;
lastChange = "2019-02-19 01:33:43 +0000";
layers = (
{
layerId = "A36D14D1-FF07-4574-A62D-30DF65569781";
paths = (
{
closed = 1;
nodes = (
"127 250 LINE",
"395 250 LINE",
"395 306 LINE",
"127 306 LINE"
);
},
{
closed = 1;
nodes = (
"489 684 LINE",
"488 689 OFFCURVE",
"484 693 OFFCURVE",
"480 694 CURVE",
"123 694 LINE SMOOTH",
"106 694 OFFCURVE",
"89 692 OFFCURVE",
"89 673 CURVE SMOOTH",
"89 20 LINE SMOOTH",
"89 9 OFFCURVE",
"98 0 OFFCURVE",
"109 0 CURVE SMOOTH",
"150 0 LINE SMOOTH",
"161 0 OFFCURVE",
"170 9 OFFCURVE",
"170 20 CURVE SMOOTH",
"169 587 LINE SMOOTH",
"169 602 OFFCURVE",
"182 608 OFFCURVE",
"196 608 CURVE SMOOTH",
"393 610 LINE SMOOTH",
"397 610 OFFCURVE",
"400 608 OFFCURVE",
"403 606 CURVE"
);
}
);
width = 579;
}
);
unicode = 0046;
},
{
glyphname = G;
lastChange = "2019-02-19 01:33:52 +0000";
layers = (
{
layerId = "A36D14D1-FF07-4574-A62D-30DF65569781";
paths = (
{
closed = 1;
nodes = (
"299 235 LINE",
"402 235 LINE",
"402 87 LINE",
"399 86 OFFCURVE",
"397 84 OFFCURVE",
"393 84 CURVE SMOOTH",
"196 86 LINE SMOOTH",
"184 86 OFFCURVE",
"173 90 OFFCURVE",
"170 101 CURVE",
"169 347 LINE",
"170 593 LINE",
"173 604 OFFCURVE",
"184 608 OFFCURVE",
"196 608 CURVE SMOOTH",
"393 610 LINE SMOOTH",
"397 610 OFFCURVE",
"400 608 OFFCURVE",
"403 606 CURVE",
"489 684 LINE",
"488 689 OFFCURVE",
"484 693 OFFCURVE",
"480 694 CURVE",
"109 694 LINE SMOOTH",
"98 694 OFFCURVE",
"89 685 OFFCURVE",
"89 674 CURVE SMOOTH",
"89 20 LINE SMOOTH",
"89 9 OFFCURVE",
"98 0 OFFCURVE",
"109 0 CURVE SMOOTH",
"469 0 LINE SMOOTH",
"480 0 OFFCURVE",
"489 9 OFFCURVE",
"489 20 CURVE SMOOTH",
"489 314 LINE",
"299 314 LINE"
);
}
);
width = 579;
}
);
unicode = 0047;
},
{
glyphname = H;
lastChange = "2019-02-19 01:33:01 +0000";
layers = (
{
layerId = "A36D14D1-FF07-4574-A62D-30DF65569781";
paths = (
{
closed = 1;
nodes = (
"89 539 LINE",
"89 20 LINE SMOOTH",
"89 9 OFFCURVE",
"98 0 OFFCURVE",
"109 0 CURVE SMOOTH",
"150 0 LINE SMOOTH",
"161 0 OFFCURVE",
"170 9 OFFCURVE",
"170 20 CURVE SMOOTH",
"169 537 LINE"
);
},
{
closed = 1;
nodes = (
"149 260 LINE",
"420 260 LINE",
"420 308 LINE",
"149 308 LINE"
);
},
{
closed = 1;
nodes = (
"408 519 LINE",
"409 20 LINE SMOOTH",
"409 9 OFFCURVE",
"418 0 OFFCURVE",
"429 0 CURVE SMOOTH",
"470 0 LINE SMOOTH",
"481 0 OFFCURVE",
"490 9 OFFCURVE",
"490 20 CURVE SMOOTH",
"490 540 LINE"
);
},
{
closed = 1;
nodes = (
"170 680 LINE SMOOTH",
"170 691 OFFCURVE",
"161 700 OFFCURVE",
"150 700 CURVE SMOOTH",
"109 700 LINE SMOOTH",
"98 700 OFFCURVE",
"89 691 OFFCURVE",
"89 680 CURVE SMOOTH",
"89 161 LINE",
"169 163 LINE"
);
},
{
closed = 1;
nodes = (
"490 680 LINE SMOOTH",
"490 691 OFFCURVE",
"481 700 OFFCURVE",
"470 700 CURVE SMOOTH",
"429 700 LINE SMOOTH",
"418 700 OFFCURVE",
"409 691 OFFCURVE",
"409 680 CURVE SMOOTH",
"408 181 LINE",
"490 160 LINE"
);
}
);
width = 579;
}
);
unicode = 0048;
},
{
glyphname = I;
lastChange = "2019-02-19 01:34:32 +0000";
layers = (
{
layerId = "A36D14D1-FF07-4574-A62D-30DF65569781";
paths = (
{
closed = 1;
nodes = (
"170 680 LINE SMOOTH",
"170 691 OFFCURVE",
"161 700 OFFCURVE",
"150 700 CURVE SMOOTH",
"109 700 LINE SMOOTH",
"98 700 OFFCURVE",
"89 691 OFFCURVE",
"89 680 CURVE SMOOTH",
"89 161 LINE",
"169 163 LINE"
);
},
{
closed = 1;
nodes = (
"89 540 LINE",
"89 21 LINE SMOOTH",
"89 10 OFFCURVE",
"98 1 OFFCURVE",
"109 1 CURVE SMOOTH",
"150 1 LINE SMOOTH",
"161 1 OFFCURVE",
"170 10 OFFCURVE",
"170 21 CURVE SMOOTH",
"169 538 LINE"
);
}
);
width = 259;
}
);
unicode = 0049;
},
{
glyphname = J;
lastChange = "2019-02-19 01:39:17 +0000";
layers = (
{
layerId = "A36D14D1-FF07-4574-A62D-30DF65569781";
paths = (
{
closed = 1;
nodes = (
"410 587 LINE",
"409 20 LINE SMOOTH",
"409 9 OFFCURVE",
"418 0 OFFCURVE",
"429 0 CURVE SMOOTH",
"470 0 LINE SMOOTH",
"481 0 OFFCURVE",
"490 9 OFFCURVE",
"490 20 CURVE SMOOTH",
"490 673 LINE"
);
},
{
closed = 1;
nodes = (
"429 694 LINE SMOOTH",
"418 694 OFFCURVE",
"409 685 OFFCURVE",
"409 674 CURVE SMOOTH",
"410 107 LINE SMOOTH",
"410 92 OFFCURVE",
"397 86 OFFCURVE",
"383 86 CURVE SMOOTH",
"186 84 LINE SMOOTH",
"183 84 OFFCURVE",
"180 85 OFFCURVE",
"178 87 CURVE",
"178 166 LINE",
"90 166 LINE",
"90 20 LINE SMOOTH",
"90 9 OFFCURVE",
"99 0 OFFCURVE",
"110 0 CURVE SMOOTH",
"456 0 LINE SMOOTH",
"473 0 OFFCURVE",
"490 2 OFFCURVE",
"490 21 CURVE SMOOTH",
"490 674 LINE SMOOTH",
"490 685 OFFCURVE",
"481 694 OFFCURVE",
"470 694 CURVE SMOOTH"
);
}
);
width = 579;
}
);
unicode = 004A;
},
{
glyphname = K;
lastChange = "2019-02-19 01:38:26 +0000";
layers = (
{
layerId = "A36D14D1-FF07-4574-A62D-30DF65569781";
paths = (
{
closed = 1;
nodes = (
"266 680 LINE SMOOTH",
"266 691 OFFCURVE",
"257 700 OFFCURVE",
"246 700 CURVE SMOOTH",
"205 700 LINE SMOOTH",
"194 700 OFFCURVE",
"185 691 OFFCURVE",
"185 680 CURVE SMOOTH",
"185 161 LINE",
"265 163 LINE"
);
},
{
closed = 1;
nodes = (
"185 540 LINE",
"185 21 LINE SMOOTH",
"185 10 OFFCURVE",
"194 1 OFFCURVE",
"205 1 CURVE SMOOTH",
"246 1 LINE SMOOTH",
"257 1 OFFCURVE",
"266 10 OFFCURVE",
"266 21 CURVE SMOOTH",
"265 538 LINE"
);
},
{
closed = 1;
nodes = (
"538 647 LINE SMOOTH",
"545 655 OFFCURVE",
"544 668 OFFCURVE",
"536 675 CURVE SMOOTH",
"504 701 LINE SMOOTH",
"496 708 OFFCURVE",
"483 707 OFFCURVE",
"476 699 CURVE SMOOTH",
"193 361 LINE",
"255 311 LINE"
);
},
{
closed = 1;
nodes = (
"562 -4 LINE SMOOTH",
"569 -12 OFFCURVE",
"582 -13 OFFCURVE",
"590 -6 CURVE SMOOTH",
"622 20 LINE SMOOTH",
"630 27 OFFCURVE",
"631 40 OFFCURVE",
"624 48 CURVE SMOOTH",
"321 396 LINE",
"261 343 LINE"
);
}
);
width = 651;
}
);
unicode = 004B;
},
{
glyphname = L;
lastChange = "2019-02-19 01:40:00 +0000";
layers = (
{
layerId = "A36D14D1-FF07-4574-A62D-30DF65569781";
paths = (
{
closed = 1;
nodes = (
"89 20 LINE SMOOTH",
"89 9 OFFCURVE",
"98 0 OFFCURVE",
"109 0 CURVE SMOOTH",
"150 0 LINE SMOOTH",
"161 0 OFFCURVE",
"170 9 OFFCURVE",
"170 20 CURVE SMOOTH",
"169 587 LINE",
"89 673 LINE"
);
},
{
closed = 1;
nodes = (
"431 95 LINE",
"431 87 LINE",
"429 85 OFFCURVE",
"426 84 OFFCURVE",
"423 84 CURVE SMOOTH",
"196 86 LINE SMOOTH",
"182 86 OFFCURVE",
"169 92 OFFCURVE",
"169 107 CURVE SMOOTH",
"170 674 LINE SMOOTH",
"170 685 OFFCURVE",
"161 694 OFFCURVE",
"150 694 CURVE SMOOTH",
"109 694 LINE SMOOTH",
"98 694 OFFCURVE",
"89 685 OFFCURVE",
"89 674 CURVE SMOOTH",
"89 21 LINE SMOOTH",
"89 2 OFFCURVE",
"106 0 OFFCURVE",
"123 0 CURVE SMOOTH",
"499 0 LINE SMOOTH",
"510 0 OFFCURVE",
"519 9 OFFCURVE",
"519 20 CURVE SMOOTH",
"519 98 LINE"
);
}
);
width = 579;
}
);
unicode = 004C;
},
{
glyphname = M;
lastChange = "2019-02-20 01:12:44 +0000";
layers = (
{
layerId = "A36D14D1-FF07-4574-A62D-30DF65569781";
paths = (
{
closed = 1;
nodes = (
"644 0 LINE SMOOTH",
"655 0 OFFCURVE",
"664 9 OFFCURVE",
"664 20 CURVE SMOOTH",
"664 676 LINE SMOOTH",
"664 697 OFFCURVE",
"637 701 OFFCURVE",
"626 701 CURVE SMOOTH",
"468 701 LINE SMOOTH",
"457 701 OFFCURVE",
"443 682 OFFCURVE",
"442 672 CURVE SMOOTH",
"408 198 LINE",
"382 676 LINE SMOOTH",
"381 686 OFFCURVE",
"367 701 OFFCURVE",
"356 701 CURVE SMOOTH",
"212 702 LINE SMOOTH",
"176 702 OFFCURVE",
"149 700 OFFCURVE",
"149 672 CURVE SMOOTH",
"149 20 LINE SMOOTH",
"149 9 OFFCURVE",
"158 0 OFFCURVE",
"169 0 CURVE SMOOTH",
"192 0 LINE SMOOTH",
"203 0 OFFCURVE",
"212 9 OFFCURVE",
"212 20 CURVE SMOOTH",
"216 606 LINE SMOOTH",
"216 625 OFFCURVE",
"234 628 OFFCURVE",
"263 628 CURVE SMOOTH",
"315 628 OFFCURVE",
"311 615 OFFCURVE",
"312 605 CURVE SMOOTH",
"351 119 LINE SMOOTH",
"355 71 OFFCURVE",
"468 66 OFFCURVE",
"472 117 CURVE SMOOTH",
"508 603 LINE SMOOTH",
"509 613 OFFCURVE",
"516 623 OFFCURVE",
"550 623 CURVE SMOOTH",
"588 623 OFFCURVE",
"597 619 OFFCURVE",
"597 605 CURVE SMOOTH",
"598 20 LINE SMOOTH",
"598 9 OFFCURVE",
"607 0 OFFCURVE",
"618 0 CURVE SMOOTH"
);
}
);
width = 803;
}
);
unicode = 004D;
},
{
glyphname = N;
lastChange = "2019-02-19 01:53:24 +0000";
layers = (
{
layerId = "A36D14D1-FF07-4574-A62D-30DF65569781";
paths = (
{
closed = 1;
nodes = (
"407 705 LINE SMOOTH",
"396 705 OFFCURVE",
"387 696 OFFCURVE",
"387 685 CURVE SMOOTH",
"393 123 LINE SMOOTH",
"393 112 OFFCURVE",
"388 103 OFFCURVE",
"378 103 CURVE SMOOTH",
"369 103 OFFCURVE",
"365 110 OFFCURVE",
"363 121 CURVE SMOOTH",
"254 680 LINE",
"252 688 OFFCURVE",
"244 694 OFFCURVE",
"235 694 CURVE SMOOTH",
"123 694 LINE SMOOTH",
"104 694 OFFCURVE",
"89 692 OFFCURVE",
"89 673 CURVE SMOOTH",
"89 20 LINE SMOOTH",
"89 9 OFFCURVE",
"98 0 OFFCURVE",
"109 0 CURVE SMOOTH",
"150 0 LINE SMOOTH",
"161 0 OFFCURVE",
"170 9 OFFCURVE",
"170 20 CURVE",
"169 587 LINE SMOOTH",
"169 602 OFFCURVE",
"201 600 OFFCURVE",
"204 587 CURVE SMOOTH",
"327 16 LINE SMOOTH",
"331 -2 OFFCURVE",
"387 1 OFFCURVE",
"397 1 CURVE SMOOTH",
"448 1 LINE SMOOTH",
"459 1 OFFCURVE",
"468 13 OFFCURVE",
"468 24 CURVE SMOOTH",
"468 685 LINE SMOOTH",
"468 696 OFFCURVE",
"459 705 OFFCURVE",
"448 705 CURVE SMOOTH"
);
}
);
width = 579;
}
);
unicode = 004E;
},
{
glyphname = O;
lastChange = "2019-02-19 01:54:40 +0000";
layers = (
{
layerId = "A36D14D1-FF07-4574-A62D-30DF65569781";
paths = (
{
closed = 1;
nodes = (
"490 189 LINE",
"490 680 LINE SMOOTH",
"490 687 OFFCURVE",
"486 695 OFFCURVE",
"480 696 CURVE",
"123 694 LINE SMOOTH",
"106 694 OFFCURVE",
"89 692 OFFCURVE",
"89 673 CURVE SMOOTH",
"89 186 LINE",
"170 187 LINE",
"169 587 LINE SMOOTH",
"169 602 OFFCURVE",
"182 608 OFFCURVE",
"196 608 CURVE SMOOTH",
"393 605 LINE SMOOTH",
"402 605 OFFCURVE",
"408 597 OFFCURVE",
"408 587 CURVE SMOOTH",
"409 189 LINE"
);
},
{
closed = 1;
nodes = (
"408 105 LINE SMOOTH",
"408 95 OFFCURVE",
"402 87 OFFCURVE",
"393 87 CURVE SMOOTH",
"196 84 LINE SMOOTH",
"182 84 OFFCURVE",
"169 90 OFFCURVE",
"169 105 CURVE SMOOTH",
"170 505 LINE",
"89 506 LINE",
"89 19 LINE SMOOTH",
"89 0 OFFCURVE",
"106 -2 OFFCURVE",
"123 -2 CURVE SMOOTH",
"480 -4 LINE",
"486 -3 OFFCURVE",
"490 5 OFFCURVE",
"490 12 CURVE SMOOTH",
"490 503 LINE",
"409 503 LINE"
);
}
);
width = 579;
}
);
unicode = 004F;
},
{
glyphname = P;
lastChange = "2019-02-19 01:55:42 +0000";
layers = (
{
layerId = "A36D14D1-FF07-4574-A62D-30DF65569781";
paths = (
{
closed = 1;
nodes = (
"149 253 LINE",
"470 253 LINE SMOOTH",
"481 253 OFFCURVE",
"490 262 OFFCURVE",
"490 273 CURVE SMOOTH",
"490 301 LINE",
"149 301 LINE"
);
},
{
closed = 1;
nodes = (
"490 300 LINE",
"490 681 LINE SMOOTH",
"490 688 OFFCURVE",
"486 696 OFFCURVE",
"480 697 CURVE",
"123 694 LINE SMOOTH",
"106 694 OFFCURVE",
"89 692 OFFCURVE",
"89 673 CURVE SMOOTH",
"89 20 LINE SMOOTH",
"89 9 OFFCURVE",
"98 0 OFFCURVE",
"109 0 CURVE SMOOTH",
"150 0 LINE SMOOTH",
"161 0 OFFCURVE",
"170 9 OFFCURVE",
"170 20 CURVE",
"169 623 LINE",
"169 638 OFFCURVE",
"182 644 OFFCURVE",
"196 644 CURVE SMOOTH",
"393 645 LINE SMOOTH",
"402 645 OFFCURVE",
"408 637 OFFCURVE",
"408 627 CURVE SMOOTH",
"408 300 LINE"
);
}
);
width = 579;
}
);
unicode = 0050;
},
{
glyphname = Q;
lastChange = "2019-02-19 01:57:26 +0000";
layers = (
{
layerId = "A36D14D1-FF07-4574-A62D-30DF65569781";
paths = (
{
closed = 1;
nodes = (
"372 -92 LINE",
"435 -55 LINE",
"286 202 LINE",
"223 165 LINE"
);
},
{
closed = 1;
nodes = (
"490 189 LINE",
"490 680 LINE SMOOTH",
"490 687 OFFCURVE",
"486 695 OFFCURVE",
"480 696 CURVE",
"123 694 LINE SMOOTH",
"106 694 OFFCURVE",
"89 692 OFFCURVE",
"89 673 CURVE SMOOTH",
"89 186 LINE",
"170 187 LINE",
"169 587 LINE SMOOTH",
"169 602 OFFCURVE",
"182 608 OFFCURVE",
"196 608 CURVE SMOOTH",
"393 605 LINE SMOOTH",
"402 605 OFFCURVE",
"408 597 OFFCURVE",
"408 587 CURVE SMOOTH",
"409 189 LINE"
);
},
{
closed = 1;
nodes = (
"408 105 LINE SMOOTH",
"408 95 OFFCURVE",
"402 87 OFFCURVE",
"393 87 CURVE SMOOTH",
"196 84 LINE SMOOTH",
"182 84 OFFCURVE",
"169 90 OFFCURVE",
"169 105 CURVE SMOOTH",
"170 505 LINE",
"89 506 LINE",
"89 19 LINE SMOOTH",
"89 0 OFFCURVE",
"106 -2 OFFCURVE",
"123 -2 CURVE SMOOTH",
"480 -4 LINE",
"486 -3 OFFCURVE",
"490 5 OFFCURVE",
"490 12 CURVE SMOOTH",
"490 503 LINE",
"409 503 LINE"
);
}
);
width = 579;
}
);
unicode = 0051;
},
{
glyphname = R;
lastChange = "2019-02-19 01:58:24 +0000";
layers = (
{
layerId = "A36D14D1-FF07-4574-A62D-30DF65569781";
paths = (
{
closed = 1;
nodes = (
"149 253 LINE",
"454 253 LINE",
"454 301 LINE",
"149 301 LINE"
);
},
{
closed = 1;
nodes = (
"438 300 LINE",
"440 20 LINE SMOOTH",
"440 9 OFFCURVE",
"449 0 OFFCURVE",
"460 0 CURVE SMOOTH",
"500 0 LINE SMOOTH",
"511 0 OFFCURVE",
"520 9 OFFCURVE",
"520 20 CURVE SMOOTH",
"520 280 LINE SMOOTH",
"520 291 OFFCURVE",
"511 300 OFFCURVE",
"500 300 CURVE SMOOTH"
);
},
{
closed = 1;
nodes = (
"490 300 LINE",
"490 681 LINE SMOOTH",
"490 688 OFFCURVE",
"486 696 OFFCURVE",
"480 697 CURVE",
"123 694 LINE SMOOTH",
"106 694 OFFCURVE",
"89 692 OFFCURVE",
"89 673 CURVE SMOOTH",
"89 20 LINE SMOOTH",
"89 9 OFFCURVE",
"98 0 OFFCURVE",
"109 0 CURVE SMOOTH",
"150 0 LINE SMOOTH",
"161 0 OFFCURVE",
"170 9 OFFCURVE",
"170 20 CURVE",
"169 623 LINE",
"169 638 OFFCURVE",
"182 644 OFFCURVE",
"196 644 CURVE SMOOTH",
"393 645 LINE SMOOTH",
"402 645 OFFCURVE",
"408 637 OFFCURVE",
"408 627 CURVE SMOOTH",
"408 300 LINE"
);
}
);
width = 579;
}
);
unicode = 0052;
},
{
glyphname = S;
lastChange = "2019-02-19 01:59:52 +0000";
layers = (
{
layerId = "A36D14D1-FF07-4574-A62D-30DF65569781";
paths = (
{
closed = 1;
nodes = (
"149 242 LINE",
"454 242 LINE",
"454 301 LINE",
"149 301 LINE"
);
},
{
closed = 1;
nodes = (
"89 0 LINE",
"470 0 LINE",
"470 58 LINE",
"89 58 LINE"
);
},
{
closed = 1;
nodes = (
"438 301 LINE",
"440 0 LINE",
"470 0 LINE",
"481 0 OFFCURVE",
"520 14 OFFCURVE",
"520 25 CURVE SMOOTH",
"520 280 LINE SMOOTH",
"520 301 OFFCURVE",
"511 301 OFFCURVE",
"500 301 CURVE SMOOTH"
);
},
{
closed = 1;
nodes = (
"170 242 LINE",
"169 623 LINE",
"169 638 OFFCURVE",
"182 644 OFFCURVE",
"196 644 CURVE SMOOTH",
"393 645 LINE SMOOTH",
"402 645 OFFCURVE",
"408 637 OFFCURVE",
"408 627 CURVE SMOOTH",
"408 617 LINE",
"490 621.99 LINE",
"490 681 LINE SMOOTH",
"490 688 OFFCURVE",
"486 696 OFFCURVE",
"480 697 CURVE",
"123 694 LINE SMOOTH",
"106 694 OFFCURVE",
"89 692 OFFCURVE",
"89 673 CURVE SMOOTH",
"89 242 LINE"
);
}
);
width = 579;
}
);
unicode = 0053;
},
{
glyphname = T;
lastChange = "2019-02-19 02:01:09 +0000";
layers = (
{
layerId = "A36D14D1-FF07-4574-A62D-30DF65569781";
paths = (
{
closed = 1;
nodes = (
"389 680 LINE SMOOTH",
"389 691 OFFCURVE",
"380 700 OFFCURVE",
"369 700 CURVE SMOOTH",
"328 700 LINE SMOOTH",
"317 700 OFFCURVE",
"308 691 OFFCURVE",
"308 680 CURVE SMOOTH",
"308 161 LINE",
"388 163 LINE"
);
},
{
closed = 1;
nodes = (
"308 540 LINE",
"308 21 LINE SMOOTH",
"308 10 OFFCURVE",
"317 1 OFFCURVE",
"328 1 CURVE SMOOTH",
"369 1 LINE SMOOTH",
"380 1 OFFCURVE",
"389 10 OFFCURVE",
"389 21 CURVE SMOOTH",
"388 538 LINE"
);
},
{
closed = 1;
nodes = (
"249 619 LINE",
"608 619 LINE SMOOTH",
"619 619 OFFCURVE",
"628 628 OFFCURVE",
"628 639 CURVE SMOOTH",
"628 680 LINE SMOOTH",
"628 691 OFFCURVE",
"619 700 OFFCURVE",
"608 700 CURVE SMOOTH",
"251 699 LINE"
);
},
{
closed = 1;
nodes = (
"109 700 LINE SMOOTH",
"98 700 OFFCURVE",
"89 691 OFFCURVE",
"89 680 CURVE SMOOTH",
"89 639 LINE SMOOTH",
"89 628 OFFCURVE",
"98 619 OFFCURVE",
"109 619 CURVE SMOOTH",
"468 619 LINE",
"466 699 LINE"
);
}
);
width = 717;
}
);
unicode = 0054;
},
{
glyphname = U;
lastChange = "2019-02-19 02:02:19 +0000";
layers = (
{
layerId = "A36D14D1-FF07-4574-A62D-30DF65569781";
paths = (
{
closed = 1;
nodes = (
"408 105 LINE SMOOTH",
"408 95 OFFCURVE",
"402 87 OFFCURVE",
"393 87 CURVE SMOOTH",
"196 84 LINE SMOOTH",
"182 84 OFFCURVE",
"169 90 OFFCURVE",
"169 105 CURVE SMOOTH",
"170 680 LINE SMOOTH",
"170 691 OFFCURVE",
"161 700 OFFCURVE",
"150 700 CURVE SMOOTH",
"110 701 LINE SMOOTH",
"98 701 OFFCURVE",
"89 692 OFFCURVE",
"89 680 CURVE SMOOTH",
"89 19 LINE SMOOTH",
"89 0 OFFCURVE",
"106 -2 OFFCURVE",
"123 -2 CURVE SMOOTH",
"480 -4 LINE",
"486 -3 OFFCURVE",
"490 5 OFFCURVE",
"490 12 CURVE SMOOTH",
"490 678 LINE SMOOTH",
"490 689 OFFCURVE",
"481 698 OFFCURVE",
"470 698 CURVE SMOOTH",
"429 698 LINE SMOOTH",
"418 698 OFFCURVE",
"409 689 OFFCURVE",
"409 678 CURVE SMOOTH"
);
}
);
width = 579;
}
);
unicode = 0055;
},
{
glyphname = V;
lastChange = "2019-02-19 02:05:59 +0000";
layers = (
{
layerId = "A36D14D1-FF07-4574-A62D-30DF65569781";
paths = (
{
closed = 1;
nodes = (
"577 683 LINE SMOOTH",
"567 687 OFFCURVE",
"555 681 OFFCURVE",
"551 671 CURVE SMOOTH",
"503 539 LINE",
"342 97 LINE",
"234 379 LINE",
"122 673 LINE",
"117 683 OFFCURVE",
"82 681 OFFCURVE",
"72 676 CURVE SMOOTH",
"58 669 LINE",
"47 666 OFFCURVE",
"42 654 OFFCURVE",
"46 644 CURVE SMOOTH",
"96 513 LINE",
"282 28 LINE SMOOTH",
"286 18 OFFCURVE",
"297 -1 OFFCURVE",
"308 -1 CURVE SMOOTH",
"376 -1 LINE SMOOTH",
"387 -1 OFFCURVE",
"398 14 OFFCURVE",
"402 24 CURVE SMOOTH",
"564 471 LINE",
"627 643 LINE SMOOTH",
"631 654 OFFCURVE",
"626 666 OFFCURVE",
"615 669 CURVE"
);
}
);
width = 673;
}
);
unicode = 0056;
},
{
glyphname = W;
lastChange = "2019-02-19 02:22:19 +0000";
layers = (
{
layerId = "A36D14D1-FF07-4574-A62D-30DF65569781";
paths = (
{
closed = 1;
nodes = (
"707 683 LINE SMOOTH",
"697 687 OFFCURVE",
"683 681 OFFCURVE",
"681 671 CURVE SMOOTH",
"582 95 LINE SMOOTH",
"580 86 OFFCURVE",
"572 79 OFFCURVE",
"563 79 CURVE SMOOTH",
"528 79 LINE SMOOTH",
"517 79 OFFCURVE",
"509 87 OFFCURVE",
"508 97 CURVE SMOOTH",
"472 583 LINE SMOOTH",
"468 634 OFFCURVE",
"355 629 OFFCURVE",
"351 581 CURVE SMOOTH",
"312 95 LINE SMOOTH",
"311 85 OFFCURVE",
"303 77 OFFCURVE",
"293 77 CURVE SMOOTH",
"239 77 LINE SMOOTH",
"229 77 OFFCURVE",
"220 84 OFFCURVE",
"219 94 CURVE SMOOTH",
"132 673 LINE",
"127 683 OFFCURVE",
"92 681 OFFCURVE",
"82 676 CURVE SMOOTH",
"68 669 LINE",
"57 666 OFFCURVE",
"54 654 OFFCURVE",
"56 644 CURVE SMOOTH",
"162 28 LINE SMOOTH",
"164 18 OFFCURVE",
"177 -1 OFFCURVE",
"188 -1 CURVE SMOOTH",
"356 -1 LINE SMOOTH",
"367 -1 OFFCURVE",
"381 14 OFFCURVE",
"382 24 CURVE",
"408 502 LINE",
"442 28 LINE SMOOTH",
"443 18 OFFCURVE",
"457 -1 OFFCURVE",
"468 -1 CURVE SMOOTH",
"626 -1 LINE SMOOTH",
"637 -1 OFFCURVE",
"650 14 OFFCURVE",
"652 24 CURVE SMOOTH",
"757 643 LINE SMOOTH",
"759 654 OFFCURVE",
"756 666 OFFCURVE",
"745 669 CURVE"
);
}
);
width = 803;
}
);
unicode = 0057;
},
{
glyphname = X;
lastChange = "2019-02-19 02:20:27 +0000";
layers = (
{
layerId = "A36D14D1-FF07-4574-A62D-30DF65569781";
paths = (
{
closed = 1;
nodes = (
"487 710 LINE SMOOTH",
"479 710 OFFCURVE",
"472 705 OFFCURVE",
"469 698 CURVE SMOOTH",
"342 347 LINE",
"234 629 LINE",
"207 700 LINE SMOOTH",
"204 708 OFFCURVE",
"196 712 OFFCURVE",
"189 712 CURVE SMOOTH",
"149 712 LINE SMOOTH",
"132 712 OFFCURVE",
"121 697 OFFCURVE",
"127 680 CURVE SMOOTH",
"282 278 LINE SMOOTH",
"286 268 OFFCURVE",
"297 249 OFFCURVE",
"308 249 CURVE SMOOTH",
"376 249 LINE SMOOTH",
"387 249 OFFCURVE",
"398 264 OFFCURVE",
"402 274 CURVE SMOOTH",
"549 679 LINE SMOOTH",
"555 695 OFFCURVE",
"545 709 OFFCURVE",
"528 709 CURVE SMOOTH"
);
},
{
closed = 1;
nodes = (
"467 -7 LINE SMOOTH",
"484 -7 OFFCURVE",
"494 7 OFFCURVE",
"488 23 CURVE SMOOTH",
"402 259 LINE SMOOTH",
"398 269 OFFCURVE",
"387 284 OFFCURVE",
"376 284 CURVE SMOOTH",
"308 284 LINE SMOOTH",
"297 284 OFFCURVE",
"286 265 OFFCURVE",
"282 255 CURVE SMOOTH",
"193 23 LINE SMOOTH",
"187 6 OFFCURVE",
"199 -9 OFFCURVE",
"216 -9 CURVE SMOOTH",
"256 -8 LINE SMOOTH",
"263 -8 OFFCURVE",
"269 -4 OFFCURVE",
"272 4 CURVE SMOOTH",
"342 186 LINE",
"409 4 LINE SMOOTH",
"412 -3 OFFCURVE",
"418 -8 OFFCURVE",
"426 -8 CURVE SMOOTH"
);
}
);
width = 673;
}
);
unicode = 0058;
},
{
glyphname = Y;
lastChange = "2019-02-19 02:23:34 +0000";
layers = (
{
layerId = "A36D14D1-FF07-4574-A62D-30DF65569781";
paths = (
{
closed = 1;
nodes = (
"487 710 LINE SMOOTH",
"479 710 OFFCURVE",
"472 705 OFFCURVE",
"469 698 CURVE",
"342 347 LINE",
"234 629 LINE",
"207 700 LINE SMOOTH",
"204 708 OFFCURVE",
"196 712 OFFCURVE",
"189 712 CURVE SMOOTH",
"149 712 LINE SMOOTH",
"132 712 OFFCURVE",
"121 697 OFFCURVE",
"127 680 CURVE SMOOTH",
"282 278 LINE SMOOTH",
"286 268 OFFCURVE",
"297 249 OFFCURVE",
"308 249 CURVE SMOOTH",
"376 249 LINE SMOOTH",
"387 249 OFFCURVE",
"398 264 OFFCURVE",
"402 274 CURVE SMOOTH",
"549 679 LINE SMOOTH",
"555 695 OFFCURVE",
"545 709 OFFCURVE",
"528 709 CURVE SMOOTH"
);
},
{
closed = 1;
nodes = (
"296 20 LINE SMOOTH",
"296 9 OFFCURVE",
"305 0 OFFCURVE",
"316 0 CURVE SMOOTH",
"365 0 LINE SMOOTH",
"376 0 OFFCURVE",
"385 9 OFFCURVE",
"385 20 CURVE SMOOTH",
"385 254 LINE",
"296 254 LINE"
);
}
);
width = 673;
}
);
unicode = 0059;
},
{
glyphname = Z;
lastChange = "2019-02-19 02:28:08 +0000";
layers = (
{
layerId = "A36D14D1-FF07-4574-A62D-30DF65569781";
paths = (
{
closed = 1;
nodes = (
"482 71 OFFCURVE",
"473 80 OFFCURVE",
"462 80 CURVE SMOOTH",
"193 80 LINE",
"467 662 LINE",
"469 667 OFFCURVE",
"458 700 OFFCURVE",
"447 700 CURVE SMOOTH",
"108 700 LINE SMOOTH",
"98 700 OFFCURVE",
"88 691 OFFCURVE",
"88 680 CURVE SMOOTH",
"89 639 LINE SMOOTH",
"89 628 OFFCURVE",
"98 619 OFFCURVE",
"109 619 CURVE SMOOTH",
"366 619 LINE",
"95 46 LINE",
"94 19 LINE",
"95 6 OFFCURVE",
"103 -1 OFFCURVE",
"114 -1 CURVE SMOOTH",
"463 -1 LINE SMOOTH",
"474 -1 OFFCURVE",
"483 8 OFFCURVE",
"483 19 CURVE",
"482 60 LINE"
);
}
);
width = 531;
}
);
unicode = 005A;
},
{
glyphname = a;
lastChange = "2019-02-19 00:04:10 +0000";
layers = (
{
layerId = "A36D14D1-FF07-4574-A62D-30DF65569781";
paths = (
{
closed = 1;
nodes = (
"140 500 LINE SMOOTH",
"111 500 OFFCURVE",
"89 478 OFFCURVE",
"89 449 CURVE SMOOTH",
"89 413 LINE",
"170 414 LINE",
"170 439 LINE SMOOTH",
"170 450 OFFCURVE",
"179 459 OFFCURVE",
"190 459 CURVE SMOOTH",
"389 459 LINE SMOOTH",
"400 459 OFFCURVE",
"409 450 OFFCURVE",
"409 439 CURVE SMOOTH",
"409 294 LINE",
"140 294 LINE SMOOTH",
"111 294 OFFCURVE",
"89 272 OFFCURVE",
"89 243 CURVE SMOOTH",
"89 51 LINE SMOOTH",
"89 22 OFFCURVE",
"111 0 OFFCURVE",
"140 0 CURVE SMOOTH",
"439 0 LINE SMOOTH",
"468 0 OFFCURVE",
"490 22 OFFCURVE",
"490 51 CURVE SMOOTH",
"490 449 LINE SMOOTH",
"490 478 OFFCURVE",
"468 500 OFFCURVE",
"439 500 CURVE SMOOTH"
);
},
{
closed = 1;
nodes = (
"409 50 OFFCURVE",
"400 41 OFFCURVE",
"389 41 CURVE SMOOTH",
"190 41 LINE SMOOTH",
"179 41 OFFCURVE",
"170 50 OFFCURVE",
"170 61 CURVE SMOOTH",
"170 233 LINE SMOOTH",
"170 244 OFFCURVE",
"179 253 OFFCURVE",
"190 253 CURVE SMOOTH",
"389 253 LINE SMOOTH",
"400 253 OFFCURVE",
"409 244 OFFCURVE",
"409 233 CURVE SMOOTH",
"409 61 LINE SMOOTH"
);
}
);
width = 579;
}
);
unicode = 0061;
},
{
glyphname = b;
lastChange = "2019-02-19 00:52:20 +0000";
layers = (
{
layerId = "A36D14D1-FF07-4574-A62D-30DF65569781";
paths = (
{
closed = 1;
nodes = (
"409 61 LINE SMOOTH",
"409 50 OFFCURVE",
"400 41 OFFCURVE",
"389 41 CURVE SMOOTH",
"190 41 LINE SMOOTH",
"179 41 OFFCURVE",
"170 50 OFFCURVE",
"170 61 CURVE SMOOTH",
"170 670 LINE SMOOTH",
"170 681 OFFCURVE",
"161 690 OFFCURVE",
"150 690 CURVE SMOOTH",
"109 690 LINE SMOOTH",
"98 690 OFFCURVE",
"89 681 OFFCURVE",
"89 670 CURVE SMOOTH",
"89 51 LINE SMOOTH",
"89 22 OFFCURVE",
"111 0 OFFCURVE",
"140 0 CURVE SMOOTH",
"439 0 LINE SMOOTH",
"468 0 OFFCURVE",
"490 22 OFFCURVE",
"490 51 CURVE SMOOTH",
"490 410 LINE SMOOTH",
"490 421 OFFCURVE",
"481 430 OFFCURVE",
"470 430 CURVE SMOOTH",
"429 430 LINE SMOOTH",
"418 430 OFFCURVE",
"409 421 OFFCURVE",
"409 410 CURVE SMOOTH"
);
},
{
closed = 1;
nodes = (
"409 39 OFFCURVE",
"418 30 OFFCURVE",
"429 30 CURVE SMOOTH",
"470 30 LINE SMOOTH",
"481 30 OFFCURVE",
"490 39 OFFCURVE",
"490 50 CURVE SMOOTH",
"490 449 LINE SMOOTH",
"490 478 OFFCURVE",
"468 500 OFFCURVE",
"439 500 CURVE SMOOTH",
"140 500 LINE SMOOTH",
"111 500 OFFCURVE",
"89 478 OFFCURVE",
"89 449 CURVE SMOOTH",
"89 50 LINE SMOOTH",
"89 39 OFFCURVE",
"98 30 OFFCURVE",
"109 30 CURVE SMOOTH",
"150 30 LINE SMOOTH",
"161 30 OFFCURVE",
"170 39 OFFCURVE",
"170 50 CURVE SMOOTH",
"170 439 LINE SMOOTH",
"170 450 OFFCURVE",
"179 459 OFFCURVE",
"190 459 CURVE SMOOTH",
"389 459 LINE SMOOTH",
"400 459 OFFCURVE",
"409 450 OFFCURVE",
"409 439 CURVE SMOOTH",
"409 50 LINE SMOOTH"
);
}
);
width = 579;
}
);
unicode = 0062;
},
{
glyphname = c;
lastChange = "2019-02-25 04:37:15 +0000";
layers = (
{
layerId = "A36D14D1-FF07-4574-A62D-30DF65569781";
paths = (
{
closed = 1;
nodes = (
"494 47 LINE SMOOTH",
"493 62 OFFCURVE",
"484 73 OFFCURVE",
"472 73 CURVE SMOOTH",
"165 73 LINE SMOOTH",
"153 73 OFFCURVE",
"143 85 OFFCURVE",
"143 99 CURVE SMOOTH",
"143 397 LINE SMOOTH",
"143 411 OFFCURVE",
"153 423 OFFCURVE",
"165 423 CURVE SMOOTH",
"469 423 LINE SMOOTH",
"481 423 OFFCURVE",
"491 434 OFFCURVE",
"491 449 CURVE SMOOTH",
"491 472 LINE SMOOTH",
"491 486 OFFCURVE",
"481 498 OFFCURVE",
"469 498 CURVE SMOOTH",
"154 498 LINE SMOOTH",
"122 498 OFFCURVE",
"98 469 OFFCURVE",
"98 432 CURVE SMOOTH",
"98 34 LINE SMOOTH",
"98 -3 OFFCURVE",
"122 -2 OFFCURVE",
"154 -2 CURVE SMOOTH",
"472 -2 LINE SMOOTH",
"485 -2 OFFCURVE",
"496 10 OFFCURVE",
"495 25 CURVE SMOOTH"
);
}
);
width = 560;
}
);
unicode = 0063;
},
{
glyphname = d;
lastChange = "2019-02-25 04:39:54 +0000";
layers = (
{
layerId = "A36D14D1-FF07-4574-A62D-30DF65569781";
paths = (
{
closed = 1;
nodes = (
"170 421 OFFCURVE",
"161 430 OFFCURVE",
"150 430 CURVE SMOOTH",
"109 430 LINE SMOOTH",
"98 430 OFFCURVE",
"89 421 OFFCURVE",
"89 410 CURVE SMOOTH",
"89 51 LINE SMOOTH",
"89 22 OFFCURVE",
"111 0 OFFCURVE",
"140 0 CURVE SMOOTH",
"439 0 LINE SMOOTH",
"468 0 OFFCURVE",
"490 22 OFFCURVE",
"490 51 CURVE SMOOTH",
"490 680 LINE SMOOTH",
"490 691 OFFCURVE",
"481 700 OFFCURVE",
"470 700 CURVE SMOOTH",
"429 700 LINE SMOOTH",
"418 700 OFFCURVE",
"409 691 OFFCURVE",
"409 680 CURVE SMOOTH",
"409 61 LINE SMOOTH",
"409 50 OFFCURVE",
"400 41 OFFCURVE",
"389 41 CURVE SMOOTH",
"190 41 LINE SMOOTH",
"179 41 OFFCURVE",
"170 50 OFFCURVE",
"170 61 CURVE SMOOTH",
"170 410 LINE SMOOTH"
);
},
{
closed = 1;
nodes = (
"170 439 LINE SMOOTH",
"170 450 OFFCURVE",
"179 459 OFFCURVE",
"190 459 CURVE SMOOTH",
"389 459 LINE SMOOTH",
"400 459 OFFCURVE",
"409 450 OFFCURVE",
"409 439 CURVE SMOOTH",
"409 50 LINE SMOOTH",
"409 39 OFFCURVE",
"418 30 OFFCURVE",
"429 30 CURVE SMOOTH",
"470 30 LINE SMOOTH",
"481 30 OFFCURVE",
"490 39 OFFCURVE",
"490 50 CURVE SMOOTH",
"490 449 LINE SMOOTH",
"490 478 OFFCURVE",
"468 500 OFFCURVE",
"439 500 CURVE SMOOTH",
"140 500 LINE SMOOTH",
"111 500 OFFCURVE",
"89 478 OFFCURVE",
"89 449 CURVE SMOOTH",
"89 50 LINE SMOOTH",
"89 39 OFFCURVE",
"98 30 OFFCURVE",
"109 30 CURVE SMOOTH",
"150 30 LINE SMOOTH",
"161 30 OFFCURVE",
"170 39 OFFCURVE",
"170 50 CURVE SMOOTH"
);
}
);
width = 579;
}
);
unicode = 0064;
},
{
glyphname = e;
lastChange = "2019-02-25 04:41:28 +0000";
layers = (
{
components = (
{
name = c;
}
);
layerId = "A36D14D1-FF07-4574-A62D-30DF65569781";
paths = (
{
closed = 1;
nodes = (
"142 273 LINE",
"439 274 LINE SMOOTH",
"468 274 OFFCURVE",
"490 296 OFFCURVE",
"490 325 CURVE SMOOTH",
"490 474 LINE",
"449 473 LINE",
"449 345 LINE SMOOTH",
"449 334 OFFCURVE",
"440 325 OFFCURVE",
"429 325 CURVE SMOOTH",
"139 324 LINE"
);
}
);
width = 509;
}
);
unicode = 0065;
},
{
glyphname = f;
lastChange = "2019-02-19 00:15:37 +0000";
layers = (
{
layerId = "A36D14D1-FF07-4574-A62D-30DF65569781";
paths = (
{
closed = 1;
nodes = (
"204 699 LINE SMOOTH",
"189 699 OFFCURVE",
"173 679 OFFCURVE",
"173 660 CURVE SMOOTH",
"173 520 LINE SMOOTH",
"173 509 OFFCURVE",
"164 500 OFFCURVE",
"153 500 CURVE SMOOTH",
"89 500 LINE SMOOTH",
"78 500 OFFCURVE",
"69 491 OFFCURVE",
"69 480 CURVE SMOOTH",
"69 479 LINE SMOOTH",
"69 468 OFFCURVE",
"78 459 OFFCURVE",
"89 459 CURVE SMOOTH",
"153 459 LINE SMOOTH",
"164 459 OFFCURVE",
"173 450 OFFCURVE",
"173 439 CURVE SMOOTH",
"173 20 LINE SMOOTH",
"173 9 OFFCURVE",
"182 0 OFFCURVE",
"193 0 CURVE SMOOTH",
"234 0 LINE SMOOTH",
"245 0 OFFCURVE",
"254 9 OFFCURVE",
"254 20 CURVE SMOOTH",
"254 439 LINE SMOOTH",
"254 450 OFFCURVE",
"263 459 OFFCURVE",
"274 459 CURVE SMOOTH",
"398 459 LINE SMOOTH",
"409 459 OFFCURVE",
"418 468 OFFCURVE",
"418 479 CURVE SMOOTH",
"418 480 LINE SMOOTH",
"418 491 OFFCURVE",
"409 500 OFFCURVE",
"398 500 CURVE SMOOTH",
"274 500 LINE SMOOTH",
"263 500 OFFCURVE",
"254 509 OFFCURVE",
"254 520 CURVE SMOOTH",
"254 631 LINE SMOOTH",
"254 642 OFFCURVE",
"263 651 OFFCURVE",
"274 651 CURVE SMOOTH",
"399 651 LINE SMOOTH",
"409 651 OFFCURVE",
"423 660 OFFCURVE",
"423 680 CURVE SMOOTH",
"423 692 OFFCURVE",
"414 700 OFFCURVE",
"403 700 CURVE SMOOTH"
);
}
);
width = 477;
}
);
unicode = 0066;
},
{
glyphname = g;
lastChange = "2019-02-19 00:33:33 +0000";
layers = (
{
layerId = "A36D14D1-FF07-4574-A62D-30DF65569781";
paths = (
{
closed = 1;
nodes = (
"130 500 LINE SMOOTH",
"107 500 OFFCURVE",
"89 482 OFFCURVE",
"89 459 CURVE SMOOTH",
"89 41 LINE SMOOTH",
"89 18 OFFCURVE",
"107 0 OFFCURVE",
"130 0 CURVE SMOOTH",
"449 0 LINE SMOOTH",
"472 0 OFFCURVE",
"490 18 OFFCURVE",
"490 41 CURVE SMOOTH",
"490 459 LINE SMOOTH",
"490 482 OFFCURVE",
"472 500 OFFCURVE",
"449 500 CURVE SMOOTH"
);
},
{
closed = 1;
nodes = (
"190 41 LINE SMOOTH",
"179 41 OFFCURVE",
"170 50 OFFCURVE",
"170 61 CURVE SMOOTH",
"170 439 LINE SMOOTH",
"170 450 OFFCURVE",
"179 459 OFFCURVE",
"190 459 CURVE SMOOTH",
"389 459 LINE SMOOTH",
"400 459 OFFCURVE",
"409 450 OFFCURVE",
"409 439 CURVE SMOOTH",
"409 61 LINE SMOOTH",
"409 50 OFFCURVE",
"400 41 OFFCURVE",
"389 41 CURVE SMOOTH"
);
},
{
closed = 1;
nodes = (
"408 -139 LINE SMOOTH",
"408 -150 OFFCURVE",
"398 -160 OFFCURVE",
"387 -160 CURVE SMOOTH",
"159 -159 LINE SMOOTH",
"148 -159 OFFCURVE",
"139 -168 OFFCURVE",
"139 -179 CURVE SMOOTH",
"139 -180 LINE SMOOTH",
"139 -191 OFFCURVE",
"148 -200 OFFCURVE",
"159 -200 CURVE SMOOTH",
"470 -200 LINE SMOOTH",
"481 -200 OFFCURVE",
"490 -191 OFFCURVE",
"490 -180 CURVE SMOOTH",
"490 44 LINE",
"408 43 LINE"
);
}
);
width = 579;
}
);
unicode = 0067;
},
{
glyphname = h;
lastChange = "2019-02-25 04:36:51 +0000";
layers = (
{
layerId = "A36D14D1-FF07-4574-A62D-30DF65569781";
paths = (
{
closed = 1;
nodes = (
"450 10 OFFCURVE",
"460 -2 OFFCURVE",
"472 -2 CURVE SMOOTH",
"517 -2 LINE SMOOTH",
"529 -2 OFFCURVE",
"539 10 OFFCURVE",
"539 24 CURVE SMOOTH",
"539 432 LINE SMOOTH",
"539 469 OFFCURVE",
"515 498 OFFCURVE",
"483 498 CURVE SMOOTH",
"154 498 LINE SMOOTH",
"122 498 OFFCURVE",
"98 469 OFFCURVE",
"98 432 CURVE SMOOTH",
"98 24 LINE SMOOTH",
"98 10 OFFCURVE",
"108 -2 OFFCURVE",
"120 -2 CURVE SMOOTH",
"165 -2 LINE SMOOTH",
"177 -2 OFFCURVE",
"187 10 OFFCURVE",
"187 24 CURVE SMOOTH",
"187 419 LINE SMOOTH",
"187 433 OFFCURVE",
"197 445 OFFCURVE",
"209 445 CURVE SMOOTH",
"428 445 LINE SMOOTH",
"440 445 OFFCURVE",
"450 433 OFFCURVE",
"450 419 CURVE SMOOTH",
"450 24 LINE SMOOTH"
);
},
{
closed = 1;
nodes = (
"98 266 LINE",
"180 266 LINE",
"180 772 LINE SMOOTH",
"180 786 OFFCURVE",
"171 798 OFFCURVE",
"158 798 CURVE SMOOTH",
"120 798 LINE SMOOTH",
"108 798 OFFCURVE",
"98 786 OFFCURVE",
"98 772 CURVE SMOOTH"
);
}
);
width = 637;
}
);
unicode = 0068;
},
{
glyphname = i;
lastChange = "2019-02-19 00:37:06 +0000";
layers = (
{
layerId = "A36D14D1-FF07-4574-A62D-30DF65569781";
paths = (
{
closed = 1;
nodes = (
"183 42 LINE",
"175 45 OFFCURVE",
"170 53 OFFCURVE",
"170 61 CURVE SMOOTH",
"170 480 LINE SMOOTH",
"170 491 OFFCURVE",
"161 500 OFFCURVE",
"150 500 CURVE SMOOTH",
"109 500 LINE SMOOTH",
"98 500 OFFCURVE",
"89 491 OFFCURVE",
"89 480 CURVE SMOOTH",
"89 51 LINE SMOOTH",
"89 22 OFFCURVE",
"111 0 OFFCURVE",
"140 0 CURVE SMOOTH",
"185 0 LINE"
);
},
{
closed = 1;
nodes = (
"88 558 LINE",
"161 558 LINE",
"161 653 LINE",
"88 653 LINE"
);
}
);
width = 272;
}
);
unicode = 0069;
},
{
glyphname = j;
lastChange = "2019-02-20 01:13:04 +0000";
layers = (
{
layerId = "A36D14D1-FF07-4574-A62D-30DF65569781";
paths = (
{
closed = 1;
nodes = (
"45 -149 LINE SMOOTH",
"45 -178 OFFCURVE",
"67 -200 OFFCURVE",
"96 -200 CURVE SMOOTH",
"245 -200 LINE SMOOTH",
"274 -200 OFFCURVE",
"296 -178 OFFCURVE",
"296 -149 CURVE SMOOTH",
"296 480 LINE SMOOTH",
"296 491 OFFCURVE",
"287 500 OFFCURVE",
"276 500 CURVE SMOOTH",
"235 500 LINE SMOOTH",
"224 500 OFFCURVE",
"215 491 OFFCURVE",
"215 480 CURVE SMOOTH",
"215 -139 LINE SMOOTH",
"215 -150 OFFCURVE",
"206 -159 OFFCURVE",
"195 -159 CURVE SMOOTH",
"146 -159 LINE SMOOTH",
"135 -159 OFFCURVE",
"126 -150 OFFCURVE",
"126 -139 CURVE SMOOTH",
"126 -122 LINE",
"45 -124 LINE"
);
},
{
closed = 1;
nodes = (
"209 653 LINE",
"209 558 LINE",
"282 558 LINE",
"282 653 LINE"
);
}
);
width = 359;
}
);
unicode = 006A;
},
{
glyphname = k;
lastChange = "2019-02-19 00:54:00 +0000";
layers = (
{
layerId = "A36D14D1-FF07-4574-A62D-30DF65569781";
paths = (
{
closed = 1;
nodes = (
"226 262 LINE",
"366 500 LINE",
"315 500 LINE",
"188 285 LINE",
"137 286 LINE",
"137 680 LINE SMOOTH",
"137 691 OFFCURVE",
"128 700 OFFCURVE",
"117 700 CURVE SMOOTH",
"76 700 LINE SMOOTH",
"65 700 OFFCURVE",
"56 691 OFFCURVE",
"56 680 CURVE SMOOTH",
"56 32 LINE SMOOTH",
"56 13 OFFCURVE",
"65 -3 OFFCURVE",
"76 -3 CURVE SMOOTH",
"117 -3 LINE SMOOTH",
"128 -3 OFFCURVE",
"137 13 OFFCURVE",
"137 32 CURVE SMOOTH",
"137 261 LINE",
"178 261 LINE",
"328 4 LINE",
"379 4 LINE"
);
}
);
width = 436;
}
);
unicode = 006B;
},
{
glyphname = l;
lastChange = "2019-02-19 00:54:18 +0000";
layers = (
{
layerId = "A36D14D1-FF07-4574-A62D-30DF65569781";
paths = (
{
closed = 1;
nodes = (
"233 78 LINE",
"233 61 LINE SMOOTH",
"233 50 OFFCURVE",
"224 41 OFFCURVE",
"213 41 CURVE SMOOTH",
"164 41 LINE SMOOTH",
"153 41 OFFCURVE",
"144 50 OFFCURVE",
"144 61 CURVE SMOOTH",
"144 680 LINE SMOOTH",
"144 691 OFFCURVE",
"135 700 OFFCURVE",
"124 700 CURVE SMOOTH",
"83 700 LINE SMOOTH",
"72 700 OFFCURVE",
"63 691 OFFCURVE",
"63 680 CURVE SMOOTH",
"63 51 LINE SMOOTH",
"63 22 OFFCURVE",
"85 0 OFFCURVE",
"114 0 CURVE SMOOTH",
"263 0 LINE SMOOTH",
"292 0 OFFCURVE",
"314 22 OFFCURVE",
"314 51 CURVE SMOOTH",
"314 76 LINE"
);
}
);
width = 399;
}
);
unicode = 006C;
},
{
glyphname = m;
lastChange = "2019-02-25 04:37:56 +0000";
layers = (
{
layerId = "A36D14D1-FF07-4574-A62D-30DF65569781";
paths = (
{
closed = 1;
nodes = (
"119 498 LINE",
"107 497 OFFCURVE",
"98 486 OFFCURVE",
"98 472 CURVE SMOOTH",
"98 24 LINE SMOOTH",
"98 10 OFFCURVE",
"108 -2 OFFCURVE",
"120 -2 CURVE SMOOTH",
"157 -2 LINE SMOOTH",
"169 -2 OFFCURVE",
"179 10 OFFCURVE",
"179 24 CURVE SMOOTH",
"179 440 LINE SMOOTH",
"179 454 OFFCURVE",
"189 466 OFFCURVE",
"201 466 CURVE SMOOTH",
"278 466 LINE SMOOTH",
"290 466 OFFCURVE",
"300 454 OFFCURVE",
"300 440 CURVE SMOOTH",
"300 24 LINE SMOOTH",
"300 10 OFFCURVE",
"310 -2 OFFCURVE",
"322 -2 CURVE SMOOTH",
"336 -2 LINE SMOOTH",
"348 -2 OFFCURVE",
"358 10 OFFCURVE",
"358 24 CURVE SMOOTH",
"358 440 LINE SMOOTH",
"358 454 OFFCURVE",
"367 466 OFFCURVE",
"380 466 CURVE SMOOTH",
"460 466 LINE SMOOTH",
"472 466 OFFCURVE",
"482 454 OFFCURVE",
"482 440 CURVE SMOOTH",
"482 24 LINE SMOOTH",
"482 10 OFFCURVE",
"492 -2 OFFCURVE",
"504 -2 CURVE SMOOTH",
"537 -2 LINE SMOOTH",
"549 -2 OFFCURVE",
"559 10 OFFCURVE",
"559 24 CURVE SMOOTH",
"559 472 LINE SMOOTH",
"559 486 OFFCURVE",
"550 497 OFFCURVE",
"538 498 CURVE"
);
}
);
width = 657;
}
);
unicode = 006D;
},
{
glyphname = n;
lastChange = "2019-02-25 04:38:40 +0000";
layers = (
{
layerId = "A36D14D1-FF07-4574-A62D-30DF65569781";
paths = (
{
closed = 1;
nodes = (
"450 10 OFFCURVE",
"460 -2 OFFCURVE",
"472 -2 CURVE SMOOTH",
"517 -2 LINE SMOOTH",
"529 -2 OFFCURVE",
"539 10 OFFCURVE",
"539 24 CURVE SMOOTH",
"539 432 LINE SMOOTH",
"539 469 OFFCURVE",
"515 498 OFFCURVE",
"483 498 CURVE SMOOTH",
"154 498 LINE SMOOTH",
"122 498 OFFCURVE",
"98 469 OFFCURVE",
"98 432 CURVE SMOOTH",
"98 24 LINE SMOOTH",
"98 10 OFFCURVE",
"108 -2 OFFCURVE",
"120 -2 CURVE SMOOTH",
"165 -2 LINE SMOOTH",
"177 -2 OFFCURVE",
"187 10 OFFCURVE",
"187 24 CURVE SMOOTH",
"187 419 LINE SMOOTH",
"187 433 OFFCURVE",
"197 445 OFFCURVE",
"209 445 CURVE SMOOTH",
"428 445 LINE SMOOTH",
"440 445 OFFCURVE",
"450 433 OFFCURVE",
"450 419 CURVE SMOOTH",
"450 24 LINE SMOOTH"
);
}
);
width = 637;
}
);
unicode = 006E;
},
{
glyphname = o;
lastChange = "2019-02-25 04:39:09 +0000";
layers = (
{
layerId = "A36D14D1-FF07-4574-A62D-30DF65569781";
paths = (
{
closed = 1;
nodes = (
"143 498 LINE SMOOTH",
"118 498 OFFCURVE",
"98 475 OFFCURVE",
"98 445 CURVE SMOOTH",
"98 51 LINE SMOOTH",
"98 21 OFFCURVE",
"118 -2 OFFCURVE",
"143 -2 CURVE SMOOTH",
"494 -2 LINE SMOOTH",
"519 -2 OFFCURVE",
"539 21 OFFCURVE",
"539 51 CURVE SMOOTH",
"539 445 LINE SMOOTH",
"539 475 OFFCURVE",
"519 498 OFFCURVE",
"494 498 CURVE SMOOTH"
);
},
{
closed = 1;
nodes = (
"209 51 LINE SMOOTH",
"197 51 OFFCURVE",
"187 63 OFFCURVE",
"187 77 CURVE SMOOTH",
"187 419 LINE SMOOTH",
"187 433 OFFCURVE",
"197 445 OFFCURVE",
"209 445 CURVE SMOOTH",
"428 445 LINE SMOOTH",
"440 445 OFFCURVE",
"450 433 OFFCURVE",
"450 419 CURVE SMOOTH",
"450 77 LINE SMOOTH",
"450 63 OFFCURVE",
"440 51 OFFCURVE",
"428 51 CURVE SMOOTH"
);
}
);
width = 637;
}
);
unicode = 006F;
},
{
glyphname = p;
lastChange = "2019-02-25 04:39:26 +0000";
layers = (
{
layerId = "A36D14D1-FF07-4574-A62D-30DF65569781";
paths = (
{
closed = 1;
nodes = (
"409 79 OFFCURVE",
"418 70 OFFCURVE",
"429 70 CURVE SMOOTH",
"470 70 LINE SMOOTH",
"481 70 OFFCURVE",
"490 79 OFFCURVE",
"490 90 CURVE SMOOTH",
"490 449 LINE SMOOTH",
"490 478 OFFCURVE",
"468 500 OFFCURVE",
"439 500 CURVE SMOOTH",
"140 500 LINE SMOOTH",
"111 500 OFFCURVE",
"89 478 OFFCURVE",
"89 449 CURVE SMOOTH",
"89 -180 LINE SMOOTH",
"89 -191 OFFCURVE",
"98 -200 OFFCURVE",
"109 -200 CURVE SMOOTH",
"150 -200 LINE SMOOTH",
"161 -200 OFFCURVE",
"170 -191 OFFCURVE",
"170 -180 CURVE SMOOTH",
"170 439 LINE SMOOTH",
"170 450 OFFCURVE",
"179 459 OFFCURVE",
"190 459 CURVE SMOOTH",
"389 459 LINE SMOOTH",
"400 459 OFFCURVE",
"409 450 OFFCURVE",
"409 439 CURVE SMOOTH",
"409 90 LINE SMOOTH"
);
},
{
closed = 1;
nodes = (
"409 61 LINE SMOOTH",
"409 50 OFFCURVE",
"400 41 OFFCURVE",
"389 41 CURVE SMOOTH",
"190 41 LINE SMOOTH",
"179 41 OFFCURVE",
"170 50 OFFCURVE",
"170 61 CURVE SMOOTH",
"170 450 LINE SMOOTH",
"170 461 OFFCURVE",
"161 470 OFFCURVE",
"150 470 CURVE SMOOTH",
"109 470 LINE SMOOTH",
"98 470 OFFCURVE",
"89 461 OFFCURVE",
"89 450 CURVE SMOOTH",
"89 51 LINE SMOOTH",
"89 22 OFFCURVE",
"111 0 OFFCURVE",
"140 0 CURVE SMOOTH",
"439 0 LINE SMOOTH",
"468 0 OFFCURVE",
"490 22 OFFCURVE",
"490 51 CURVE SMOOTH",
"490 450 LINE SMOOTH",
"490 461 OFFCURVE",
"481 470 OFFCURVE",
"470 470 CURVE SMOOTH",
"429 470 LINE SMOOTH",
"418 470 OFFCURVE",
"409 461 OFFCURVE",
"409 450 CURVE SMOOTH"
);
}
);
width = 579;
}
);
unicode = 0070;
},
{
glyphname = r;
lastChange = "2019-02-25 04:42:23 +0000";
layers = (
{
layerId = "A36D14D1-FF07-4574-A62D-30DF65569781";
paths = (
{
closed = 1;
nodes = (
"539 434 LINE SMOOTH",
"539 471 OFFCURVE",
"515 500 OFFCURVE",
"483 500 CURVE SMOOTH",
"154 500 LINE SMOOTH",
"122 500 OFFCURVE",
"98 471 OFFCURVE",
"98 434 CURVE SMOOTH",
"98 37 LINE SMOOTH",
"98 23 OFFCURVE",
"108 11 OFFCURVE",
"120 11 CURVE SMOOTH",
"165 11 LINE SMOOTH",
"177 11 OFFCURVE",
"187 23 OFFCURVE",
"187 37 CURVE SMOOTH",
"187 421 LINE SMOOTH",
"187 435 OFFCURVE",
"197 447 OFFCURVE",
"209 447 CURVE SMOOTH",
"428 447 LINE SMOOTH",
"440 447 OFFCURVE",
"450 435 OFFCURVE",
"450 421 CURVE SMOOTH",
"450 399 LINE",
"539 401 LINE"
);
}
);
width = 560;
}
);
unicode = 0072;
},
{
glyphname = s;
lastChange = "2019-02-19 01:05:42 +0000";
layers = (
{
layerId = "A36D14D1-FF07-4574-A62D-30DF65569781";
paths = (
{
closed = 1;
nodes = (
"125 290 LINE",
"122 294 OFFCURVE",
"120 298 OFFCURVE",
"120 303 CURVE SMOOTH",
"120 371 LINE SMOOTH",
"120 415 OFFCURVE",
"129 411 OFFCURVE",
"140 411 CURVE SMOOTH",
"416 411 LINE SMOOTH",
"427 411 OFFCURVE",
"436 420 OFFCURVE",
"436 431 CURVE SMOOTH",
"436 472 LINE SMOOTH",
"436 483 OFFCURVE",
"427 492 OFFCURVE",
"416 492 CURVE SMOOTH",
"130 492 LINE SMOOTH",
"101 492 OFFCURVE",
"79 470 OFFCURVE",
"79 441 CURVE SMOOTH",
"79 253 LINE SMOOTH",
"79 224 OFFCURVE",
"101 202 OFFCURVE",
"130 202 CURVE SMOOTH",
"404 202 LINE",
"407 198 OFFCURVE",
"409 194 OFFCURVE",
"409 189 CURVE SMOOTH",
"409 101 LINE SMOOTH",
"409 90 OFFCURVE",
"400 81 OFFCURVE",
"389 81 CURVE SMOOTH",
"110 81 LINE SMOOTH",
"99 81 OFFCURVE",
"90 72 OFFCURVE",
"90 61 CURVE SMOOTH",
"89 21 LINE SMOOTH",
"89 9 OFFCURVE",
"98 0 OFFCURVE",
"110 0 CURVE SMOOTH",
"399 0 LINE SMOOTH",
"428 0 OFFCURVE",
"450 22 OFFCURVE",
"450 51 CURVE SMOOTH",
"450 239 LINE SMOOTH",
"450 268 OFFCURVE",
"428 290 OFFCURVE",
"399 290 CURVE SMOOTH"
);
}
);
width = 509;
}
);
unicode = 0073;
},
{
glyphname = t;
lastChange = "2019-02-25 04:42:54 +0000";
layers = (
{
layerId = "A36D14D1-FF07-4574-A62D-30DF65569781";
paths = (
{
closed = 1;
nodes = (
"356 501 LINE SMOOTH",
"344 501 OFFCURVE",
"334 513 OFFCURVE",
"334 527 CURVE SMOOTH",
"334 762 LINE SMOOTH",
"334 777 OFFCURVE",
"325 787 OFFCURVE",
"312 788 CURVE SMOOTH",
"268 790 LINE SMOOTH",
"255 791 OFFCURVE",
"245 778 OFFCURVE",
"245 762 CURVE SMOOTH",
"245 527 LINE SMOOTH",
"245 513 OFFCURVE",
"235 501 OFFCURVE",
"223 501 CURVE SMOOTH",
"87 501 LINE SMOOTH",
"75 501 OFFCURVE",
"65 489 OFFCURVE",
"65 475 CURVE SMOOTH",
"65 474 LINE SMOOTH",
"65 459 OFFCURVE",
"75 448 OFFCURVE",
"87 448 CURVE SMOOTH",
"223 448 LINE SMOOTH",
"235 448 OFFCURVE",
"245 436 OFFCURVE",
"245 422 CURVE SMOOTH",
"245 24 LINE SMOOTH",
"245 10 OFFCURVE",
"255 -2 OFFCURVE",
"267 -2 CURVE SMOOTH",
"312 -2 LINE SMOOTH",
"325 -2 OFFCURVE",
"334 10 OFFCURVE",
"334 24 CURVE SMOOTH",
"334 422 LINE SMOOTH",
"334 436 OFFCURVE",
"344 448 OFFCURVE",
"356 448 CURVE SMOOTH",
"493 448 LINE SMOOTH",
"505 448 OFFCURVE",
"515 459 OFFCURVE",
"515 474 CURVE SMOOTH",
"515 475 LINE SMOOTH",
"515 489 OFFCURVE",
"505 501 OFFCURVE",
"493 501 CURVE SMOOTH"
);
}
);
width = 580;
}
);
unicode = 0074;
},
{
glyphname = u;
lastChange = "2019-02-25 04:43:22 +0000";
layers = (
{
layerId = "A36D14D1-FF07-4574-A62D-30DF65569781";
paths = (
{
closed = 1;
nodes = (
"450 77 LINE SMOOTH",
"450 63 OFFCURVE",
"440 51 OFFCURVE",
"428 51 CURVE SMOOTH",
"209 51 LINE SMOOTH",
"197 51 OFFCURVE",
"187 63 OFFCURVE",
"187 77 CURVE SMOOTH",
"187 473 LINE SMOOTH",
"187 487 OFFCURVE",
"177 499 OFFCURVE",
"165 499 CURVE SMOOTH",
"120 499 LINE SMOOTH",
"108 499 OFFCURVE",
"98 487 OFFCURVE",
"98 473 CURVE SMOOTH",
"98 64 LINE SMOOTH",
"98 27 OFFCURVE",
"122 -2 OFFCURVE",
"154 -2 CURVE SMOOTH",
"483 -2 LINE SMOOTH",
"515 -2 OFFCURVE",
"539 27 OFFCURVE",
"539 64 CURVE SMOOTH",
"539 473 LINE SMOOTH",
"539 487 OFFCURVE",
"529 499 OFFCURVE",
"517 499 CURVE SMOOTH",
"472 499 LINE SMOOTH",
"460 499 OFFCURVE",
"450 487 OFFCURVE",
"450 473 CURVE SMOOTH"
);
}
);
width = 637;
}
);
unicode = 0075;
},
{
glyphname = v;
lastChange = "2019-02-19 00:56:49 +0000";
layers = (
{
layerId = "A36D14D1-FF07-4574-A62D-30DF65569781";
paths = (
{
closed = 1;
nodes = (
"294 41 LINE",
"250 41 LINE SMOOTH",
"239 41 OFFCURVE",
"232 50 OFFCURVE",
"230 61 CURVE SMOOTH",
"170 480 LINE SMOOTH",
"168 491 OFFCURVE",
"161 500 OFFCURVE",
"150 500 CURVE SMOOTH",
"109 500 LINE SMOOTH",
"98 500 OFFCURVE",
"87 491 OFFCURVE",
"89 480 CURVE SMOOTH",
"149 51 LINE SMOOTH",
"153 22 OFFCURVE",
"171 0 OFFCURVE",
"200 0 CURVE SMOOTH",
"294 0 LINE"
);
},
{
closed = 1;
nodes = (
"289 0 LINE",
"379 0 LINE SMOOTH",
"408 0 OFFCURVE",
"426 22 OFFCURVE",
"430 51 CURVE SMOOTH",
"490 480 LINE SMOOTH",
"492 491 OFFCURVE",
"481 500 OFFCURVE",
"470 500 CURVE SMOOTH",
"429 500 LINE SMOOTH",
"418 500 OFFCURVE",
"411 491 OFFCURVE",
"409 480 CURVE SMOOTH",
"349 61 LINE SMOOTH",
"347 50 OFFCURVE",
"340 41 OFFCURVE",
"329 41 CURVE SMOOTH",
"289 41 LINE"
);
}
);
width = 579;
}
);
unicode = 0076;
},
{
glyphname = w;
lastChange = "2019-02-25 04:43:48 +0000";
layers = (
{
layerId = "A36D14D1-FF07-4574-A62D-30DF65569781";
paths = (
{
closed = 1;
nodes = (
"550 -1 OFFCURVE",
"559 10 OFFCURVE",
"559 24 CURVE SMOOTH",
"559 473 LINE SMOOTH",
"559 487 OFFCURVE",
"549 499 OFFCURVE",
"537 499 CURVE SMOOTH",
"504 499 LINE SMOOTH",
"492 499 OFFCURVE",
"482 487 OFFCURVE",
"482 473 CURVE SMOOTH",
"482 57 LINE SMOOTH",
"482 42 OFFCURVE",
"472 31 OFFCURVE",
"460 31 CURVE SMOOTH",
"380 31 LINE SMOOTH",
"367 31 OFFCURVE",
"358 42 OFFCURVE",
"358 57 CURVE SMOOTH",
"358 473 LINE SMOOTH",
"358 487 OFFCURVE",
"348 499 OFFCURVE",
"336 499 CURVE SMOOTH",
"322 499 LINE SMOOTH",
"310 499 OFFCURVE",
"300 487 OFFCURVE",
"300 473 CURVE SMOOTH",
"300 57 LINE SMOOTH",
"300 42 OFFCURVE",
"290 31 OFFCURVE",
"278 31 CURVE SMOOTH",
"201 31 LINE SMOOTH",
"189 31 OFFCURVE",
"179 42 OFFCURVE",
"179 57 CURVE SMOOTH",
"179 473 LINE SMOOTH",
"179 487 OFFCURVE",
"169 499 OFFCURVE",
"157 499 CURVE SMOOTH",
"120 499 LINE SMOOTH",
"108 499 OFFCURVE",
"98 487 OFFCURVE",
"98 473 CURVE SMOOTH",
"98 24 LINE SMOOTH",
"98 10 OFFCURVE",
"107 -1 OFFCURVE",
"119 -2 CURVE",
"538 -2 LINE"
);
}
);
width = 657;
}
);
unicode = 0077;
},
{
glyphname = x;
lastChange = "2019-02-19 01:03:33 +0000";
layers = (
{
layerId = "A36D14D1-FF07-4574-A62D-30DF65569781";
paths = (
{
closed = 1;
nodes = (
"294 278 LINE",
"280 278 LINE SMOOTH",
"269 278 OFFCURVE",
"264 287 OFFCURVE",
"260 298 CURVE SMOOTH",
"200 480 LINE SMOOTH",
"196 491 OFFCURVE",
"191 500 OFFCURVE",
"180 500 CURVE SMOOTH",
"139 500 LINE SMOOTH",
"128 500 OFFCURVE",
"115 491 OFFCURVE",
"119 480 CURVE SMOOTH",
"179 301 LINE SMOOTH",
"189 272 OFFCURVE",
"201 250 OFFCURVE",
"230 250 CURVE SMOOTH",
"294 250 LINE"
);
},
{
closed = 1;
nodes = (
"289 250 LINE",
"359 250 LINE SMOOTH",
"388 250 OFFCURVE",
"400 272 OFFCURVE",
"410 301 CURVE SMOOTH",
"470 480 LINE SMOOTH",
"474 491 OFFCURVE",
"461 500 OFFCURVE",
"450 500 CURVE SMOOTH",
"409 500 LINE SMOOTH",
"398 500 OFFCURVE",
"393 491 OFFCURVE",
"389 480 CURVE SMOOTH",
"329 298 LINE SMOOTH",
"325 287 OFFCURVE",
"320 278 OFFCURVE",
"309 278 CURVE SMOOTH",
"289 278 LINE"
);
},
{
closed = 1;
nodes = (
"230 272 LINE SMOOTH",
"201 272 OFFCURVE",
"188 250 OFFCURVE",
"179 221 CURVE SMOOTH",
"119 22 LINE SMOOTH",
"116 11 OFFCURVE",
"128 2 OFFCURVE",
"139 2 CURVE SMOOTH",
"180 2 LINE SMOOTH",
"191 2 OFFCURVE",
"197 11 OFFCURVE",
"200 22 CURVE SMOOTH",
"260 227 LINE SMOOTH",
"263 238 OFFCURVE",
"269 247 OFFCURVE",
"280 247 CURVE SMOOTH",
"294 247 LINE",
"294 272 LINE"
);
},
{
closed = 1;
nodes = (
"309 247 LINE SMOOTH",
"320 247 OFFCURVE",
"326 238 OFFCURVE",
"329 227 CURVE SMOOTH",
"389 22 LINE SMOOTH",
"392 11 OFFCURVE",
"398 2 OFFCURVE",
"409 2 CURVE SMOOTH",
"450 2 LINE SMOOTH",
"461 2 OFFCURVE",
"473 11 OFFCURVE",
"470 22 CURVE SMOOTH",
"410 221 LINE SMOOTH",
"401 250 OFFCURVE",
"388 272 OFFCURVE",
"359 272 CURVE SMOOTH",
"289 272 LINE",
"289 247 LINE"
);
}
);
width = 600;
}
);
unicode = 0078;
},
{
glyphname = y;
lastChange = "2019-02-19 00:57:43 +0000";
layers = (
{
layerId = "A36D14D1-FF07-4574-A62D-30DF65569781";
paths = (
{
closed = 1;
nodes = (
"294 41 LINE",
"250 41 LINE SMOOTH",
"239 41 OFFCURVE",
"232 50 OFFCURVE",
"230 61 CURVE SMOOTH",
"170 480 LINE SMOOTH",
"168 491 OFFCURVE",
"161 500 OFFCURVE",
"150 500 CURVE SMOOTH",
"109 500 LINE SMOOTH",
"98 500 OFFCURVE",
"87 491 OFFCURVE",
"89 480 CURVE SMOOTH",
"149 51 LINE SMOOTH",
"153 22 OFFCURVE",
"171 0 OFFCURVE",
"200 0 CURVE SMOOTH",
"294 0 LINE"
);
},
{
closed = 1;
nodes = (
"289 0 LINE",
"379 0 LINE SMOOTH",
"408 0 OFFCURVE",
"426 22 OFFCURVE",
"430 51 CURVE SMOOTH",
"490 480 LINE SMOOTH",
"492 491 OFFCURVE",
"481 500 OFFCURVE",
"470 500 CURVE SMOOTH",
"429 500 LINE SMOOTH",
"418 500 OFFCURVE",
"411 491 OFFCURVE",
"409 480 CURVE SMOOTH",
"349 61 LINE SMOOTH",
"347 50 OFFCURVE",
"340 41 OFFCURVE",
"329 41 CURVE SMOOTH",
"289 41 LINE"
);
},
{
closed = 1;
nodes = (
"261 -200 LINE",
"351 -200 LINE SMOOTH",
"380 -200 OFFCURVE",
"398 -178 OFFCURVE",
"402 -149 CURVE SMOOTH",
"462 280 LINE SMOOTH",
"464 291 OFFCURVE",
"453 300 OFFCURVE",
"442 300 CURVE SMOOTH",
"401 300 LINE SMOOTH",
"390 300 OFFCURVE",
"383 291 OFFCURVE",
"381 280 CURVE SMOOTH",
"321 -139 LINE SMOOTH",
"319 -150 OFFCURVE",
"312 -159 OFFCURVE",
"301 -159 CURVE SMOOTH",
"261 -159 LINE"
);
}
);
width = 579;
}
);
unicode = 0079;
},
{
glyphname = z;
lastChange = "2019-02-19 01:01:24 +0000";
layers = (
{
layerId = "A36D14D1-FF07-4574-A62D-30DF65569781";
paths = (
{
closed = 1;
nodes = (
"311 78 LINE",
"311 61 LINE SMOOTH",
"311 50 OFFCURVE",
"302 41 OFFCURVE",
"291 41 CURVE SMOOTH",
"172 41 LINE SMOOTH",
"161 41 OFFCURVE",
"146 50 OFFCURVE",
"152 61 CURVE SMOOTH",
"376 472 LINE SMOOTH",
"382 483 OFFCURVE",
"373 500 OFFCURVE",
"362 500 CURVE SMOOTH",
"321 500 LINE SMOOTH",
"310 500 OFFCURVE",
"307 491 OFFCURVE",
"301 480 CURVE SMOOTH",
"71 51 LINE SMOOTH",
"56 22 OFFCURVE",
"93 0 OFFCURVE",
"122 0 CURVE SMOOTH",
"341 0 LINE SMOOTH",
"370 0 OFFCURVE",
"392 22 OFFCURVE",
"392 51 CURVE SMOOTH",
"392 76 LINE"
);
},
{
closed = 1;
nodes = (
"362 501 CURVE",
"100 501 LINE SMOOTH",
"71 501 OFFCURVE",
"49 479 OFFCURVE",
"49 450 CURVE SMOOTH",
"49 425 LINE",
"130 423 LINE",
"130 440 LINE SMOOTH",
"130 451 OFFCURVE",
"139 460 OFFCURVE",
"150 460 CURVE SMOOTH",
"338 456 LINE SMOOTH",
"360 456 OFFCURVE",
"362 479 OFFCURVE"
);
}
);
width = 479;
}
);
unicode = 007A;
},
{
glyphname = "ha-ethiopic";
lastChange = "2019-02-19 04:39:05 +0000";
layers = (
{
layerId = "A36D14D1-FF07-4574-A62D-30DF65569781";
paths = (
{
closed = 1;
nodes = (
"450 77 LINE SMOOTH",
"450 63 OFFCURVE",
"440 51 OFFCURVE",
"428 51 CURVE SMOOTH",
"209 51 LINE SMOOTH",
"197 51 OFFCURVE",
"187 63 OFFCURVE",
"187 77 CURVE SMOOTH",
"187 622 LINE SMOOTH",
"187 636 OFFCURVE",
"177 648 OFFCURVE",
"165 648 CURVE SMOOTH",
"120 648 LINE SMOOTH",
"108 648 OFFCURVE",
"98 636 OFFCURVE",
"98 622 CURVE SMOOTH",
"98 64 LINE SMOOTH",
"98 27 OFFCURVE",
"122 -2 OFFCURVE",
"154 -2 CURVE SMOOTH",
"483 -2 LINE SMOOTH",
"515 -2 OFFCURVE",
"539 27 OFFCURVE",
"539 64 CURVE SMOOTH",
"539 622 LINE SMOOTH",
"539 636 OFFCURVE",
"529 648 OFFCURVE",
"517 648 CURVE SMOOTH",
"472 648 LINE SMOOTH",
"460 648 OFFCURVE",
"450 636 OFFCURVE",
"450 622 CURVE SMOOTH"
);
}
);
width = 637;
}
);
unicode = 1200;
},
{
glyphname = "hu-ethiopic";
lastChange = "2019-02-19 04:41:02 +0000";
layers = (
{
layerId = "A36D14D1-FF07-4574-A62D-30DF65569781";
paths = (
{
closed = 1;
nodes = (
"450 77 LINE SMOOTH",
"450 63 OFFCURVE",
"440 51 OFFCURVE",
"428 51 CURVE SMOOTH",
"209 51 LINE SMOOTH",
"197 51 OFFCURVE",
"187 63 OFFCURVE",
"187 77 CURVE SMOOTH",
"187 622 LINE SMOOTH",
"187 636 OFFCURVE",
"177 648 OFFCURVE",
"165 648 CURVE SMOOTH",
"120 648 LINE SMOOTH",
"108 648 OFFCURVE",
"98 636 OFFCURVE",
"98 622 CURVE SMOOTH",
"98 64 LINE SMOOTH",
"98 27 OFFCURVE",
"122 -2 OFFCURVE",
"154 -2 CURVE SMOOTH",
"483 -2 LINE SMOOTH",
"515 -2 OFFCURVE",
"539 27 OFFCURVE",
"539 64 CURVE SMOOTH",
"539 622 LINE SMOOTH",
"539 636 OFFCURVE",
"529 648 OFFCURVE",
"517 648 CURVE SMOOTH",
"472 648 LINE SMOOTH",
"460 648 OFFCURVE",
"450 636 OFFCURVE",
"450 622 CURVE SMOOTH"
);
},
{
closed = 1;
nodes = (
"619 396 OFFCURVE",
"609 419 OFFCURVE",
"597 419 CURVE SMOOTH",
"509 419 LINE",
"509 314 LINE",
"597 314 LINE SMOOTH",
"609 314 OFFCURVE",
"619 337 OFFCURVE",
"619 365 CURVE SMOOTH",
"619 367 LINE SMOOTH"
);
}
);
width = 637;
}
);
unicode = 1201;
},
{
glyphname = "hi-ethiopic";
lastChange = "2019-02-19 04:41:48 +0000";
layers = (
{
layerId = "A36D14D1-FF07-4574-A62D-30DF65569781";
paths = (
{
closed = 1;
nodes = (
"450 77 LINE SMOOTH",
"450 63 OFFCURVE",
"440 51 OFFCURVE",
"428 51 CURVE SMOOTH",
"209 51 LINE SMOOTH",
"197 51 OFFCURVE",
"187 63 OFFCURVE",
"187 77 CURVE SMOOTH",
"187 622 LINE SMOOTH",
"187 636 OFFCURVE",
"177 648 OFFCURVE",
"165 648 CURVE SMOOTH",
"120 648 LINE SMOOTH",
"108 648 OFFCURVE",
"98 636 OFFCURVE",
"98 622 CURVE SMOOTH",
"98 64 LINE SMOOTH",
"98 27 OFFCURVE",
"122 -2 OFFCURVE",
"154 -2 CURVE SMOOTH",
"483 -2 LINE SMOOTH",
"515 -2 OFFCURVE",
"539 27 OFFCURVE",
"539 64 CURVE SMOOTH",
"539 622 LINE SMOOTH",
"539 636 OFFCURVE",
"529 648 OFFCURVE",
"517 648 CURVE SMOOTH",
"472 648 LINE SMOOTH",
"460 648 OFFCURVE",
"450 636 OFFCURVE",
"450 622 CURVE SMOOTH"
);
},
{
closed = 1;
nodes = (
"516 -139 LINE",
"517 11 LINE",
"470 11 LINE",
"470 -167 LINE SMOOTH",
"470 -181 OFFCURVE",
"480 -193 OFFCURVE",
"492 -193 CURVE SMOOTH",
"593 -193 LINE SMOOTH",
"605 -193 OFFCURVE",
"615 -181 OFFCURVE",
"615 -167 CURVE SMOOTH",
"615 -165 LINE SMOOTH",
"615 -151 OFFCURVE",
"605 -139 OFFCURVE",
"593 -139 CURVE SMOOTH"
);
}
);
width = 637;
}
);
unicode = 1202;
},
{
glyphname = "haa-ethiopic";
lastChange = "2019-02-19 04:41:48 +0000";
layers = (
{
layerId = "A36D14D1-FF07-4574-A62D-30DF65569781";
paths = (
{
closed = 1;
nodes = (
"450 77 LINE SMOOTH",
"450 63 OFFCURVE",
"440 51 OFFCURVE",
"428 51 CURVE SMOOTH",
"209 51 LINE SMOOTH",
"197 51 OFFCURVE",
"187 63 OFFCURVE",
"187 77 CURVE SMOOTH",
"187 622 LINE SMOOTH",
"187 636 OFFCURVE",
"177 648 OFFCURVE",
"165 648 CURVE SMOOTH",
"120 648 LINE SMOOTH",
"108 648 OFFCURVE",
"98 636 OFFCURVE",
"98 622 CURVE SMOOTH",
"98 64 LINE SMOOTH",
"98 27 OFFCURVE",
"122 -2 OFFCURVE",
"154 -2 CURVE SMOOTH",
"483 -2 LINE SMOOTH",
"515 -2 OFFCURVE",
"539 27 OFFCURVE",
"539 64 CURVE SMOOTH",
"539 622 LINE SMOOTH",
"539 636 OFFCURVE",
"529 648 OFFCURVE",
"517 648 CURVE SMOOTH",
"472 648 LINE SMOOTH",
"460 648 OFFCURVE",
"450 636 OFFCURVE",
"450 622 CURVE SMOOTH"
);
},
{
closed = 1;
nodes = (
"461 38 LINE",
"461 -166 LINE SMOOTH",
"461 -180 OFFCURVE",
"471 -192 OFFCURVE",
"483 -192 CURVE SMOOTH",
"484 -192 LINE SMOOTH",
"496 -192 OFFCURVE",
"506 -180 OFFCURVE",
"506 -166 CURVE SMOOTH",
"506 38 LINE"
);
}
);
width = 637;
}
);
unicode = 1203;
},
{
glyphname = "hee-ethiopic";
lastChange = "2019-02-19 04:41:48 +0000";
layers = (
{
layerId = "A36D14D1-FF07-4574-A62D-30DF65569781";
paths = (
{
closed = 1;
nodes = (
"450 77 LINE SMOOTH",
"450 63 OFFCURVE",
"440 51 OFFCURVE",
"428 51 CURVE SMOOTH",
"209 51 LINE SMOOTH",
"197 51 OFFCURVE",
"187 63 OFFCURVE",
"187 77 CURVE SMOOTH",
"187 622 LINE SMOOTH",
"187 636 OFFCURVE",
"177 648 OFFCURVE",
"165 648 CURVE SMOOTH",
"120 648 LINE SMOOTH",
"108 648 OFFCURVE",
"98 636 OFFCURVE",
"98 622 CURVE SMOOTH",
"98 64 LINE SMOOTH",
"98 27 OFFCURVE",
"122 -2 OFFCURVE",
"154 -2 CURVE SMOOTH",
"483 -2 LINE SMOOTH",
"515 -2 OFFCURVE",
"539 27 OFFCURVE",
"539 64 CURVE SMOOTH",
"539 622 LINE SMOOTH",
"539 636 OFFCURVE",
"529 648 OFFCURVE",
"517 648 CURVE SMOOTH",
"472 648 LINE SMOOTH",
"460 648 OFFCURVE",
"450 636 OFFCURVE",
"450 622 CURVE SMOOTH"
);
},
{
closed = 1;
nodes = (
"556 -199 OFFCURVE",
"593 -151 OFFCURVE",
"593 -91 CURVE SMOOTH",
"593 -31 OFFCURVE",
"556 17 OFFCURVE",
"506 17 CURVE SMOOTH",
"457 17 OFFCURVE",
"419 -31 OFFCURVE",
"419 -91 CURVE SMOOTH",
"419 -151 OFFCURVE",
"457 -199 OFFCURVE",
"506 -199 CURVE SMOOTH"
);
},
{
closed = 1;
nodes = (
"475 -157 OFFCURVE",
"452 -129 OFFCURVE",
"452 -91 CURVE SMOOTH",
"452 -53 OFFCURVE",
"475 -25 OFFCURVE",
"506 -25 CURVE",
"537 -25 OFFCURVE",
"560 -53 OFFCURVE",
"560 -91 CURVE SMOOTH",
"560 -129 OFFCURVE",
"537 -157 OFFCURVE",
"506 -157 CURVE SMOOTH"
);
}
);
width = 637;
}
);
unicode = 1204;
},
{
glyphname = "he-ethiopic";
lastChange = "2019-02-19 04:41:48 +0000";
layers = (
{
layerId = "A36D14D1-FF07-4574-A62D-30DF65569781";
paths = (
{
closed = 1;
nodes = (
"103 748 LINE SMOOTH",
"103 762 OFFCURVE",
"94 774 OFFCURVE",
"81 774 CURVE SMOOTH",
"80 774 LINE SMOOTH",
"68 774 OFFCURVE",
"58 762 OFFCURVE",
"58 748 CURVE SMOOTH",
"58 544 LINE",
"103 544 LINE"
);
},
{
closed = 1;
nodes = (
"450 77 LINE SMOOTH",
"450 63 OFFCURVE",
"440 51 OFFCURVE",
"428 51 CURVE SMOOTH",
"209 51 LINE SMOOTH",
"197 51 OFFCURVE",
"187 63 OFFCURVE",
"187 77 CURVE SMOOTH",
"187 622 LINE SMOOTH",
"187 636 OFFCURVE",
"177 648 OFFCURVE",
"165 648 CURVE SMOOTH",
"120 648 LINE SMOOTH",
"108 648 OFFCURVE",
"98 636 OFFCURVE",
"98 622 CURVE SMOOTH",
"98 64 LINE SMOOTH",
"98 27 OFFCURVE",
"122 -2 OFFCURVE",
"154 -2 CURVE SMOOTH",
"483 -2 LINE SMOOTH",
"515 -2 OFFCURVE",
"539 27 OFFCURVE",
"539 64 CURVE SMOOTH",
"539 622 LINE SMOOTH",
"539 636 OFFCURVE",
"529 648 OFFCURVE",
"517 648 CURVE SMOOTH",
"472 648 LINE SMOOTH",
"460 648 OFFCURVE",
"450 636 OFFCURVE",
"450 622 CURVE SMOOTH"
);
}
);
width = 637;
}
);
unicode = 1205;
},
{
glyphname = "ho-ethiopic";
lastChange = "2019-02-25 04:46:24 +0000";
layers = (
{
layerId = "A36D14D1-FF07-4574-A62D-30DF65569781";
paths = (
{
closed = 1;
nodes = (
"654 481 OFFCURVE",
"692 529 OFFCURVE",
"692 589 CURVE SMOOTH",
"692 649 OFFCURVE",
"654 697 OFFCURVE",
"605 697 CURVE SMOOTH",
"555 697 OFFCURVE",
"518 649 OFFCURVE",
"518 589 CURVE SMOOTH",
"518 529 OFFCURVE",
"555 481 OFFCURVE",
"605 481 CURVE SMOOTH"
);
},
{
closed = 1;
nodes = (
"574 523 OFFCURVE",
"551 551 OFFCURVE",
"551 589 CURVE SMOOTH",
"551 627 OFFCURVE",
"574 655 OFFCURVE",
"605 655 CURVE SMOOTH",
"635 655 OFFCURVE",
"659 627 OFFCURVE",
"659 589 CURVE SMOOTH",
"659 551 OFFCURVE",
"635 523 OFFCURVE",
"605 523 CURVE SMOOTH"
);
},
{
closed = 1;
nodes = (
"495 98.1 LINE SMOOTH",
"495 79.9 OFFCURVE",
"484 64.3 OFFCURVE",
"470.8 64.3 CURVE SMOOTH",
"229.9 64.3 LINE SMOOTH",
"216.7 64.3 OFFCURVE",
"205.7 79.9 OFFCURVE",
"205.7 98.1 CURVE SMOOTH",
"206 667 LINE SMOOTH",
"206 685 OFFCURVE",
"195 700 OFFCURVE",
"182 700 CURVE SMOOTH",
"132 700 LINE SMOOTH",
"119 700 OFFCURVE",
"108 685 OFFCURVE",
"108 667 CURVE SMOOTH",
"107.8 81.2 LINE SMOOTH",
"108 33 OFFCURVE",
"134.2 -4.6 OFFCURVE",
"169.4 -4.6 CURVE SMOOTH",
"531.3 -4.6 LINE SMOOTH",
"566.5 -4.6 OFFCURVE",
"592.9 33.1 OFFCURVE",
"592.9 81.2 CURVE SMOOTH",
"593 657 LINE SMOOTH",
"593 675 OFFCURVE",
"582 690 OFFCURVE",
"569 690 CURVE SMOOTH",
"519 690 LINE SMOOTH",
"506 690 OFFCURVE",
"495 675 OFFCURVE",
"495 657 CURVE SMOOTH"
);
}
);
width = 747;
}
);
unicode = 1206;
},
{
glyphname = "hoa-ethiopic";
lastChange = "2019-02-19 04:41:48 +0000";
layers = (
{
layerId = "A36D14D1-FF07-4574-A62D-30DF65569781";
paths = (
{
closed = 1;
nodes = (
"20 368 LINE SMOOTH",
"20 338 OFFCURVE",
"30 314 OFFCURVE",
"42 314 CURVE SMOOTH",
"130 314 LINE",
"130 425 LINE",
"42 425 LINE SMOOTH",
"30 425 OFFCURVE",
"20 401 OFFCURVE",
"20 371 CURVE SMOOTH"
);
},
{
closed = 1;
nodes = (
"607 564 OFFCURVE",
"645 612 OFFCURVE",
"645 672 CURVE SMOOTH",
"645 731 OFFCURVE",
"607 780 OFFCURVE",
"558 780 CURVE SMOOTH",
"508 780 OFFCURVE",
"471 731 OFFCURVE",
"471 672 CURVE SMOOTH",
"471 612 OFFCURVE",
"508 564 OFFCURVE",
"558 564 CURVE SMOOTH"
);
},
{
closed = 1;
nodes = (
"527 605 OFFCURVE",
"504 634 OFFCURVE",
"504 672 CURVE SMOOTH",
"504 709 OFFCURVE",
"527 738 OFFCURVE",
"558 738 CURVE SMOOTH",
"589 738 OFFCURVE",
"612 709 OFFCURVE",
"612 672 CURVE SMOOTH",
"612 634 OFFCURVE",
"589 605 OFFCURVE",
"558 605 CURVE SMOOTH"
);
},
{
closed = 1;
nodes = (
"450 77 LINE SMOOTH",
"450 63 OFFCURVE",
"440 51 OFFCURVE",
"428 51 CURVE SMOOTH",
"209 51 LINE SMOOTH",
"197 51 OFFCURVE",
"187 63 OFFCURVE",
"187 77 CURVE SMOOTH",
"187 622 LINE SMOOTH",
"187 636 OFFCURVE",
"177 648 OFFCURVE",
"165 648 CURVE SMOOTH",
"120 648 LINE SMOOTH",
"108 648 OFFCURVE",
"98 636 OFFCURVE",
"98 622 CURVE SMOOTH",
"98 64 LINE SMOOTH",
"98 27 OFFCURVE",
"122 -2 OFFCURVE",
"154 -2 CURVE SMOOTH",
"483 -2 LINE SMOOTH",
"515 -2 OFFCURVE",
"539 27 OFFCURVE",
"539 64 CURVE SMOOTH",
"539 622 LINE SMOOTH",
"539 636 OFFCURVE",
"529 648 OFFCURVE",
"517 648 CURVE SMOOTH",
"472 648 LINE SMOOTH",
"460 648 OFFCURVE",
"450 636 OFFCURVE",
"450 622 CURVE SMOOTH"
);
}
);
width = 637;
}
);
unicode = 1207;
},
{
glyphname = "la-ethiopic";
lastChange = "2019-02-19 04:41:48 +0000";
layers = (
{
layerId = "A36D14D1-FF07-4574-A62D-30DF65569781";
paths = (
{
closed = 1;
nodes = (
"450 10 OFFCURVE",
"460 -2 OFFCURVE",
"472 -2 CURVE SMOOTH",
"517 -2 LINE SMOOTH",
"529 -2 OFFCURVE",
"539 10 OFFCURVE",
"539 24 CURVE SMOOTH",
"539 582 LINE SMOOTH",
"539 619 OFFCURVE",
"515 648 OFFCURVE",
"483 648 CURVE SMOOTH",
"154 648 LINE SMOOTH",
"122 648 OFFCURVE",
"98 619 OFFCURVE",
"98 582 CURVE SMOOTH",
"98 24 LINE SMOOTH",
"98 10 OFFCURVE",
"108 -2 OFFCURVE",
"120 -2 CURVE SMOOTH",
"165 -2 LINE SMOOTH",
"177 -2 OFFCURVE",
"187 10 OFFCURVE",
"187 24 CURVE SMOOTH",
"187 569 LINE SMOOTH",
"187 583 OFFCURVE",
"197 595 OFFCURVE",
"209 595 CURVE SMOOTH",
"428 595 LINE SMOOTH",
"440 595 OFFCURVE",
"450 583 OFFCURVE",
"450 569 CURVE SMOOTH",
"450 24 LINE SMOOTH"
);
},
{
closed = 1;
nodes = (
"98 416 LINE",
"180 416 LINE",
"180 772 LINE SMOOTH",
"180 786 OFFCURVE",
"171 798 OFFCURVE",
"158 798 CURVE SMOOTH",
"120 798 LINE SMOOTH",
"108 798 OFFCURVE",
"98 786 OFFCURVE",
"98 772 CURVE SMOOTH"
);
}
);
width = 637;
}
);
unicode = 1208;
},
{
glyphname = "lu-ethiopic";
lastChange = "2019-02-19 04:41:48 +0000";
layers = (
{
layerId = "A36D14D1-FF07-4574-A62D-30DF65569781";
paths = (
{
closed = 1;
nodes = (
"450 10 OFFCURVE",
"460 -2 OFFCURVE",
"472 -2 CURVE SMOOTH",
"517 -2 LINE SMOOTH",
"529 -2 OFFCURVE",
"539 10 OFFCURVE",
"539 24 CURVE SMOOTH",
"539 582 LINE SMOOTH",
"539 619 OFFCURVE",
"515 648 OFFCURVE",
"483 648 CURVE SMOOTH",
"154 648 LINE SMOOTH",
"122 648 OFFCURVE",
"98 619 OFFCURVE",
"98 582 CURVE SMOOTH",
"98 24 LINE SMOOTH",
"98 10 OFFCURVE",
"108 -2 OFFCURVE",
"120 -2 CURVE SMOOTH",
"165 -2 LINE SMOOTH",
"177 -2 OFFCURVE",
"187 10 OFFCURVE",
"187 24 CURVE SMOOTH",
"187 569 LINE SMOOTH",
"187 583 OFFCURVE",
"197 595 OFFCURVE",
"209 595 CURVE SMOOTH",
"428 595 LINE SMOOTH",
"440 595 OFFCURVE",
"450 583 OFFCURVE",
"450 569 CURVE SMOOTH",
"450 24 LINE SMOOTH"
);
},
{
closed = 1;
nodes = (
"98 413 LINE",
"180 413 LINE",
"180 769 LINE SMOOTH",
"180 783 OFFCURVE",
"171 795 OFFCURVE",
"158 795 CURVE SMOOTH",
"120 795 LINE SMOOTH",
"108 795 OFFCURVE",
"98 783 OFFCURVE",
"98 769 CURVE SMOOTH"
);
},
{
closed = 1;
nodes = (
"619 396 OFFCURVE",
"609 419 OFFCURVE",
"597 419 CURVE SMOOTH",
"509 419 LINE",
"509 314 LINE",
"597 314 LINE SMOOTH",
"609 314 OFFCURVE",
"619 337 OFFCURVE",
"619 365 CURVE SMOOTH",
"619 367 LINE SMOOTH"
);
}
);
width = 637;
}
);
unicode = 1209;
},
{
glyphname = "li-ethiopic";
lastChange = "2019-02-19 04:41:48 +0000";
layers = (
{
layerId = "A36D14D1-FF07-4574-A62D-30DF65569781";
paths = (
{
closed = 1;
nodes = (
"450 10 OFFCURVE",
"460 -2 OFFCURVE",
"472 -2 CURVE SMOOTH",
"517 -2 LINE SMOOTH",
"529 -2 OFFCURVE",
"539 10 OFFCURVE",
"539 24 CURVE SMOOTH",
"539 582 LINE SMOOTH",
"539 619 OFFCURVE",
"515 648 OFFCURVE",
"483 648 CURVE SMOOTH",
"154 648 LINE SMOOTH",
"122 648 OFFCURVE",
"98 619 OFFCURVE",
"98 582 CURVE SMOOTH",
"98 24 LINE SMOOTH",
"98 10 OFFCURVE",
"108 -2 OFFCURVE",
"120 -2 CURVE SMOOTH",
"165 -2 LINE SMOOTH",
"177 -2 OFFCURVE",
"187 10 OFFCURVE",
"187 24 CURVE SMOOTH",
"187 569 LINE SMOOTH",
"187 583 OFFCURVE",
"197 595 OFFCURVE",
"209 595 CURVE SMOOTH",
"428 595 LINE SMOOTH",
"440 595 OFFCURVE",
"450 583 OFFCURVE",
"450 569 CURVE SMOOTH",
"450 24 LINE SMOOTH"
);
},
{
closed = 1;
nodes = (
"98 416 LINE",
"180 416 LINE",
"180 772 LINE SMOOTH",
"180 786 OFFCURVE",
"171 798 OFFCURVE",
"158 798 CURVE SMOOTH",
"120 798 LINE SMOOTH",
"108 798 OFFCURVE",
"98 786 OFFCURVE",
"98 772 CURVE SMOOTH"
);
},
{
closed = 1;
nodes = (
"619 80 OFFCURVE",
"609 103 OFFCURVE",
"597 103 CURVE SMOOTH",
"509 103 LINE",
"509 -2 LINE",
"597 -2 LINE SMOOTH",
"609 -2 OFFCURVE",
"619 21 OFFCURVE",
"619 49 CURVE SMOOTH",
"619 51 LINE SMOOTH"
);
}
);
width = 637;
}
);
unicode = 120A;
},
{
glyphname = "laa-ethiopic";
lastChange = "2019-02-19 04:41:48 +0000";
layers = (
{
layerId = "A36D14D1-FF07-4574-A62D-30DF65569781";
paths = (
{
closed = 1;
nodes = (
"490 42 LINE",
"490 -162 LINE SMOOTH",
"490 -176 OFFCURVE",
"499 -188 OFFCURVE",
"512 -188 CURVE SMOOTH",
"513 -188 LINE SMOOTH",
"525 -188 OFFCURVE",
"535 -176 OFFCURVE",
"535 -162 CURVE SMOOTH",
"535 42 LINE"
);
},
{
closed = 1;
nodes = (
"450 10 OFFCURVE",
"460 -2 OFFCURVE",
"472 -2 CURVE SMOOTH",
"517 -2 LINE SMOOTH",
"529 -2 OFFCURVE",
"539 10 OFFCURVE",
"539 24 CURVE SMOOTH",
"539 582 LINE SMOOTH",
"539 619 OFFCURVE",
"515 648 OFFCURVE",
"483 648 CURVE SMOOTH",
"154 648 LINE SMOOTH",
"122 648 OFFCURVE",
"98 619 OFFCURVE",
"98 582 CURVE SMOOTH",
"98 24 LINE SMOOTH",
"98 10 OFFCURVE",
"108 -2 OFFCURVE",
"120 -2 CURVE SMOOTH",
"165 -2 LINE SMOOTH",
"177 -2 OFFCURVE",
"187 10 OFFCURVE",
"187 24 CURVE SMOOTH",
"187 569 LINE SMOOTH",
"187 583 OFFCURVE",
"197 595 OFFCURVE",
"209 595 CURVE SMOOTH",
"428 595 LINE SMOOTH",
"440 595 OFFCURVE",
"450 583 OFFCURVE",
"450 569 CURVE SMOOTH",
"450 24 LINE SMOOTH"
);
},
{
closed = 1;
nodes = (
"98 416 LINE",
"180 416 LINE",
"180 772 LINE SMOOTH",
"180 786 OFFCURVE",
"171 798 OFFCURVE",
"158 798 CURVE SMOOTH",
"120 798 LINE SMOOTH",
"108 798 OFFCURVE",
"98 786 OFFCURVE",
"98 772 CURVE SMOOTH"
);
}
);
width = 637;
}
);
unicode = 120B;
},
{
glyphname = "lee-ethiopic";
lastChange = "2019-02-19 04:41:48 +0000";
layers = (
{
layerId = "A36D14D1-FF07-4574-A62D-30DF65569781";
paths = (
{
closed = 1;
nodes = (
"578 -197 OFFCURVE",
"615 -149 OFFCURVE",
"615 -89 CURVE SMOOTH",
"615 -29 OFFCURVE",
"578 19 OFFCURVE",
"528 19 CURVE SMOOTH",
"479 19 OFFCURVE",
"441 -29 OFFCURVE",
"441 -89 CURVE SMOOTH",
"441 -149 OFFCURVE",
"479 -197 OFFCURVE",
"528 -197 CURVE SMOOTH"
);
},
{
closed = 1;
nodes = (
"497 -155 OFFCURVE",
"474 -127 OFFCURVE",
"474 -89 CURVE SMOOTH",
"474 -51 OFFCURVE",
"497 -23 OFFCURVE",
"528 -23 CURVE SMOOTH",
"559 -23 OFFCURVE",
"582 -51 OFFCURVE",
"582 -89 CURVE SMOOTH",
"582 -127 OFFCURVE",
"559 -155 OFFCURVE",
"528 -155 CURVE SMOOTH"
);
},
{
closed = 1;
nodes = (
"450 10 OFFCURVE",
"460 -2 OFFCURVE",
"472 -2 CURVE SMOOTH",
"517 -2 LINE SMOOTH",
"529 -2 OFFCURVE",
"539 10 OFFCURVE",
"539 24 CURVE SMOOTH",
"539 582 LINE SMOOTH",
"539 619 OFFCURVE",
"515 648 OFFCURVE",
"483 648 CURVE SMOOTH",
"154 648 LINE SMOOTH",
"122 648 OFFCURVE",
"98 619 OFFCURVE",
"98 582 CURVE SMOOTH",
"98 24 LINE SMOOTH",
"98 10 OFFCURVE",
"108 -2 OFFCURVE",
"120 -2 CURVE SMOOTH",
"165 -2 LINE SMOOTH",
"177 -2 OFFCURVE",
"187 10 OFFCURVE",
"187 24 CURVE SMOOTH",
"187 569 LINE SMOOTH",
"187 583 OFFCURVE",
"197 595 OFFCURVE",
"209 595 CURVE SMOOTH",
"428 595 LINE SMOOTH",
"440 595 OFFCURVE",
"450 583 OFFCURVE",
"450 569 CURVE SMOOTH",
"450 24 LINE SMOOTH"
);
},
{
closed = 1;
nodes = (
"98 416 LINE",
"180 416 LINE",
"180 772 LINE SMOOTH",
"180 786 OFFCURVE",
"171 798 OFFCURVE",
"158 798 CURVE SMOOTH",
"120 798 LINE SMOOTH",
"108 798 OFFCURVE",
"98 786 OFFCURVE",
"98 772 CURVE SMOOTH"
);
}
);
width = 637;
}
);
unicode = 120C;
},
{
glyphname = "le-ethiopic";
lastChange = "2019-02-19 04:41:48 +0000";
layers = (
{
layerId = "A36D14D1-FF07-4574-A62D-30DF65569781";
paths = (
{
closed = 1;
nodes = (
"292 -2 OFFCURVE",
"329 46 OFFCURVE",
"329 106 CURVE SMOOTH",
"329 166 OFFCURVE",
"292 214 OFFCURVE",
"242 214 CURVE SMOOTH",
"193 214 OFFCURVE",
"155 166 OFFCURVE",
"155 106 CURVE SMOOTH",
"155 46 OFFCURVE",
"193 -2 OFFCURVE",
"242 -2 CURVE SMOOTH"
);
},
{
closed = 1;
nodes = (
"211 40 OFFCURVE",
"188 68 OFFCURVE",
"188 106 CURVE SMOOTH",
"188 144 OFFCURVE",
"211 172 OFFCURVE",
"242 172 CURVE SMOOTH",
"273 172 OFFCURVE",
"296 144 OFFCURVE",
"296 106 CURVE SMOOTH",
"296 68 OFFCURVE",
"273 40 OFFCURVE",
"242 40 CURVE SMOOTH"
);
},
{
closed = 1;
nodes = (
"450 10 OFFCURVE",
"460 -2 OFFCURVE",
"472 -2 CURVE SMOOTH",
"517 -2 LINE SMOOTH",
"529 -2 OFFCURVE",
"539 10 OFFCURVE",
"539 24 CURVE SMOOTH",
"539 582 LINE SMOOTH",
"539 619 OFFCURVE",
"515 648 OFFCURVE",
"483 648 CURVE SMOOTH",
"154 648 LINE SMOOTH",
"122 648 OFFCURVE",
"98 619 OFFCURVE",
"98 582 CURVE SMOOTH",
"98 24 LINE SMOOTH",
"98 10 OFFCURVE",
"108 -2 OFFCURVE",
"120 -2 CURVE SMOOTH",
"165 -2 LINE SMOOTH",
"177 -2 OFFCURVE",
"187 10 OFFCURVE",
"187 24 CURVE SMOOTH",
"187 569 LINE SMOOTH",
"187 583 OFFCURVE",
"197 595 OFFCURVE",
"209 595 CURVE SMOOTH",
"428 595 LINE SMOOTH",
"440 595 OFFCURVE",
"450 583 OFFCURVE",
"450 569 CURVE SMOOTH",
"450 24 LINE SMOOTH"
);
},
{
closed = 1;
nodes = (
"98 406 LINE",
"180 406 LINE",
"180 762 LINE SMOOTH",
"180 776 OFFCURVE",
"171 788 OFFCURVE",
"158 788 CURVE SMOOTH",
"120 788 LINE SMOOTH",
"108 788 OFFCURVE",
"98 776 OFFCURVE",
"98 762 CURVE SMOOTH"
);
}
);
width = 637;
}
);
unicode = 120D;
},
{
glyphname = "lo-ethiopic";
lastChange = "2019-02-19 04:41:48 +0000";
layers = (
{
layerId = "A36D14D1-FF07-4574-A62D-30DF65569781";
paths = (
{
closed = 1;
nodes = (
"615 245 OFFCURVE",
"652 293 OFFCURVE",
"652 353 CURVE SMOOTH",
"652 413 OFFCURVE",
"615 461 OFFCURVE",
"565 461 CURVE SMOOTH",
"516 461 OFFCURVE",
"479 413 OFFCURVE",
"479 353 CURVE SMOOTH",
"479 293 OFFCURVE",
"516 245 OFFCURVE",
"565 245 CURVE SMOOTH"
);
},
{
closed = 1;
nodes = (
"535 287 OFFCURVE",
"512 315 OFFCURVE",
"512 353 CURVE SMOOTH",
"512 391 OFFCURVE",
"535 419 OFFCURVE",
"565 419 CURVE SMOOTH",
"596 419 OFFCURVE",
"619 391 OFFCURVE",
"619 353 CURVE SMOOTH",
"619 315 OFFCURVE",
"596 287 OFFCURVE",
"565 287 CURVE SMOOTH"
);
},
{
closed = 1;
nodes = (
"450 10 OFFCURVE",
"460 -2 OFFCURVE",
"472 -2 CURVE SMOOTH",
"517 -2 LINE SMOOTH",
"529 -2 OFFCURVE",
"539 10 OFFCURVE",
"539 24 CURVE SMOOTH",
"539 582 LINE SMOOTH",
"539 619 OFFCURVE",
"515 648 OFFCURVE",
"483 648 CURVE SMOOTH",
"154 648 LINE SMOOTH",
"122 648 OFFCURVE",
"98 619 OFFCURVE",
"98 582 CURVE SMOOTH",
"98 24 LINE SMOOTH",
"98 10 OFFCURVE",
"108 -2 OFFCURVE",
"120 -2 CURVE SMOOTH",
"165 -2 LINE SMOOTH",
"177 -2 OFFCURVE",
"187 10 OFFCURVE",
"187 24 CURVE SMOOTH",
"187 569 LINE SMOOTH",
"187 583 OFFCURVE",
"197 595 OFFCURVE",
"209 595 CURVE SMOOTH",
"428 595 LINE SMOOTH",
"440 595 OFFCURVE",
"450 583 OFFCURVE",
"450 569 CURVE SMOOTH",
"450 24 LINE SMOOTH"
);
},
{
closed = 1;
nodes = (
"98 416 LINE",
"180 416 LINE",
"180 772 LINE SMOOTH",
"180 786 OFFCURVE",
"171 798 OFFCURVE",
"158 798 CURVE SMOOTH",
"120 798 LINE SMOOTH",
"108 798 OFFCURVE",
"98 786 OFFCURVE",
"98 772 CURVE SMOOTH"
);
}
);
width = 668;
}
);
unicode = 120E;
},
{
glyphname = "lwa-ethiopic";
lastChange = "2019-02-19 04:41:48 +0000";
layers = (
{
layerId = "A36D14D1-FF07-4574-A62D-30DF65569781";
paths = (
{
closed = 1;
nodes = (
"450 10 OFFCURVE",
"460 -2 OFFCURVE",
"472 -2 CURVE SMOOTH",
"517 -2 LINE SMOOTH",
"529 -2 OFFCURVE",
"539 10 OFFCURVE",
"539 24 CURVE SMOOTH",
"539 582 LINE SMOOTH",
"539 619 OFFCURVE",
"515 648 OFFCURVE",
"483 648 CURVE SMOOTH",
"154 648 LINE SMOOTH",
"122 648 OFFCURVE",
"98 619 OFFCURVE",
"98 582 CURVE SMOOTH",
"98 24 LINE SMOOTH",
"98 10 OFFCURVE",
"108 -2 OFFCURVE",
"120 -2 CURVE SMOOTH",
"165 -2 LINE SMOOTH",
"177 -2 OFFCURVE",
"187 10 OFFCURVE",
"187 24 CURVE SMOOTH",
"187 569 LINE SMOOTH",
"187 583 OFFCURVE",
"197 595 OFFCURVE",
"209 595 CURVE SMOOTH",
"428 595 LINE SMOOTH",
"440 595 OFFCURVE",
"450 583 OFFCURVE",
"450 569 CURVE SMOOTH",
"450 24 LINE SMOOTH"
);
},
{
closed = 1;
nodes = (
"98 416 LINE",
"180 416 LINE",
"180 772 LINE SMOOTH",
"180 786 OFFCURVE",
"171 798 OFFCURVE",
"158 798 CURVE SMOOTH",
"120 798 LINE SMOOTH",
"108 798 OFFCURVE",
"98 786 OFFCURVE",
"98 772 CURVE SMOOTH"
);
},
{
closed = 1;
nodes = (
"501 -160 LINE SMOOTH",
"501 -174 OFFCURVE",
"510 -186 OFFCURVE",
"523 -186 CURVE SMOOTH",
"524 -186 LINE SMOOTH",
"536 -186 OFFCURVE",
"546 -174 OFFCURVE",
"546 -160 CURVE SMOOTH",
"546 -17 LINE",
"501 -17 LINE"
);
},
{
closed = 1;
nodes = (
"546 -69 LINE",
"546 -15 LINE",
"389 -15 LINE",
"391 -69 LINE"
);
},
{
closed = 1;
nodes = (
"457 -30 LINE SMOOTH",
"457 -44 OFFCURVE",
"466 -56 OFFCURVE",
"479 -56 CURVE SMOOTH",
"480 -56 LINE SMOOTH",
"492 -56 OFFCURVE",
"502 -44 OFFCURVE",
"502 -30 CURVE SMOOTH",
"502 48 LINE",
"457 48 LINE"
);
}
);
width = 637;
}
);
unicode = 120F;
},
{
glyphname = "hha-ethiopic";
lastChange = "2019-02-19 04:41:48 +0000";
layers = (
{
layerId = "A36D14D1-FF07-4574-A62D-30DF65569781";
paths = (
{
closed = 1;
nodes = (
"352 770 LINE SMOOTH",
"352 784 OFFCURVE",
"342 796 OFFCURVE",
"330 796 CURVE SMOOTH",
"329 796 LINE SMOOTH",
"317 796 OFFCURVE",
"307 784 OFFCURVE",
"307 770 CURVE SMOOTH",
"307 566 LINE",
"352 566 LINE"
);
},
{
closed = 1;
nodes = (
"119 648 LINE",
"107 647 OFFCURVE",
"98 636 OFFCURVE",
"98 622 CURVE SMOOTH",
"98 24 LINE SMOOTH",
"98 10 OFFCURVE",
"108 -2 OFFCURVE",
"120 -2 CURVE SMOOTH",
"157 -2 LINE SMOOTH",
"169 -2 OFFCURVE",
"179 10 OFFCURVE",
"179 24 CURVE SMOOTH",
"179 590 LINE SMOOTH",
"179 604 OFFCURVE",
"189 616 OFFCURVE",
"201 616 CURVE SMOOTH",
"278 616 LINE SMOOTH",
"290 616 OFFCURVE",
"300 604 OFFCURVE",
"300 590 CURVE SMOOTH",
"300 24 LINE SMOOTH",
"300 10 OFFCURVE",
"310 -2 OFFCURVE",
"322 -2 CURVE SMOOTH",
"336 -2 LINE SMOOTH",
"348 -2 OFFCURVE",
"358 10 OFFCURVE",
"358 24 CURVE SMOOTH",
"358 590 LINE SMOOTH",
"358 604 OFFCURVE",
"367 616 OFFCURVE",
"380 616 CURVE SMOOTH",
"460 616 LINE SMOOTH",
"472 616 OFFCURVE",
"482 604 OFFCURVE",
"482 590 CURVE SMOOTH",
"482 24 LINE SMOOTH",
"482 10 OFFCURVE",
"492 -2 OFFCURVE",
"504 -2 CURVE SMOOTH",
"537 -2 LINE SMOOTH",
"549 -2 OFFCURVE",
"559 10 OFFCURVE",
"559 24 CURVE SMOOTH",
"559 622 LINE SMOOTH",
"559 636 OFFCURVE",
"550 647 OFFCURVE",
"538 648 CURVE"
);
}
);
width = 657;
}
);
unicode = 1210;
},
{
glyphname = "hhu-ethiopic";
lastChange = "2019-02-19 04:41:48 +0000";
layers = (
{
layerId = "A36D14D1-FF07-4574-A62D-30DF65569781";
paths = (
{
closed = 1;
nodes = (
"342 770 LINE SMOOTH",
"342 784 OFFCURVE",
"332 796 OFFCURVE",
"320 796 CURVE SMOOTH",
"319 796 LINE SMOOTH",
"307 796 OFFCURVE",
"297 784 OFFCURVE",
"297 770 CURVE SMOOTH",
"297 566 LINE",
"342 566 LINE"
);
},
{
closed = 1;
nodes = (
"119 648 LINE",
"107 647 OFFCURVE",
"98 636 OFFCURVE",
"98 622 CURVE SMOOTH",
"98 24 LINE SMOOTH",
"98 10 OFFCURVE",
"108 -2 OFFCURVE",
"120 -2 CURVE SMOOTH",
"157 -2 LINE SMOOTH",
"169 -2 OFFCURVE",
"179 10 OFFCURVE",
"179 24 CURVE SMOOTH",
"179 590 LINE SMOOTH",
"179 604 OFFCURVE",
"189 616 OFFCURVE",
"201 616 CURVE SMOOTH",
"278 616 LINE SMOOTH",
"290 616 OFFCURVE",
"300 604 OFFCURVE",
"300 590 CURVE SMOOTH",
"300 24 LINE SMOOTH",
"300 10 OFFCURVE",
"310 -2 OFFCURVE",
"322 -2 CURVE SMOOTH",
"336 -2 LINE SMOOTH",
"348 -2 OFFCURVE",
"358 10 OFFCURVE",
"358 24 CURVE SMOOTH",
"358 590 LINE SMOOTH",
"358 604 OFFCURVE",
"367 616 OFFCURVE",
"380 616 CURVE SMOOTH",
"460 616 LINE SMOOTH",
"472 616 OFFCURVE",
"482 604 OFFCURVE",
"482 590 CURVE SMOOTH",
"482 24 LINE SMOOTH",
"482 10 OFFCURVE",
"492 -2 OFFCURVE",
"504 -2 CURVE SMOOTH",
"537 -2 LINE SMOOTH",
"549 -2 OFFCURVE",
"559 10 OFFCURVE",
"559 24 CURVE SMOOTH",
"559 622 LINE SMOOTH",
"559 636 OFFCURVE",
"550 647 OFFCURVE",
"538 648 CURVE"
);
},
{
closed = 1;
nodes = (
"619 396 OFFCURVE",
"609 419 OFFCURVE",
"597 419 CURVE SMOOTH",
"509 419 LINE",
"509 314 LINE",
"597 314 LINE SMOOTH",
"609 314 OFFCURVE",
"619 337 OFFCURVE",
"619 365 CURVE SMOOTH",
"619 367 LINE SMOOTH"
);
}
);
width = 657;
}
);
unicode = 1211;
},
{
glyphname = "hhi-ethiopic";
lastChange = "2019-02-19 04:41:48 +0000";
layers = (
{
layerId = "A36D14D1-FF07-4574-A62D-30DF65569781";
paths = (
{
closed = 1;
nodes = (
"342 760 LINE SMOOTH",
"342 774 OFFCURVE",
"332 786 OFFCURVE",
"320 786 CURVE SMOOTH",
"319 786 LINE SMOOTH",
"307 786 OFFCURVE",
"297 774 OFFCURVE",
"297 760 CURVE SMOOTH",
"297 556 LINE",
"342 556 LINE"
);
},
{
closed = 1;
nodes = (
"119 648 LINE",
"107 647 OFFCURVE",
"98 636 OFFCURVE",
"98 622 CURVE SMOOTH",
"98 24 LINE SMOOTH",
"98 10 OFFCURVE",
"108 -2 OFFCURVE",
"120 -2 CURVE SMOOTH",
"157 -2 LINE SMOOTH",
"169 -2 OFFCURVE",
"179 10 OFFCURVE",
"179 24 CURVE SMOOTH",
"179 590 LINE SMOOTH",
"179 604 OFFCURVE",
"189 616 OFFCURVE",
"201 616 CURVE SMOOTH",
"278 616 LINE SMOOTH",
"290 616 OFFCURVE",
"300 604 OFFCURVE",
"300 590 CURVE SMOOTH",
"300 24 LINE SMOOTH",
"300 10 OFFCURVE",
"310 -2 OFFCURVE",
"322 -2 CURVE SMOOTH",
"336 -2 LINE SMOOTH",
"348 -2 OFFCURVE",
"358 10 OFFCURVE",
"358 24 CURVE SMOOTH",
"358 590 LINE SMOOTH",
"358 604 OFFCURVE",
"367 616 OFFCURVE",
"380 616 CURVE SMOOTH",
"460 616 LINE SMOOTH",
"472 616 OFFCURVE",
"482 604 OFFCURVE",
"482 590 CURVE SMOOTH",
"482 24 LINE SMOOTH",
"482 10 OFFCURVE",
"492 -2 OFFCURVE",
"504 -2 CURVE SMOOTH",
"537 -2 LINE SMOOTH",
"549 -2 OFFCURVE",
"559 10 OFFCURVE",
"559 24 CURVE SMOOTH",
"559 622 LINE SMOOTH",
"559 636 OFFCURVE",
"550 647 OFFCURVE",
"538 648 CURVE"
);
},
{
closed = 1;
nodes = (
"619 80 OFFCURVE",
"609 103 OFFCURVE",
"597 103 CURVE SMOOTH",
"509 103 LINE",
"509 -2 LINE",
"597 -2 LINE SMOOTH",
"609 -2 OFFCURVE",
"619 21 OFFCURVE",
"619 49 CURVE SMOOTH",
"619 51 LINE SMOOTH"
);
}
);
width = 657;
}
);
unicode = 1212;
},
{
glyphname = "hhaa-ethiopic";
lastChange = "2019-02-19 04:41:48 +0000";
layers = (
{
layerId = "A36D14D1-FF07-4574-A62D-30DF65569781";
paths = (
{
closed = 1;
nodes = (
"352 770 LINE SMOOTH",
"352 784 OFFCURVE",
"342 796 OFFCURVE",
"330 796 CURVE SMOOTH",
"329 796 LINE SMOOTH",
"317 796 OFFCURVE",
"307 784 OFFCURVE",
"307 770 CURVE SMOOTH",
"307 566 LINE",
"352 566 LINE"
);
},
{
closed = 1;
nodes = (
"119 648 LINE",
"107 647 OFFCURVE",
"98 636 OFFCURVE",
"98 622 CURVE SMOOTH",
"98 24 LINE SMOOTH",
"98 10 OFFCURVE",
"108 -2 OFFCURVE",
"120 -2 CURVE SMOOTH",
"157 -2 LINE SMOOTH",
"169 -2 OFFCURVE",
"179 10 OFFCURVE",
"179 24 CURVE SMOOTH",
"179 590 LINE SMOOTH",
"179 604 OFFCURVE",
"189 616 OFFCURVE",
"201 616 CURVE SMOOTH",
"278 616 LINE SMOOTH",
"290 616 OFFCURVE",
"300 604 OFFCURVE",
"300 590 CURVE SMOOTH",
"300 24 LINE SMOOTH",
"300 10 OFFCURVE",
"310 -2 OFFCURVE",
"322 -2 CURVE SMOOTH",
"336 -2 LINE SMOOTH",
"348 -2 OFFCURVE",
"358 10 OFFCURVE",
"358 24 CURVE SMOOTH",
"358 590 LINE SMOOTH",
"358 604 OFFCURVE",
"367 616 OFFCURVE",
"380 616 CURVE SMOOTH",
"460 616 LINE SMOOTH",
"472 616 OFFCURVE",
"482 604 OFFCURVE",
"482 590 CURVE SMOOTH",
"482 24 LINE SMOOTH",
"482 10 OFFCURVE",
"492 -2 OFFCURVE",
"504 -2 CURVE SMOOTH",
"537 -2 LINE SMOOTH",
"549 -2 OFFCURVE",
"559 10 OFFCURVE",
"559 24 CURVE SMOOTH",
"559 622 LINE SMOOTH",
"559 636 OFFCURVE",
"550 647 OFFCURVE",
"538 648 CURVE"
);
},
{
closed = 1;
nodes = (
"506 45 LINE",
"506 -159 LINE SMOOTH",
"506 -173 OFFCURVE",
"516 -185 OFFCURVE",
"528 -185 CURVE SMOOTH",
"529 -185 LINE SMOOTH",
"541 -185 OFFCURVE",
"551 -173 OFFCURVE",
"551 -159 CURVE SMOOTH",
"551 45 LINE"
);
}
);
width = 657;
}
);
unicode = 1213;
},
{
glyphname = "hhee-ethiopic";
lastChange = "2019-02-19 04:41:48 +0000";
layers = (
{
layerId = "A36D14D1-FF07-4574-A62D-30DF65569781";
paths = (
{
closed = 1;
nodes = (
"352 770 LINE SMOOTH",
"352 784 OFFCURVE",
"342 796 OFFCURVE",
"330 796 CURVE SMOOTH",
"329 796 LINE SMOOTH",
"317 796 OFFCURVE",
"307 784 OFFCURVE",
"307 770 CURVE SMOOTH",
"307 566 LINE",
"352 566 LINE"
);
},
{
closed = 1;
nodes = (
"119 648 LINE",
"107 647 OFFCURVE",
"98 636 OFFCURVE",
"98 622 CURVE SMOOTH",
"98 24 LINE SMOOTH",
"98 10 OFFCURVE",
"108 -2 OFFCURVE",
"120 -2 CURVE SMOOTH",
"157 -2 LINE SMOOTH",
"169 -2 OFFCURVE",
"179 10 OFFCURVE",
"179 24 CURVE SMOOTH",
"179 590 LINE SMOOTH",
"179 604 OFFCURVE",
"189 616 OFFCURVE",
"201 616 CURVE SMOOTH",
"278 616 LINE SMOOTH",
"290 616 OFFCURVE",
"300 604 OFFCURVE",
"300 590 CURVE SMOOTH",
"300 24 LINE SMOOTH",
"300 10 OFFCURVE",
"310 -2 OFFCURVE",
"322 -2 CURVE SMOOTH",
"336 -2 LINE SMOOTH",
"348 -2 OFFCURVE",
"358 10 OFFCURVE",
"358 24 CURVE SMOOTH",
"358 590 LINE SMOOTH",
"358 604 OFFCURVE",
"367 616 OFFCURVE",
"380 616 CURVE SMOOTH",
"460 616 LINE SMOOTH",
"472 616 OFFCURVE",
"482 604 OFFCURVE",
"482 590 CURVE SMOOTH",
"482 24 LINE SMOOTH",
"482 10 OFFCURVE",
"492 -2 OFFCURVE",
"504 -2 CURVE SMOOTH",
"537 -2 LINE SMOOTH",
"549 -2 OFFCURVE",
"559 10 OFFCURVE",
"559 24 CURVE SMOOTH",
"559 622 LINE SMOOTH",
"559 636 OFFCURVE",
"550 647 OFFCURVE",
"538 648 CURVE"
);
},
{
closed = 1;
nodes = (
"587 -196 OFFCURVE",
"625 -148 OFFCURVE",
"625 -88 CURVE SMOOTH",
"625 -28 OFFCURVE",
"587 20 OFFCURVE",
"538 20 CURVE SMOOTH",
"488 20 OFFCURVE",
"451 -28 OFFCURVE",
"451 -88 CURVE SMOOTH",
"451 -148 OFFCURVE",
"488 -196 OFFCURVE",
"538 -196 CURVE SMOOTH"
);
},
{
closed = 1;
nodes = (
"507 -154 OFFCURVE",
"484 -126 OFFCURVE",
"484 -88 CURVE SMOOTH",
"484 -50 OFFCURVE",
"507 -22 OFFCURVE",
"538 -22 CURVE SMOOTH",
"569 -22 OFFCURVE",
"592 -50 OFFCURVE",
"592 -88 CURVE SMOOTH",
"592 -126 OFFCURVE",
"569 -154 OFFCURVE",
"538 -154 CURVE SMOOTH"
);
}
);
width = 657;
}
);
unicode = 1214;
},
{
glyphname = "hhe-ethiopic";
lastChange = "2019-02-19 04:41:48 +0000";
layers = (
{
layerId = "A36D14D1-FF07-4574-A62D-30DF65569781";
paths = (
{
closed = 1;
nodes = (
"352 679 LINE SMOOTH",
"352 693 OFFCURVE",
"342 705 OFFCURVE",
"330 705 CURVE SMOOTH",
"329 705 LINE SMOOTH",
"317 705 OFFCURVE",
"307 693 OFFCURVE",
"307 679 CURVE SMOOTH",
"307 566 LINE",
"352 566 LINE"
);
},
{
closed = 1;
nodes = (
"318 786 LINE SMOOTH",
"318 800 OFFCURVE",
"308 812 OFFCURVE",
"296 812 CURVE SMOOTH",
"295 812 LINE SMOOTH",
"283 812 OFFCURVE",
"273 800 OFFCURVE",
"273 786 CURVE SMOOTH",
"274 671 LINE",
"319 671 LINE"
);
},
{
closed = 1;
nodes = (
"119 648 LINE",
"107 647 OFFCURVE",
"98 636 OFFCURVE",
"98 622 CURVE SMOOTH",
"98 24 LINE SMOOTH",
"98 10 OFFCURVE",
"108 -2 OFFCURVE",
"120 -2 CURVE SMOOTH",
"157 -2 LINE SMOOTH",
"169 -2 OFFCURVE",
"179 10 OFFCURVE",
"179 24 CURVE SMOOTH",
"179 590 LINE SMOOTH",
"179 604 OFFCURVE",
"189 616 OFFCURVE",
"201 616 CURVE SMOOTH",
"278 616 LINE SMOOTH",
"290 616 OFFCURVE",
"300 604 OFFCURVE",
"300 590 CURVE SMOOTH",
"300 24 LINE SMOOTH",
"300 10 OFFCURVE",
"310 -2 OFFCURVE",
"322 -2 CURVE SMOOTH",
"336 -2 LINE SMOOTH",
"348 -2 OFFCURVE",
"358 10 OFFCURVE",
"358 24 CURVE SMOOTH",
"358 590 LINE SMOOTH",
"358 604 OFFCURVE",
"367 616 OFFCURVE",
"380 616 CURVE SMOOTH",
"460 616 LINE SMOOTH",
"472 616 OFFCURVE",
"482 604 OFFCURVE",
"482 590 CURVE SMOOTH",
"482 24 LINE SMOOTH",
"482 10 OFFCURVE",
"492 -2 OFFCURVE",
"504 -2 CURVE SMOOTH",
"537 -2 LINE SMOOTH",
"549 -2 OFFCURVE",
"559 10 OFFCURVE",
"559 24 CURVE SMOOTH",
"559 622 LINE SMOOTH",
"559 636 OFFCURVE",
"550 647 OFFCURVE",
"538 648 CURVE"
);
}
);
width = 657;
}
);
unicode = 1215;
},
{
glyphname = "hho-ethiopic";
lastChange = "2019-02-19 04:41:48 +0000";
layers = (
{
layerId = "A36D14D1-FF07-4574-A62D-30DF65569781";
paths = (
{
closed = 1;
nodes = (
"342 760 LINE SMOOTH",
"342 774 OFFCURVE",
"332 786 OFFCURVE",
"320 786 CURVE SMOOTH",
"319 786 LINE SMOOTH",
"307 786 OFFCURVE",
"297 774 OFFCURVE",
"297 760 CURVE SMOOTH",
"297 556 LINE",
"342 556 LINE"
);
},
{
closed = 1;
nodes = (
"119 648 LINE",
"107 647 OFFCURVE",
"98 636 OFFCURVE",
"98 622 CURVE SMOOTH",
"98 24 LINE SMOOTH",
"98 10 OFFCURVE",
"108 -2 OFFCURVE",
"120 -2 CURVE SMOOTH",
"157 -2 LINE SMOOTH",
"169 -2 OFFCURVE",
"179 10 OFFCURVE",
"179 24 CURVE SMOOTH",
"179 590 LINE SMOOTH",
"179 604 OFFCURVE",
"189 616 OFFCURVE",
"201 616 CURVE SMOOTH",
"278 616 LINE SMOOTH",
"290 616 OFFCURVE",
"300 604 OFFCURVE",
"300 590 CURVE SMOOTH",
"300 24 LINE SMOOTH",
"300 10 OFFCURVE",
"310 -2 OFFCURVE",
"322 -2 CURVE SMOOTH",
"336 -2 LINE SMOOTH",
"348 -2 OFFCURVE",
"358 10 OFFCURVE",
"358 24 CURVE SMOOTH",
"358 590 LINE SMOOTH",
"358 604 OFFCURVE",
"367 616 OFFCURVE",
"380 616 CURVE SMOOTH",
"460 616 LINE SMOOTH",
"472 616 OFFCURVE",
"482 604 OFFCURVE",
"482 590 CURVE SMOOTH",
"482 24 LINE SMOOTH",
"482 10 OFFCURVE",
"492 -2 OFFCURVE",
"504 -2 CURVE SMOOTH",
"537 -2 LINE SMOOTH",
"549 -2 OFFCURVE",
"559 10 OFFCURVE",
"559 24 CURVE SMOOTH",
"559 622 LINE SMOOTH",
"559 636 OFFCURVE",
"550 647 OFFCURVE",
"538 648 CURVE"
);
},
{
closed = 1;
nodes = (
"98 68 LINE",
"98 -136 LINE SMOOTH",
"98 -150 OFFCURVE",
"108 -162 OFFCURVE",
"120 -162 CURVE SMOOTH",
"121 -162 LINE SMOOTH",
"133 -162 OFFCURVE",
"143 -150 OFFCURVE",
"143 -136 CURVE SMOOTH",
"143 68 LINE"
);
}
);
width = 657;
}
);
unicode = 1216;
},
{
glyphname = "hhwa-ethiopic";
lastChange = "2019-02-19 04:41:48 +0000";
layers = (
{
layerId = "A36D14D1-FF07-4574-A62D-30DF65569781";
paths = (
{
closed = 1;
nodes = (
"352 770 LINE SMOOTH",
"352 784 OFFCURVE",
"342 796 OFFCURVE",
"330 796 CURVE SMOOTH",
"329 796 LINE SMOOTH",
"317 796 OFFCURVE",
"307 784 OFFCURVE",
"307 770 CURVE SMOOTH",
"307 566 LINE",
"352 566 LINE"
);
},
{
closed = 1;
nodes = (
"119 648 LINE",
"107 647 OFFCURVE",
"98 636 OFFCURVE",
"98 622 CURVE SMOOTH",
"98 24 LINE SMOOTH",
"98 10 OFFCURVE",
"108 -2 OFFCURVE",
"120 -2 CURVE SMOOTH",
"157 -2 LINE SMOOTH",
"169 -2 OFFCURVE",
"179 10 OFFCURVE",
"179 24 CURVE SMOOTH",
"179 590 LINE SMOOTH",
"179 604 OFFCURVE",
"189 616 OFFCURVE",
"201 616 CURVE SMOOTH",
"278 616 LINE SMOOTH",
"290 616 OFFCURVE",
"300 604 OFFCURVE",
"300 590 CURVE SMOOTH",
"300 24 LINE SMOOTH",
"300 10 OFFCURVE",
"310 -2 OFFCURVE",
"322 -2 CURVE SMOOTH",
"336 -2 LINE SMOOTH",
"348 -2 OFFCURVE",
"358 10 OFFCURVE",
"358 24 CURVE SMOOTH",
"358 590 LINE SMOOTH",
"358 604 OFFCURVE",
"367 616 OFFCURVE",
"380 616 CURVE SMOOTH",
"460 616 LINE SMOOTH",
"472 616 OFFCURVE",
"482 604 OFFCURVE",
"482 590 CURVE SMOOTH",
"482 24 LINE SMOOTH",
"482 10 OFFCURVE",
"492 -2 OFFCURVE",
"504 -2 CURVE SMOOTH",
"537 -2 LINE SMOOTH",
"549 -2 OFFCURVE",
"559 10 OFFCURVE",
"559 24 CURVE SMOOTH",
"559 622 LINE SMOOTH",
"559 636 OFFCURVE",
"550 647 OFFCURVE",
"538 648 CURVE"
);
},
{
closed = 1;
nodes = (
"534 -176 LINE SMOOTH",
"534 -190 OFFCURVE",
"543 -202 OFFCURVE",
"556 -202 CURVE SMOOTH",
"557 -202 LINE SMOOTH",
"569 -202 OFFCURVE",
"579 -190 OFFCURVE",
"579 -176 CURVE SMOOTH",
"579 -33 LINE",
"534 -33 LINE"
);
},
{
closed = 1;
nodes = (
"579 -95 LINE",
"579 -41 LINE",
"422 -41 LINE",
"424 -95 LINE"
);
},
{
closed = 1;
nodes = (
"490 -56 LINE SMOOTH",
"490 -70 OFFCURVE",
"499 -82 OFFCURVE",
"512 -82 CURVE SMOOTH",
"513 -82 LINE SMOOTH",
"525 -82 OFFCURVE",
"535 -70 OFFCURVE",
"535 -56 CURVE SMOOTH",
"535 22 LINE",
"490 22 LINE"
);
}
);
width = 657;
}
);
unicode = 1217;
},
{
glyphname = "ma-ethiopic";
lastChange = "2019-02-19 04:41:48 +0000";
layers = (
{
layerId = "A36D14D1-FF07-4574-A62D-30DF65569781";
paths = (
{
closed = 1;
nodes = (
"119 648 LINE",
"107 647 OFFCURVE",
"98 636 OFFCURVE",
"98 622 CURVE SMOOTH",
"98 64 LINE SMOOTH",
"98 27 OFFCURVE",
"122 -2 OFFCURVE",
"154 -2 CURVE SMOOTH",
"305 -2 LINE SMOOTH",
"317 -2 OFFCURVE",
"327 10 OFFCURVE",
"327 24 CURVE SMOOTH",
"327 616 LINE",
"391 616 LINE",
"391 24 LINE SMOOTH",
"391 10 OFFCURVE",
"400 -2 OFFCURVE",
"413 -2 CURVE SMOOTH",
"571 -2 LINE SMOOTH",
"603 -2 OFFCURVE",
"627 27 OFFCURVE",
"627 64 CURVE SMOOTH",
"627 622 LINE SMOOTH",
"627 636 OFFCURVE",
"618 647 OFFCURVE",
"606 648 CURVE"
);
},
{
closed = 1;
nodes = (
"201 51 LINE SMOOTH",
"189 51 OFFCURVE",
"179 63 OFFCURVE",
"179 77 CURVE SMOOTH",
"179 590 LINE SMOOTH",
"179 604 OFFCURVE",
"189 616 OFFCURVE",
"201 616 CURVE SMOOTH",
"270 616 LINE",
"270 51 LINE"
);
},
{
closed = 1;
nodes = (
"448 51 LINE",
"448 616 LINE",
"528 616 LINE SMOOTH",
"540 616 OFFCURVE",
"550 604 OFFCURVE",
"550 590 CURVE SMOOTH",
"550 77 LINE SMOOTH",
"550 63 OFFCURVE",
"540 51 OFFCURVE",
"528 51 CURVE SMOOTH"
);
}
);
width = 725;
}
);
unicode = 1218;
},
{
glyphname = "mu-ethiopic";
lastChange = "2019-02-19 04:41:48 +0000";
layers = (
{
components = (
{
name = _part.hoo;
transform = "{1.1, 0, 0, 1.3, 88, -2}";
}
);
layerId = "A36D14D1-FF07-4574-A62D-30DF65569781";
paths = (
{
closed = 1;
nodes = (
"119 648 LINE",
"107 647 OFFCURVE",
"98 636 OFFCURVE",
"98 622 CURVE SMOOTH",
"98 64 LINE SMOOTH",
"98 27 OFFCURVE",
"122 -2 OFFCURVE",
"154 -2 CURVE SMOOTH",
"305 -2 LINE SMOOTH",
"317 -2 OFFCURVE",
"327 10 OFFCURVE",
"327 24 CURVE SMOOTH",
"327 616 LINE",
"391 616 LINE",
"391 24 LINE SMOOTH",
"391 10 OFFCURVE",
"400 -2 OFFCURVE",
"413 -2 CURVE SMOOTH",
"571 -2 LINE SMOOTH",
"603 -2 OFFCURVE",
"627 27 OFFCURVE",
"627 64 CURVE SMOOTH",
"627 622 LINE SMOOTH",
"627 636 OFFCURVE",
"618 647 OFFCURVE",
"606 648 CURVE"
);
},
{
closed = 1;
nodes = (
"201 51 LINE SMOOTH",
"189 51 OFFCURVE",
"179 63 OFFCURVE",
"179 77 CURVE SMOOTH",
"179 590 LINE SMOOTH",
"179 604 OFFCURVE",
"189 616 OFFCURVE",
"201 616 CURVE SMOOTH",
"270 616 LINE",
"270 51 LINE"
);
},
{
closed = 1;
nodes = (
"448 51 LINE",
"448 616 LINE",
"528 616 LINE SMOOTH",
"540 616 OFFCURVE",
"550 604 OFFCURVE",
"550 590 CURVE SMOOTH",
"550 77 LINE SMOOTH",
"550 63 OFFCURVE",
"540 51 OFFCURVE",
"528 51 CURVE SMOOTH"
);
}
);
width = 725;
}
);
unicode = 1219;
},
{
glyphname = "mi-ethiopic";
lastChange = "2019-02-19 04:41:48 +0000";
layers = (
{
layerId = "A36D14D1-FF07-4574-A62D-30DF65569781";
paths = (
{
closed = 1;
nodes = (
"119 648 LINE",
"107 647 OFFCURVE",
"98 636 OFFCURVE",
"98 622 CURVE SMOOTH",
"98 64 LINE SMOOTH",
"98 27 OFFCURVE",
"122 -2 OFFCURVE",
"154 -2 CURVE SMOOTH",
"305 -2 LINE SMOOTH",
"317 -2 OFFCURVE",
"327 10 OFFCURVE",
"327 24 CURVE SMOOTH",
"327 616 LINE",
"391 616 LINE",
"391 24 LINE SMOOTH",
"391 10 OFFCURVE",
"400 -2 OFFCURVE",
"413 -2 CURVE SMOOTH",
"571 -2 LINE SMOOTH",
"603 -2 OFFCURVE",
"627 27 OFFCURVE",
"627 64 CURVE SMOOTH",
"627 622 LINE SMOOTH",
"627 636 OFFCURVE",
"618 647 OFFCURVE",
"606 648 CURVE"
);
},
{
closed = 1;
nodes = (
"201 51 LINE SMOOTH",
"189 51 OFFCURVE",
"179 63 OFFCURVE",
"179 77 CURVE SMOOTH",
"179 590 LINE SMOOTH",
"179 604 OFFCURVE",
"189 616 OFFCURVE",
"201 616 CURVE SMOOTH",
"270 616 LINE",
"270 51 LINE"
);
},
{
closed = 1;
nodes = (
"448 51 LINE",
"448 616 LINE",
"528 616 LINE SMOOTH",
"540 616 OFFCURVE",
"550 604 OFFCURVE",
"550 590 CURVE SMOOTH",
"550 77 LINE SMOOTH",
"550 63 OFFCURVE",
"540 51 OFFCURVE",
"528 51 CURVE SMOOTH"
);
},
{
closed = 1;
nodes = (
"538 -189 LINE",
"659 -189 LINE SMOOTH",
"671 -189 OFFCURVE",
"681 -177 OFFCURVE",
"681 -163 CURVE SMOOTH",
"681 -162 LINE SMOOTH",
"681 -147 OFFCURVE",
"671 -136 OFFCURVE",
"659 -136 CURVE SMOOTH",
"538 -136 LINE"
);
},
{
closed = 1;
nodes = (
"538 48 LINE",
"538 -137 LINE",
"583 -137 LINE",
"583 46 LINE"
);
}
);
width = 725;
}
);
unicode = 121A;
},
{
glyphname = "maa-ethiopic";
lastChange = "2019-02-19 04:41:48 +0000";
layers = (
{
layerId = "A36D14D1-FF07-4574-A62D-30DF65569781";
paths = (
{
closed = 1;
nodes = (
"119 648 LINE",
"107 647 OFFCURVE",
"98 636 OFFCURVE",
"98 622 CURVE SMOOTH",
"98 64 LINE SMOOTH",
"98 27 OFFCURVE",
"122 -2 OFFCURVE",
"154 -2 CURVE SMOOTH",
"305 -2 LINE SMOOTH",
"317 -2 OFFCURVE",
"327 10 OFFCURVE",
"327 24 CURVE SMOOTH",
"327 616 LINE",
"391 616 LINE",
"391 24 LINE SMOOTH",
"391 10 OFFCURVE",
"400 -2 OFFCURVE",
"413 -2 CURVE SMOOTH",
"571 -2 LINE SMOOTH",
"603 -2 OFFCURVE",
"627 27 OFFCURVE",
"627 64 CURVE SMOOTH",
"627 622 LINE SMOOTH",
"627 636 OFFCURVE",
"618 647 OFFCURVE",
"606 648 CURVE"
);
},
{
closed = 1;
nodes = (
"201 51 LINE SMOOTH",
"189 51 OFFCURVE",
"179 63 OFFCURVE",
"179 77 CURVE SMOOTH",
"179 590 LINE SMOOTH",
"179 604 OFFCURVE",
"189 616 OFFCURVE",
"201 616 CURVE SMOOTH",
"270 616 LINE",
"270 51 LINE"
);
},
{
closed = 1;
nodes = (
"448 51 LINE",
"448 616 LINE",
"528 616 LINE SMOOTH",
"540 616 OFFCURVE",
"550 604 OFFCURVE",
"550 590 CURVE SMOOTH",
"550 77 LINE SMOOTH",
"550 63 OFFCURVE",
"540 51 OFFCURVE",
"528 51 CURVE SMOOTH"
);
},
{
closed = 1;
nodes = (
"582 48 LINE",
"582 -156 LINE SMOOTH",
"582 -170 OFFCURVE",
"592 -182 OFFCURVE",
"604 -182 CURVE SMOOTH",
"605 -182 LINE SMOOTH",
"617 -182 OFFCURVE",
"627 -170 OFFCURVE",
"627 -156 CURVE SMOOTH",
"627 48 LINE"
);
}
);
width = 725;
}
);
unicode = 121B;
},
{
glyphname = "mee-ethiopic";
lastChange = "2019-02-19 04:41:48 +0000";
layers = (
{
layerId = "A36D14D1-FF07-4574-A62D-30DF65569781";
paths = (
{
closed = 1;
nodes = (
"119 648 LINE",
"107 647 OFFCURVE",
"98 636 OFFCURVE",
"98 622 CURVE SMOOTH",
"98 64 LINE SMOOTH",
"98 27 OFFCURVE",
"122 -2 OFFCURVE",
"154 -2 CURVE SMOOTH",
"305 -2 LINE SMOOTH",
"317 -2 OFFCURVE",
"327 10 OFFCURVE",
"327 24 CURVE SMOOTH",
"327 616 LINE",
"391 616 LINE",
"391 24 LINE SMOOTH",
"391 10 OFFCURVE",
"400 -2 OFFCURVE",
"413 -2 CURVE SMOOTH",
"571 -2 LINE SMOOTH",
"603 -2 OFFCURVE",
"627 27 OFFCURVE",
"627 64 CURVE SMOOTH",
"627 622 LINE SMOOTH",
"627 636 OFFCURVE",
"618 647 OFFCURVE",
"606 648 CURVE"
);
},
{
closed = 1;
nodes = (
"201 51 LINE SMOOTH",
"189 51 OFFCURVE",
"179 63 OFFCURVE",
"179 77 CURVE SMOOTH",
"179 590 LINE SMOOTH",
"179 604 OFFCURVE",
"189 616 OFFCURVE",
"201 616 CURVE SMOOTH",
"270 616 LINE",
"270 51 LINE"
);
},
{
closed = 1;
nodes = (
"448 51 LINE",
"448 616 LINE",
"528 616 LINE SMOOTH",
"540 616 OFFCURVE",
"550 604 OFFCURVE",
"550 590 CURVE SMOOTH",
"550 77 LINE SMOOTH",
"550 63 OFFCURVE",
"540 51 OFFCURVE",
"528 51 CURVE SMOOTH"
);
},
{
closed = 1;
nodes = (
"644 -186 OFFCURVE",
"681 -138 OFFCURVE",
"681 -78 CURVE SMOOTH",
"681 -18 OFFCURVE",
"644 30 OFFCURVE",
"594 30 CURVE SMOOTH",
"545 30 OFFCURVE",
"507 -18 OFFCURVE",
"507 -78 CURVE SMOOTH",
"507 -138 OFFCURVE",
"545 -186 OFFCURVE",
"594 -186 CURVE SMOOTH"
);
},
{
closed = 1;
nodes = (
"563 -144 OFFCURVE",
"540 -116 OFFCURVE",
"540 -78 CURVE SMOOTH",
"540 -40 OFFCURVE",
"563 -12 OFFCURVE",
"594 -12 CURVE SMOOTH",
"625 -12 OFFCURVE",
"648 -40 OFFCURVE",
"648 -78 CURVE SMOOTH",
"648 -116 OFFCURVE",
"625 -144 OFFCURVE",
"594 -144 CURVE SMOOTH"
);
}
);
width = 725;
}
);
unicode = 121C;
},
{
glyphname = "me-ethiopic";
lastChange = "2019-02-19 04:41:48 +0000";
layers = (
{
layerId = "A36D14D1-FF07-4574-A62D-30DF65569781";
paths = (
{
closed = 1;
nodes = (
"119 648 LINE",
"107 647 OFFCURVE",
"98 636 OFFCURVE",
"98 622 CURVE SMOOTH",
"98 64 LINE SMOOTH",
"98 27 OFFCURVE",
"122 -2 OFFCURVE",
"154 -2 CURVE SMOOTH",
"305 -2 LINE SMOOTH",
"317 -2 OFFCURVE",
"327 10 OFFCURVE",
"327 24 CURVE SMOOTH",
"327 616 LINE",
"391 616 LINE",
"391 24 LINE SMOOTH",
"391 10 OFFCURVE",
"400 -2 OFFCURVE",
"413 -2 CURVE SMOOTH",
"571 -2 LINE SMOOTH",
"603 -2 OFFCURVE",
"627 27 OFFCURVE",
"627 64 CURVE SMOOTH",
"627 622 LINE SMOOTH",
"627 636 OFFCURVE",
"618 647 OFFCURVE",
"606 648 CURVE"
);
},
{
closed = 1;
nodes = (
"201 51 LINE SMOOTH",
"189 51 OFFCURVE",
"179 63 OFFCURVE",
"179 77 CURVE SMOOTH",
"179 590 LINE SMOOTH",
"179 604 OFFCURVE",
"189 616 OFFCURVE",
"201 616 CURVE SMOOTH",
"270 616 LINE",
"270 51 LINE"
);
},
{
closed = 1;
nodes = (
"448 51 LINE",
"448 616 LINE",
"528 616 LINE SMOOTH",
"540 616 OFFCURVE",
"550 604 OFFCURVE",
"550 590 CURVE SMOOTH",
"550 77 LINE SMOOTH",
"550 63 OFFCURVE",
"540 51 OFFCURVE",
"528 51 CURVE SMOOTH"
);
},
{
closed = 1;
nodes = (
"205 -152 LINE SMOOTH",
"193 -152 OFFCURVE",
"183 -163 OFFCURVE",
"183 -178 CURVE SMOOTH",
"183 -179 LINE SMOOTH",
"183 -193 OFFCURVE",
"193 -205 OFFCURVE",
"205 -205 CURVE SMOOTH",
"326 -205 LINE",
"326 -152 LINE"
);
},
{
closed = 1;
nodes = (
"282 -205 LINE",
"327 -205 LINE",
"327 -20 LINE",
"282 -22 LINE"
);
}
);
width = 725;
}
);
unicode = 121D;
},
{
glyphname = "mo-ethiopic";
lastChange = "2019-02-19 04:41:48 +0000";
layers = (
{
layerId = "A36D14D1-FF07-4574-A62D-30DF65569781";
paths = (
{
closed = 1;
nodes = (
"119 648 LINE",
"107 647 OFFCURVE",
"98 636 OFFCURVE",
"98 622 CURVE SMOOTH",
"98 64 LINE SMOOTH",
"98 27 OFFCURVE",
"122 -2 OFFCURVE",
"154 -2 CURVE SMOOTH",
"305 -2 LINE SMOOTH",
"317 -2 OFFCURVE",
"327 10 OFFCURVE",
"327 24 CURVE SMOOTH",
"327 616 LINE",
"391 616 LINE",
"391 24 LINE SMOOTH",
"391 10 OFFCURVE",
"400 -2 OFFCURVE",
"413 -2 CURVE SMOOTH",
"571 -2 LINE SMOOTH",
"603 -2 OFFCURVE",
"627 27 OFFCURVE",
"627 64 CURVE SMOOTH",
"627 622 LINE SMOOTH",
"627 636 OFFCURVE",
"618 647 OFFCURVE",
"606 648 CURVE"
);
},
{
closed = 1;
nodes = (
"201 51 LINE SMOOTH",
"189 51 OFFCURVE",
"179 63 OFFCURVE",
"179 77 CURVE SMOOTH",
"179 590 LINE SMOOTH",
"179 604 OFFCURVE",
"189 616 OFFCURVE",
"201 616 CURVE SMOOTH",
"270 616 LINE",
"270 51 LINE"
);
},
{
closed = 1;
nodes = (
"448 51 LINE",
"448 616 LINE",
"528 616 LINE SMOOTH",
"540 616 OFFCURVE",
"550 604 OFFCURVE",
"550 590 CURVE SMOOTH",
"550 77 LINE SMOOTH",
"550 63 OFFCURVE",
"540 51 OFFCURVE",
"528 51 CURVE SMOOTH"
);
},
{
closed = 1;
nodes = (
"282 59 LINE",
"282 -145 LINE SMOOTH",
"282 -159 OFFCURVE",
"292 -171 OFFCURVE",
"304 -171 CURVE SMOOTH",
"305 -171 LINE SMOOTH",
"317 -171 OFFCURVE",
"327 -159 OFFCURVE",
"327 -145 CURVE SMOOTH",
"327 59 LINE"
);
}
);
width = 725;
}
);
unicode = 121E;
},
{
glyphname = "mwa-ethiopic";
lastChange = "2019-02-19 04:41:48 +0000";
layers = (
{
layerId = "A36D14D1-FF07-4574-A62D-30DF65569781";
paths = (
{
closed = 1;
nodes = (
"119 648 LINE",
"107 647 OFFCURVE",
"98 636 OFFCURVE",
"98 622 CURVE SMOOTH",
"98 64 LINE SMOOTH",
"98 27 OFFCURVE",
"122 -2 OFFCURVE",
"154 -2 CURVE SMOOTH",
"305 -2 LINE SMOOTH",
"317 -2 OFFCURVE",
"327 10 OFFCURVE",
"327 24 CURVE SMOOTH",
"327 616 LINE",
"391 616 LINE",
"391 24 LINE SMOOTH",
"391 10 OFFCURVE",
"400 -2 OFFCURVE",
"413 -2 CURVE SMOOTH",
"571 -2 LINE SMOOTH",
"603 -2 OFFCURVE",
"627 27 OFFCURVE",
"627 64 CURVE SMOOTH",
"627 622 LINE SMOOTH",
"627 636 OFFCURVE",
"618 647 OFFCURVE",
"606 648 CURVE"
);
},
{
closed = 1;
nodes = (
"201 51 LINE SMOOTH",
"189 51 OFFCURVE",
"179 63 OFFCURVE",
"179 77 CURVE SMOOTH",
"179 590 LINE SMOOTH",
"179 604 OFFCURVE",
"189 616 OFFCURVE",
"201 616 CURVE SMOOTH",
"270 616 LINE",
"270 51 LINE"
);
},
{
closed = 1;
nodes = (
"448 51 LINE",
"448 616 LINE",
"528 616 LINE SMOOTH",
"540 616 OFFCURVE",
"550 604 OFFCURVE",
"550 590 CURVE SMOOTH",
"550 77 LINE SMOOTH",
"550 63 OFFCURVE",
"540 51 OFFCURVE",
"528 51 CURVE SMOOTH"
);
},
{
closed = 1;
nodes = (
"591 -170 LINE SMOOTH",
"591 -184 OFFCURVE",
"600 -196 OFFCURVE",
"613 -196 CURVE SMOOTH",
"614 -196 LINE SMOOTH",
"626 -196 OFFCURVE",
"636 -184 OFFCURVE",
"636 -170 CURVE SMOOTH",
"636 -27 LINE",
"591 -27 LINE"
);
},
{
closed = 1;
nodes = (
"636 -79 LINE",
"636 -25 LINE",
"479 -25 LINE",
"481 -79 LINE"
);
},
{
closed = 1;
nodes = (
"547 -30 LINE SMOOTH",
"547 -44 OFFCURVE",
"556 -56 OFFCURVE",
"569 -56 CURVE SMOOTH",
"570 -56 LINE SMOOTH",
"582 -56 OFFCURVE",
"592 -44 OFFCURVE",
"592 -30 CURVE SMOOTH",
"592 18 LINE",
"547 18 LINE"
);
}
);
width = 725;
}
);
unicode = 121F;
},
{
glyphname = "sza-ethiopic";
lastChange = "2019-02-19 04:41:48 +0000";
layers = (
{
layerId = "A36D14D1-FF07-4574-A62D-30DF65569781";
paths = (
{
closed = 1;
nodes = (
"550 -1 OFFCURVE",
"559 10 OFFCURVE",
"559 24 CURVE SMOOTH",
"559 622 LINE SMOOTH",
"559 636 OFFCURVE",
"549 648 OFFCURVE",
"537 648 CURVE SMOOTH",
"504 648 LINE SMOOTH",
"492 648 OFFCURVE",
"482 636 OFFCURVE",
"482 622 CURVE SMOOTH",
"482 57 LINE SMOOTH",
"482 42 OFFCURVE",
"472 31 OFFCURVE",
"460 31 CURVE SMOOTH",
"380 31 LINE SMOOTH",
"367 31 OFFCURVE",
"358 42 OFFCURVE",
"358 57 CURVE SMOOTH",
"358 622 LINE SMOOTH",
"358 636 OFFCURVE",
"348 648 OFFCURVE",
"336 648 CURVE SMOOTH",
"322 648 LINE SMOOTH",
"310 648 OFFCURVE",
"300 636 OFFCURVE",
"300 622 CURVE SMOOTH",
"300 57 LINE SMOOTH",
"300 42 OFFCURVE",
"290 31 OFFCURVE",
"278 31 CURVE SMOOTH",
"201 31 LINE SMOOTH",
"189 31 OFFCURVE",
"179 42 OFFCURVE",
"179 57 CURVE SMOOTH",
"179 622 LINE SMOOTH",
"179 636 OFFCURVE",
"169 648 OFFCURVE",
"157 648 CURVE SMOOTH",
"120 648 LINE SMOOTH",
"108 648 OFFCURVE",
"98 636 OFFCURVE",
"98 622 CURVE SMOOTH",
"98 24 LINE SMOOTH",
"98 10 OFFCURVE",
"107 -1 OFFCURVE",
"119 -2 CURVE",
"538 -2 LINE"
);
}
);
width = 657;
}
);
unicode = 1220;
},
{
glyphname = "szu-ethiopic";
lastChange = "2019-02-19 04:41:48 +0000";
layers = (
{
components = (
{
name = _part.hoo;
transform = "{1.1, 0, 0, 1.3, 12, -2}";
}
);
layerId = "A36D14D1-FF07-4574-A62D-30DF65569781";
paths = (
{
closed = 1;
nodes = (
"550 -1 OFFCURVE",
"559 10 OFFCURVE",
"559 24 CURVE SMOOTH",
"559 622 LINE SMOOTH",
"559 636 OFFCURVE",
"549 648 OFFCURVE",
"537 648 CURVE SMOOTH",
"504 648 LINE SMOOTH",
"492 648 OFFCURVE",
"482 636 OFFCURVE",
"482 622 CURVE SMOOTH",
"482 57 LINE SMOOTH",
"482 42 OFFCURVE",
"472 31 OFFCURVE",
"460 31 CURVE SMOOTH",
"380 31 LINE SMOOTH",
"367 31 OFFCURVE",
"358 42 OFFCURVE",
"358 57 CURVE SMOOTH",
"358 622 LINE SMOOTH",
"358 636 OFFCURVE",
"348 648 OFFCURVE",
"336 648 CURVE SMOOTH",
"322 648 LINE SMOOTH",
"310 648 OFFCURVE",
"300 636 OFFCURVE",
"300 622 CURVE SMOOTH",
"300 57 LINE SMOOTH",
"300 42 OFFCURVE",
"290 31 OFFCURVE",
"278 31 CURVE SMOOTH",
"201 31 LINE SMOOTH",
"189 31 OFFCURVE",
"179 42 OFFCURVE",
"179 57 CURVE SMOOTH",
"179 622 LINE SMOOTH",
"179 636 OFFCURVE",
"169 648 OFFCURVE",
"157 648 CURVE SMOOTH",
"120 648 LINE SMOOTH",
"108 648 OFFCURVE",
"98 636 OFFCURVE",
"98 622 CURVE SMOOTH",
"98 24 LINE SMOOTH",
"98 10 OFFCURVE",
"107 -1 OFFCURVE",
"119 -2 CURVE",
"538 -2 LINE"
);
}
);
width = 657;
}
);
unicode = 1221;
},
{
glyphname = "szi-ethiopic";
lastChange = "2019-02-19 04:41:48 +0000";
layers = (
{
layerId = "A36D14D1-FF07-4574-A62D-30DF65569781";
paths = (
{
closed = 1;
nodes = (
"550 -1 OFFCURVE",
"559 10 OFFCURVE",
"559 24 CURVE SMOOTH",
"559 622 LINE SMOOTH",
"559 636 OFFCURVE",
"549 648 OFFCURVE",
"537 648 CURVE SMOOTH",
"504 648 LINE SMOOTH",
"492 648 OFFCURVE",
"482 636 OFFCURVE",
"482 622 CURVE SMOOTH",
"482 57 LINE SMOOTH",
"482 42 OFFCURVE",
"472 31 OFFCURVE",
"460 31 CURVE SMOOTH",
"380 31 LINE SMOOTH",
"367 31 OFFCURVE",
"358 42 OFFCURVE",
"358 57 CURVE SMOOTH",
"358 622 LINE SMOOTH",
"358 636 OFFCURVE",
"348 648 OFFCURVE",
"336 648 CURVE SMOOTH",
"322 648 LINE SMOOTH",
"310 648 OFFCURVE",
"300 636 OFFCURVE",
"300 622 CURVE SMOOTH",
"300 57 LINE SMOOTH",
"300 42 OFFCURVE",
"290 31 OFFCURVE",
"278 31 CURVE SMOOTH",
"201 31 LINE SMOOTH",
"189 31 OFFCURVE",
"179 42 OFFCURVE",
"179 57 CURVE SMOOTH",
"179 622 LINE SMOOTH",
"179 636 OFFCURVE",
"169 648 OFFCURVE",
"157 648 CURVE SMOOTH",
"120 648 LINE SMOOTH",
"108 648 OFFCURVE",
"98 636 OFFCURVE",
"98 622 CURVE SMOOTH",
"98 24 LINE SMOOTH",
"98 10 OFFCURVE",
"107 -1 OFFCURVE",
"119 -2 CURVE",
"538 -2 LINE"
);
},
{
closed = 1;
nodes = (
"472 -192 LINE",
"593 -192 LINE SMOOTH",
"605 -192 OFFCURVE",
"615 -180 OFFCURVE",
"615 -166 CURVE SMOOTH",
"615 -164 LINE SMOOTH",
"615 -150 OFFCURVE",
"605 -138 OFFCURVE",
"593 -138 CURVE SMOOTH",
"472 -138 LINE"
);
},
{
closed = 1;
nodes = (
"472 32 LINE",
"472 -153 LINE",
"517 -153 LINE",
"517 31 LINE"
);
}
);
width = 657;
}
);
unicode = 1222;
},
{
glyphname = "szaa-ethiopic";
lastChange = "2019-02-19 04:41:48 +0000";
layers = (
{
layerId = "A36D14D1-FF07-4574-A62D-30DF65569781";
paths = (
{
closed = 1;
nodes = (
"550 -1 OFFCURVE",
"559 10 OFFCURVE",
"559 24 CURVE SMOOTH",
"559 622 LINE SMOOTH",
"559 636 OFFCURVE",
"549 648 OFFCURVE",
"537 648 CURVE SMOOTH",
"504 648 LINE SMOOTH",
"492 648 OFFCURVE",
"482 636 OFFCURVE",
"482 622 CURVE SMOOTH",
"482 57 LINE SMOOTH",
"482 42 OFFCURVE",
"472 31 OFFCURVE",
"460 31 CURVE SMOOTH",
"380 31 LINE SMOOTH",
"367 31 OFFCURVE",
"358 42 OFFCURVE",
"358 57 CURVE SMOOTH",
"358 622 LINE SMOOTH",
"358 636 OFFCURVE",
"348 648 OFFCURVE",
"336 648 CURVE SMOOTH",
"322 648 LINE SMOOTH",
"310 648 OFFCURVE",
"300 636 OFFCURVE",
"300 622 CURVE SMOOTH",
"300 57 LINE SMOOTH",
"300 42 OFFCURVE",
"290 31 OFFCURVE",
"278 31 CURVE SMOOTH",
"201 31 LINE SMOOTH",
"189 31 OFFCURVE",
"179 42 OFFCURVE",
"179 57 CURVE SMOOTH",
"179 622 LINE SMOOTH",
"179 636 OFFCURVE",
"169 648 OFFCURVE",
"157 648 CURVE SMOOTH",
"120 648 LINE SMOOTH",
"108 648 OFFCURVE",
"98 636 OFFCURVE",
"98 622 CURVE SMOOTH",
"98 24 LINE SMOOTH",
"98 10 OFFCURVE",
"107 -1 OFFCURVE",
"119 -2 CURVE",
"538 -2 LINE"
);
},
{
closed = 1;
nodes = (
"483 38 LINE",
"483 -166 LINE SMOOTH",
"483 -180 OFFCURVE",
"493 -192 OFFCURVE",
"505 -192 CURVE SMOOTH",
"506 -192 LINE SMOOTH",
"518 -192 OFFCURVE",
"528 -180 OFFCURVE",
"528 -166 CURVE SMOOTH",
"528 38 LINE"
);
}
);
width = 657;
}
);
unicode = 1223;
},
{
glyphname = "szee-ethiopic";
lastChange = "2019-02-19 04:41:48 +0000";
layers = (
{
layerId = "A36D14D1-FF07-4574-A62D-30DF65569781";
paths = (
{
closed = 1;
nodes = (
"550 -1 OFFCURVE",
"559 10 OFFCURVE",
"559 24 CURVE SMOOTH",
"559 622 LINE SMOOTH",
"559 636 OFFCURVE",
"549 648 OFFCURVE",
"537 648 CURVE SMOOTH",
"504 648 LINE SMOOTH",
"492 648 OFFCURVE",
"482 636 OFFCURVE",
"482 622 CURVE SMOOTH",
"482 57 LINE SMOOTH",
"482 42 OFFCURVE",
"472 31 OFFCURVE",
"460 31 CURVE SMOOTH",
"380 31 LINE SMOOTH",
"367 31 OFFCURVE",
"358 42 OFFCURVE",
"358 57 CURVE SMOOTH",
"358 622 LINE SMOOTH",
"358 636 OFFCURVE",
"348 648 OFFCURVE",
"336 648 CURVE SMOOTH",
"322 648 LINE SMOOTH",
"310 648 OFFCURVE",
"300 636 OFFCURVE",
"300 622 CURVE SMOOTH",
"300 57 LINE SMOOTH",
"300 42 OFFCURVE",
"290 31 OFFCURVE",
"278 31 CURVE SMOOTH",
"201 31 LINE SMOOTH",
"189 31 OFFCURVE",
"179 42 OFFCURVE",
"179 57 CURVE SMOOTH",
"179 622 LINE SMOOTH",
"179 636 OFFCURVE",
"169 648 OFFCURVE",
"157 648 CURVE SMOOTH",
"120 648 LINE SMOOTH",
"108 648 OFFCURVE",
"98 636 OFFCURVE",
"98 622 CURVE SMOOTH",
"98 24 LINE SMOOTH",
"98 10 OFFCURVE",
"107 -1 OFFCURVE",
"119 -2 CURVE",
"538 -2 LINE"
);
},
{
closed = 1;
nodes = (
"565 -191 OFFCURVE",
"603 -143 OFFCURVE",
"603 -83 CURVE SMOOTH",
"603 -23 OFFCURVE",
"565 25 OFFCURVE",
"516 25 CURVE SMOOTH",
"466 25 OFFCURVE",
"429 -23 OFFCURVE",
"429 -83 CURVE SMOOTH",
"429 -143 OFFCURVE",
"466 -191 OFFCURVE",
"516 -191 CURVE SMOOTH"
);
},
{
closed = 1;
nodes = (
"485 -149 OFFCURVE",
"462 -121 OFFCURVE",
"462 -83 CURVE SMOOTH",
"462 -45 OFFCURVE",
"485 -17 OFFCURVE",
"516 -17 CURVE",
"547 -17 OFFCURVE",
"570 -45 OFFCURVE",
"570 -83 CURVE SMOOTH",
"570 -121 OFFCURVE",
"547 -149 OFFCURVE",
"516 -149 CURVE SMOOTH"
);
}
);
width = 657;
}
);
unicode = 1224;
},
{
glyphname = "sze-ethiopic";
lastChange = "2019-02-19 04:41:48 +0000";
layers = (
{
layerId = "A36D14D1-FF07-4574-A62D-30DF65569781";
paths = (
{
closed = 1;
nodes = (
"550 -1 OFFCURVE",
"559 10 OFFCURVE",
"559 24 CURVE SMOOTH",
"559 622 LINE SMOOTH",
"559 636 OFFCURVE",
"549 648 OFFCURVE",
"537 648 CURVE SMOOTH",
"504 648 LINE SMOOTH",
"492 648 OFFCURVE",
"482 636 OFFCURVE",
"482 622 CURVE SMOOTH",
"482 57 LINE SMOOTH",
"482 42 OFFCURVE",
"472 31 OFFCURVE",
"460 31 CURVE SMOOTH",
"380 31 LINE SMOOTH",
"367 31 OFFCURVE",
"358 42 OFFCURVE",
"358 57 CURVE SMOOTH",
"358 622 LINE SMOOTH",
"358 636 OFFCURVE",
"348 648 OFFCURVE",
"336 648 CURVE SMOOTH",
"322 648 LINE SMOOTH",
"310 648 OFFCURVE",
"300 636 OFFCURVE",
"300 622 CURVE SMOOTH",
"300 57 LINE SMOOTH",
"300 42 OFFCURVE",
"290 31 OFFCURVE",
"278 31 CURVE SMOOTH",
"201 31 LINE SMOOTH",
"189 31 OFFCURVE",
"179 42 OFFCURVE",
"179 57 CURVE SMOOTH",
"179 622 LINE SMOOTH",
"179 636 OFFCURVE",
"169 648 OFFCURVE",
"157 648 CURVE SMOOTH",
"120 648 LINE SMOOTH",
"108 648 OFFCURVE",
"98 636 OFFCURVE",
"98 622 CURVE SMOOTH",
"98 24 LINE SMOOTH",
"98 10 OFFCURVE",
"107 -1 OFFCURVE",
"119 -2 CURVE",
"538 -2 LINE"
);
},
{
closed = 1;
nodes = (
"98 48 LINE",
"98 -156 LINE SMOOTH",
"98 -170 OFFCURVE",
"108 -182 OFFCURVE",
"120 -182 CURVE SMOOTH",
"121 -182 LINE SMOOTH",
"133 -182 OFFCURVE",
"143 -170 OFFCURVE",
"143 -156 CURVE SMOOTH",
"143 48 LINE"
);
}
);
width = 657;
}
);
unicode = 1225;
},
{
glyphname = "szo-ethiopic";
lastChange = "2019-02-19 04:41:48 +0000";
layers = (
{
layerId = "A36D14D1-FF07-4574-A62D-30DF65569781";
paths = (
{
closed = 1;
nodes = (
"550 -1 OFFCURVE",
"559 10 OFFCURVE",
"559 24 CURVE SMOOTH",
"559 622 LINE SMOOTH",
"559 636 OFFCURVE",
"549 648 OFFCURVE",
"537 648 CURVE SMOOTH",
"504 648 LINE SMOOTH",
"492 648 OFFCURVE",
"482 636 OFFCURVE",
"482 622 CURVE SMOOTH",
"482 57 LINE SMOOTH",
"482 42 OFFCURVE",
"472 31 OFFCURVE",
"460 31 CURVE SMOOTH",
"380 31 LINE SMOOTH",
"367 31 OFFCURVE",
"358 42 OFFCURVE",
"358 57 CURVE SMOOTH",
"358 622 LINE SMOOTH",
"358 636 OFFCURVE",
"348 648 OFFCURVE",
"336 648 CURVE SMOOTH",
"322 648 LINE SMOOTH",
"310 648 OFFCURVE",
"300 636 OFFCURVE",
"300 622 CURVE SMOOTH",
"300 57 LINE SMOOTH",
"300 42 OFFCURVE",
"290 31 OFFCURVE",
"278 31 CURVE SMOOTH",
"201 31 LINE SMOOTH",
"189 31 OFFCURVE",
"179 42 OFFCURVE",
"179 57 CURVE SMOOTH",
"179 622 LINE SMOOTH",
"179 636 OFFCURVE",
"169 648 OFFCURVE",
"157 648 CURVE SMOOTH",
"120 648 LINE SMOOTH",
"108 648 OFFCURVE",
"98 636 OFFCURVE",
"98 622 CURVE SMOOTH",
"98 24 LINE SMOOTH",
"98 10 OFFCURVE",
"107 -1 OFFCURVE",
"119 -2 CURVE",
"538 -2 LINE"
);
},
{
closed = 1;
nodes = (
"312 44 LINE",
"312 -160 LINE SMOOTH",
"312 -175 OFFCURVE",
"322 -186 OFFCURVE",
"334 -186 CURVE SMOOTH",
"336 -186 LINE SMOOTH",
"348 -186 OFFCURVE",
"358 -175 OFFCURVE",
"358 -160 CURVE SMOOTH",
"358 44 LINE"
);
}
);
width = 657;
}
);
unicode = 1226;
},
{
glyphname = "szwa-ethiopic";
lastChange = "2019-02-19 04:41:48 +0000";
layers = (
{
layerId = "A36D14D1-FF07-4574-A62D-30DF65569781";
paths = (
{
closed = 1;
nodes = (
"550 -1 OFFCURVE",
"559 10 OFFCURVE",
"559 24 CURVE SMOOTH",
"559 622 LINE SMOOTH",
"559 636 OFFCURVE",
"549 648 OFFCURVE",
"537 648 CURVE SMOOTH",
"504 648 LINE SMOOTH",
"492 648 OFFCURVE",
"482 636 OFFCURVE",
"482 622 CURVE SMOOTH",
"482 57 LINE SMOOTH",
"482 42 OFFCURVE",
"472 31 OFFCURVE",
"460 31 CURVE SMOOTH",
"380 31 LINE SMOOTH",
"367 31 OFFCURVE",
"358 42 OFFCURVE",
"358 57 CURVE SMOOTH",
"358 622 LINE SMOOTH",
"358 636 OFFCURVE",
"348 648 OFFCURVE",
"336 648 CURVE SMOOTH",
"322 648 LINE SMOOTH",
"310 648 OFFCURVE",
"300 636 OFFCURVE",
"300 622 CURVE SMOOTH",
"300 57 LINE SMOOTH",
"300 42 OFFCURVE",
"290 31 OFFCURVE",
"278 31 CURVE SMOOTH",
"201 31 LINE SMOOTH",
"189 31 OFFCURVE",
"179 42 OFFCURVE",
"179 57 CURVE SMOOTH",
"179 622 LINE SMOOTH",
"179 636 OFFCURVE",
"169 648 OFFCURVE",
"157 648 CURVE SMOOTH",
"120 648 LINE SMOOTH",
"108 648 OFFCURVE",
"98 636 OFFCURVE",
"98 622 CURVE SMOOTH",
"98 24 LINE SMOOTH",
"98 10 OFFCURVE",
"107 -1 OFFCURVE",
"119 -2 CURVE",
"538 -2 LINE"
);
},
{
closed = 1;
nodes = (
"545 -160 LINE SMOOTH",
"545 -174 OFFCURVE",
"554 -186 OFFCURVE",
"567 -186 CURVE SMOOTH",
"568 -186 LINE SMOOTH",
"580 -186 OFFCURVE",
"590 -174 OFFCURVE",
"590 -160 CURVE SMOOTH",
"590 -17 LINE",
"545 -17 LINE"
);
},
{
closed = 1;
nodes = (
"590 -69 LINE",
"590 -15 LINE",
"433 -15 LINE",
"435 -69 LINE"
);
},
{
closed = 1;
nodes = (
"501 -30 LINE SMOOTH",
"501 -44 OFFCURVE",
"510 -56 OFFCURVE",
"523 -56 CURVE SMOOTH",
"524 -56 LINE SMOOTH",
"536 -56 OFFCURVE",
"546 -44 OFFCURVE",
"546 -30 CURVE SMOOTH",
"546 48 LINE",
"501 48 LINE"
);
}
);
width = 657;
}
);
unicode = 1227;
},
{
glyphname = "ra-ethiopic";
lastChange = "2019-02-19 04:41:48 +0000";
layers = (
{
layerId = "A36D14D1-FF07-4574-A62D-30DF65569781";
paths = (
{
closed = 1;
nodes = (
"450 99 LINE",
"450 77 LINE SMOOTH",
"450 63 OFFCURVE",
"440 51 OFFCURVE",
"428 51 CURVE SMOOTH",
"209 51 LINE SMOOTH",
"197 51 OFFCURVE",
"187 63 OFFCURVE",
"187 77 CURVE SMOOTH",
"187 622 LINE SMOOTH",
"187 636 OFFCURVE",
"177 648 OFFCURVE",
"165 648 CURVE SMOOTH",
"120 648 LINE SMOOTH",
"108 648 OFFCURVE",
"98 636 OFFCURVE",
"98 622 CURVE SMOOTH",
"98 64 LINE SMOOTH",
"98 27 OFFCURVE",
"122 -2 OFFCURVE",
"154 -2 CURVE SMOOTH",
"483 -2 LINE SMOOTH",
"515 -2 OFFCURVE",
"539 27 OFFCURVE",
"539 64 CURVE SMOOTH",
"539 97 LINE"
);
}
);
width = 560;
}
);
unicode = 1228;
},
{
glyphname = "ru-ethiopic";
lastChange = "2019-02-19 04:41:48 +0000";
layers = (
{
layerId = "A36D14D1-FF07-4574-A62D-30DF65569781";
paths = (
{
closed = 1;
nodes = (
"450 99 LINE",
"450 77 LINE SMOOTH",
"450 63 OFFCURVE",
"440 51 OFFCURVE",
"428 51 CURVE SMOOTH",
"209 51 LINE SMOOTH",
"197 51 OFFCURVE",
"187 63 OFFCURVE",
"187 77 CURVE SMOOTH",
"187 622 LINE SMOOTH",
"187 636 OFFCURVE",
"177 648 OFFCURVE",
"165 648 CURVE SMOOTH",
"120 648 LINE SMOOTH",
"108 648 OFFCURVE",
"98 636 OFFCURVE",
"98 622 CURVE SMOOTH",
"98 64 LINE SMOOTH",
"98 27 OFFCURVE",
"122 -2 OFFCURVE",
"154 -2 CURVE SMOOTH",
"483 -2 LINE SMOOTH",
"515 -2 OFFCURVE",
"539 27 OFFCURVE",
"539 64 CURVE SMOOTH",
"539 97 LINE"
);
},
{
closed = 1;
nodes = (
"329 38 LINE",
"329 -166 LINE SMOOTH",
"329 -180 OFFCURVE",
"339 -192 OFFCURVE",
"351 -192 CURVE SMOOTH",
"352 -192 LINE SMOOTH",
"364 -192 OFFCURVE",
"374 -180 OFFCURVE",
"374 -166 CURVE SMOOTH",
"374 38 LINE"
);
}
);
width = 560;
}
);
unicode = 1229;
},
{
glyphname = "ri-ethiopic";
lastChange = "2019-02-19 04:41:48 +0000";
layers = (
{
layerId = "A36D14D1-FF07-4574-A62D-30DF65569781";
paths = (
{
closed = 1;
nodes = (
"355 205 LINE",
"450 205 LINE",
"450 77 LINE SMOOTH",
"450 63 OFFCURVE",
"440 51 OFFCURVE",
"428 51 CURVE SMOOTH",
"209 51 LINE SMOOTH",
"197 51 OFFCURVE",
"187 63 OFFCURVE",
"187 77 CURVE SMOOTH",
"187 622 LINE SMOOTH",
"187 636 OFFCURVE",
"177 648 OFFCURVE",
"165 648 CURVE SMOOTH",
"120 648 LINE SMOOTH",
"108 648 OFFCURVE",
"98 636 OFFCURVE",
"98 622 CURVE SMOOTH",
"98 64 LINE SMOOTH",
"98 27 OFFCURVE",
"122 -2 OFFCURVE",
"154 -2 CURVE SMOOTH",
"483 -2 LINE SMOOTH",
"515 -2 OFFCURVE",
"539 27 OFFCURVE",
"539 64 CURVE SMOOTH",
"539 220 LINE SMOOTH",
"539 235 OFFCURVE",
"529 246 OFFCURVE",
"517 246 CURVE SMOOTH",
"355 246 LINE"
);
}
);
width = 564;
}
);
unicode = 122A;
},
{
glyphname = "raa-ethiopic";
lastChange = "2019-02-19 04:41:48 +0000";
layers = (
{
layerId = "A36D14D1-FF07-4574-A62D-30DF65569781";
paths = (
{
closed = 1;
nodes = (
"373 239 LINE SMOOTH",
"361 239 OFFCURVE",
"351 227 OFFCURVE",
"351 213 CURVE SMOOTH",
"351 77 LINE SMOOTH",
"351 63 OFFCURVE",
"341 51 OFFCURVE",
"329 51 CURVE SMOOTH",
"209 51 LINE SMOOTH",
"197 51 OFFCURVE",
"187 63 OFFCURVE",
"187 77 CURVE SMOOTH",
"187 622 LINE SMOOTH",
"187 636 OFFCURVE",
"177 648 OFFCURVE",
"165 648 CURVE SMOOTH",
"120 648 LINE SMOOTH",
"108 648 OFFCURVE",
"98 636 OFFCURVE",
"98 622 CURVE SMOOTH",
"98 64 LINE SMOOTH",
"98 27 OFFCURVE",
"122 -2 OFFCURVE",
"154 -2 CURVE SMOOTH",
"384 -2 LINE SMOOTH",
"416 -2 OFFCURVE",
"440 27 OFFCURVE",
"440 64 CURVE SMOOTH",
"440 181 LINE",
"534 181 LINE",
"534 239 LINE"
);
}
);
width = 560;
}
);
unicode = 122B;
},
{
glyphname = "ree-ethiopic";
lastChange = "2019-02-19 04:41:48 +0000";
layers = (
{
layerId = "A36D14D1-FF07-4574-A62D-30DF65569781";
paths = (
{
closed = 1;
nodes = (
"450 73 LINE",
"450 77 LINE SMOOTH",
"450 92 OFFCURVE",
"440 51 OFFCURVE",
"428 51 CURVE SMOOTH",
"209 51 LINE SMOOTH",
"197 51 OFFCURVE",
"187 63 OFFCURVE",
"187 77 CURVE SMOOTH",
"187 622 LINE SMOOTH",
"187 636 OFFCURVE",
"177 648 OFFCURVE",
"165 648 CURVE SMOOTH",
"120 648 LINE SMOOTH",
"108 648 OFFCURVE",
"98 636 OFFCURVE",
"98 622 CURVE SMOOTH",
"98 64 LINE SMOOTH",
"98 27 OFFCURVE",
"122 -2 OFFCURVE",
"154 -2 CURVE SMOOTH",
"483 -2 LINE SMOOTH",
"515 -2 OFFCURVE",
"539 27 OFFCURVE",
"539 64 CURVE SMOOTH",
"539 71 LINE"
);
},
{
closed = 1;
nodes = (
"512 41 OFFCURVE",
"549 89 OFFCURVE",
"549 149 CURVE SMOOTH",
"549 209 OFFCURVE",
"512 257 OFFCURVE",
"462 257 CURVE SMOOTH",
"413 257 OFFCURVE",
"375 209 OFFCURVE",
"375 149 CURVE SMOOTH",
"375 89 OFFCURVE",
"413 41 OFFCURVE",
"462 41 CURVE SMOOTH"
);
},
{
closed = 1;
nodes = (
"431 83 OFFCURVE",
"408 111 OFFCURVE",
"408 149 CURVE SMOOTH",
"408 187 OFFCURVE",
"431 215 OFFCURVE",
"462 215 CURVE SMOOTH",
"493 215 OFFCURVE",
"516 187 OFFCURVE",
"516 149 CURVE SMOOTH",
"516 111 OFFCURVE",
"493 83 OFFCURVE",
"462 83 CURVE SMOOTH"
);
}
);
width = 560;
}
);
unicode = 122C;
},
{
glyphname = "re-ethiopic";
lastChange = "2019-02-19 04:41:48 +0000";
layers = (
{
layerId = "A36D14D1-FF07-4574-A62D-30DF65569781";
paths = (
{
closed = 1;
nodes = (
"494 77 LINE SMOOTH",
"494 92 OFFCURVE",
"484 103 OFFCURVE",
"472 103 CURVE SMOOTH",
"165 103 LINE SMOOTH",
"153 103 OFFCURVE",
"143 115 OFFCURVE",
"143 129 CURVE SMOOTH",
"143 517 LINE SMOOTH",
"143 531 OFFCURVE",
"153 543 OFFCURVE",
"165 543 CURVE SMOOTH",
"469 543 LINE SMOOTH",
"481 543 OFFCURVE",
"491 554 OFFCURVE",
"491 569 CURVE SMOOTH",
"491 622 LINE SMOOTH",
"491 636 OFFCURVE",
"481 648 OFFCURVE",
"469 648 CURVE SMOOTH",
"154 648 LINE SMOOTH",
"122 648 OFFCURVE",
"98 619 OFFCURVE",
"98 582 CURVE SMOOTH",
"98 64 LINE SMOOTH",
"98 27 OFFCURVE",
"122 -2 OFFCURVE",
"154 -2 CURVE SMOOTH",
"472 -2 LINE SMOOTH",
"485 -2 OFFCURVE",
"495 10 OFFCURVE",
"495 25 CURVE SMOOTH"
);
}
);
width = 560;
}
);
unicode = 122D;
},
{
glyphname = "ro-ethiopic";
lastChange = "2019-02-19 04:41:48 +0000";
layers = (
{
layerId = "A36D14D1-FF07-4574-A62D-30DF65569781";
paths = (
{
closed = 1;
nodes = (
"494 77 LINE SMOOTH",
"494 92 OFFCURVE",
"484 103 OFFCURVE",
"472 103 CURVE SMOOTH",
"165 103 LINE SMOOTH",
"153 103 OFFCURVE",
"143 115 OFFCURVE",
"143 129 CURVE SMOOTH",
"143 517 LINE SMOOTH",
"143 531 OFFCURVE",
"153 543 OFFCURVE",
"165 543 CURVE SMOOTH",
"469 543 LINE SMOOTH",
"481 543 OFFCURVE",
"491 554 OFFCURVE",
"491 569 CURVE SMOOTH",
"491 622 LINE SMOOTH",
"491 636 OFFCURVE",
"481 648 OFFCURVE",
"469 648 CURVE SMOOTH",
"154 648 LINE SMOOTH",
"122 648 OFFCURVE",
"98 619 OFFCURVE",
"98 582 CURVE SMOOTH",
"98 64 LINE SMOOTH",
"98 27 OFFCURVE",
"122 -2 OFFCURVE",
"154 -2 CURVE SMOOTH",
"472 -2 LINE SMOOTH",
"485 -2 OFFCURVE",
"495 10 OFFCURVE",
"495 25 CURVE SMOOTH"
);
},
{
closed = 1;
nodes = (
"457 319 OFFCURVE",
"494 367 OFFCURVE",
"494 427 CURVE SMOOTH",
"494 487 OFFCURVE",
"457 535 OFFCURVE",
"407 535 CURVE SMOOTH",
"358 535 OFFCURVE",
"320 487 OFFCURVE",
"320 427 CURVE SMOOTH",
"320 367 OFFCURVE",
"358 319 OFFCURVE",
"407 319 CURVE SMOOTH"
);
},
{
closed = 1;
nodes = (
"376 361 OFFCURVE",
"353 389 OFFCURVE",
"353 427 CURVE SMOOTH",
"353 465 OFFCURVE",
"376 493 OFFCURVE",
"407 493 CURVE SMOOTH",
"438 493 OFFCURVE",
"461 465 OFFCURVE",
"461 427 CURVE SMOOTH",
"461 389 OFFCURVE",
"438 361 OFFCURVE",
"407 361 CURVE SMOOTH"
);
}
);
width = 560;
}
);
unicode = 122E;
},
{
glyphname = "rwa-ethiopic";
lastChange = "2019-02-25 04:47:25 +0000";
layers = (
{
layerId = "A36D14D1-FF07-4574-A62D-30DF65569781";
paths = (
{
closed = 1;
nodes = (
"259 699 LINE",
"67 699 LINE",
"67 646 LINE",
"258 646 LINE"
);
},
{
closed = 1;
nodes = (
"410.3 308.7 LINE SMOOTH",
"397.1 308.7 OFFCURVE",
"386.1 293.1 OFFCURVE",
"386.1 274.9 CURVE SMOOTH",
"386.1 98.1 LINE SMOOTH",
"386.1 79.9 OFFCURVE",
"375.1 64.3 OFFCURVE",
"361.9 64.3 CURVE SMOOTH",
"229.9 64.3 LINE SMOOTH",
"216.7 64.3 OFFCURVE",
"205.7 79.9 OFFCURVE",
"205.7 98.1 CURVE SMOOTH",
"206 667 LINE SMOOTH",
"206 685 OFFCURVE",
"195 700 OFFCURVE",
"182 700 CURVE SMOOTH",
"132 700 LINE SMOOTH",
"119 700 OFFCURVE",
"108 685 OFFCURVE",
"108 667 CURVE SMOOTH",
"107.8 81.2 LINE SMOOTH",
"108 33 OFFCURVE",
"134.2 -4.6 OFFCURVE",
"169.4 -4.6 CURVE SMOOTH",
"422.4 -4.6 LINE SMOOTH",
"457.6 -4.6 OFFCURVE",
"484 33.1 OFFCURVE",
"484 81.2 CURVE SMOOTH",
"484 233.3 LINE",
"587.4 233.3 LINE",
"587.4 308.7 LINE"
);
}
);
width = 560;
}
);
unicode = 122F;
},
{
glyphname = "sa-ethiopic";
lastChange = "2019-02-19 04:41:48 +0000";
layers = (
{
layerId = "A36D14D1-FF07-4574-A62D-30DF65569781";
paths = (
{
closed = 1;
nodes = (
"450 10 OFFCURVE",
"460 -2 OFFCURVE",
"472 -2 CURVE SMOOTH",
"517 -2 LINE SMOOTH",
"529 -2 OFFCURVE",
"539 10 OFFCURVE",
"539 24 CURVE SMOOTH",
"539 582 LINE SMOOTH",
"539 619 OFFCURVE",
"515 648 OFFCURVE",
"483 648 CURVE SMOOTH",
"154 648 LINE SMOOTH",
"122 648 OFFCURVE",
"98 619 OFFCURVE",
"98 582 CURVE SMOOTH",
"98 24 LINE SMOOTH",
"98 10 OFFCURVE",
"108 -2 OFFCURVE",
"120 -2 CURVE SMOOTH",
"165 -2 LINE SMOOTH",
"177 -2 OFFCURVE",
"187 10 OFFCURVE",
"187 24 CURVE SMOOTH",
"187 569 LINE SMOOTH",
"187 583 OFFCURVE",
"197 595 OFFCURVE",
"209 595 CURVE SMOOTH",
"428 595 LINE SMOOTH",
"440 595 OFFCURVE",
"450 583 OFFCURVE",
"450 569 CURVE SMOOTH",
"450 24 LINE SMOOTH"
);
},
{
closed = 1;
nodes = (
"343 764 LINE SMOOTH",
"343 778 OFFCURVE",
"333 790 OFFCURVE",
"321 790 CURVE SMOOTH",
"320 790 LINE SMOOTH",
"308 790 OFFCURVE",
"298 778 OFFCURVE",
"298 764 CURVE SMOOTH",
"298 610 LINE",
"343 610 LINE"
);
}
);
width = 637;
}
);
unicode = 1230;
},
{
glyphname = "su-ethiopic";
lastChange = "2019-02-19 04:41:48 +0000";
layers = (
{
components = (
{
name = _part.hoo;
transform = "{1.1, 0, 0, 1.3, 0, -2}";
}
);
layerId = "A36D14D1-FF07-4574-A62D-30DF65569781";
paths = (
{
closed = 1;
nodes = (
"450 10 OFFCURVE",
"460 -2 OFFCURVE",
"472 -2 CURVE SMOOTH",
"517 -2 LINE SMOOTH",
"529 -2 OFFCURVE",
"539 10 OFFCURVE",
"539 24 CURVE SMOOTH",
"539 582 LINE SMOOTH",
"539 619 OFFCURVE",
"515 648 OFFCURVE",
"483 648 CURVE SMOOTH",
"154 648 LINE SMOOTH",
"122 648 OFFCURVE",
"98 619 OFFCURVE",
"98 582 CURVE SMOOTH",
"98 24 LINE SMOOTH",
"98 10 OFFCURVE",
"108 -2 OFFCURVE",
"120 -2 CURVE SMOOTH",
"165 -2 LINE SMOOTH",
"177 -2 OFFCURVE",
"187 10 OFFCURVE",
"187 24 CURVE SMOOTH",
"187 569 LINE SMOOTH",
"187 583 OFFCURVE",
"197 595 OFFCURVE",
"209 595 CURVE SMOOTH",
"428 595 LINE SMOOTH",
"440 595 OFFCURVE",
"450 583 OFFCURVE",
"450 569 CURVE SMOOTH",
"450 24 LINE SMOOTH"
);
},
{
closed = 1;
nodes = (
"343 764 LINE SMOOTH",
"343 778 OFFCURVE",
"333 790 OFFCURVE",
"321 790 CURVE SMOOTH",
"320 790 LINE SMOOTH",
"308 790 OFFCURVE",
"298 778 OFFCURVE",
"298 764 CURVE SMOOTH",
"298 610 LINE",
"343 610 LINE"
);
}
);
width = 637;
}
);
unicode = 1231;
},
{
glyphname = "si-ethiopic";
lastChange = "2019-02-19 04:41:48 +0000";
layers = (
{
layerId = "A36D14D1-FF07-4574-A62D-30DF65569781";
paths = (
{
closed = 1;
nodes = (
"450 10 OFFCURVE",
"460 -2 OFFCURVE",
"472 -2 CURVE SMOOTH",
"517 -2 LINE SMOOTH",
"529 -2 OFFCURVE",
"539 10 OFFCURVE",
"539 24 CURVE SMOOTH",
"539 582 LINE SMOOTH",
"539 619 OFFCURVE",
"515 648 OFFCURVE",
"483 648 CURVE SMOOTH",
"154 648 LINE SMOOTH",
"122 648 OFFCURVE",
"98 619 OFFCURVE",
"98 582 CURVE SMOOTH",
"98 24 LINE SMOOTH",
"98 10 OFFCURVE",
"108 -2 OFFCURVE",
"120 -2 CURVE SMOOTH",
"165 -2 LINE SMOOTH",
"177 -2 OFFCURVE",
"187 10 OFFCURVE",
"187 24 CURVE SMOOTH",
"187 569 LINE SMOOTH",
"187 583 OFFCURVE",
"197 595 OFFCURVE",
"209 595 CURVE SMOOTH",
"428 595 LINE SMOOTH",
"440 595 OFFCURVE",
"450 583 OFFCURVE",
"450 569 CURVE SMOOTH",
"450 24 LINE SMOOTH"
);
},
{
closed = 1;
nodes = (
"343 764 LINE SMOOTH",
"343 778 OFFCURVE",
"333 790 OFFCURVE",
"321 790 CURVE SMOOTH",
"320 790 LINE SMOOTH",
"308 790 OFFCURVE",
"298 778 OFFCURVE",
"298 764 CURVE SMOOTH",
"298 610 LINE",
"343 610 LINE"
);
},
{
closed = 1;
nodes = (
"453 -173 LINE",
"574 -173 LINE SMOOTH",
"586 -173 OFFCURVE",
"596 -161 OFFCURVE",
"596 -147 CURVE SMOOTH",
"596 -145 LINE SMOOTH",
"596 -131 OFFCURVE",
"586 -119 OFFCURVE",
"574 -119 CURVE SMOOTH",
"453 -119 LINE"
);
},
{
closed = 1;
nodes = (
"452 12 LINE",
"452 -173 LINE",
"497 -173 LINE",
"497 11 LINE"
);
}
);
width = 637;
}
);
unicode = 1232;
},
{
glyphname = "saa-ethiopic";
lastChange = "2019-02-19 04:41:48 +0000";
layers = (
{
layerId = "A36D14D1-FF07-4574-A62D-30DF65569781";
paths = (
{
closed = 1;
nodes = (
"450 10 OFFCURVE",
"460 -2 OFFCURVE",
"472 -2 CURVE SMOOTH",
"517 -2 LINE SMOOTH",
"529 -2 OFFCURVE",
"539 10 OFFCURVE",
"539 24 CURVE SMOOTH",
"539 582 LINE SMOOTH",
"539 619 OFFCURVE",
"515 648 OFFCURVE",
"483 648 CURVE SMOOTH",
"154 648 LINE SMOOTH",
"122 648 OFFCURVE",
"98 619 OFFCURVE",
"98 582 CURVE SMOOTH",
"98 24 LINE SMOOTH",
"98 10 OFFCURVE",
"108 -2 OFFCURVE",
"120 -2 CURVE SMOOTH",
"165 -2 LINE SMOOTH",
"177 -2 OFFCURVE",
"187 10 OFFCURVE",
"187 24 CURVE SMOOTH",
"187 569 LINE SMOOTH",
"187 583 OFFCURVE",
"197 595 OFFCURVE",
"209 595 CURVE SMOOTH",
"428 595 LINE SMOOTH",
"440 595 OFFCURVE",
"450 583 OFFCURVE",
"450 569 CURVE SMOOTH",
"450 24 LINE SMOOTH"
);
},
{
closed = 1;
nodes = (
"343 764 LINE SMOOTH",
"343 778 OFFCURVE",
"333 790 OFFCURVE",
"321 790 CURVE SMOOTH",
"320 790 LINE SMOOTH",
"308 790 OFFCURVE",
"298 778 OFFCURVE",
"298 764 CURVE SMOOTH",
"298 610 LINE",
"343 610 LINE"
);
},
{
closed = 1;
nodes = (
"461 48 LINE",
"461 -156 LINE SMOOTH",
"461 -170 OFFCURVE",
"471 -182 OFFCURVE",
"483 -182 CURVE SMOOTH",
"484 -182 LINE SMOOTH",
"496 -182 OFFCURVE",
"506 -170 OFFCURVE",
"506 -156 CURVE SMOOTH",
"506 48 LINE"
);
}
);
width = 637;
}
);
unicode = 1233;
},
{
glyphname = "see-ethiopic";
lastChange = "2019-02-19 04:41:48 +0000";
layers = (
{
layerId = "A36D14D1-FF07-4574-A62D-30DF65569781";
paths = (
{
closed = 1;
nodes = (
"450 10 OFFCURVE",
"460 -2 OFFCURVE",
"472 -2 CURVE SMOOTH",
"517 -2 LINE SMOOTH",
"529 -2 OFFCURVE",
"539 10 OFFCURVE",
"539 24 CURVE SMOOTH",
"539 582 LINE SMOOTH",
"539 619 OFFCURVE",
"515 648 OFFCURVE",
"483 648 CURVE SMOOTH",
"154 648 LINE SMOOTH",
"122 648 OFFCURVE",
"98 619 OFFCURVE",
"98 582 CURVE SMOOTH",
"98 24 LINE SMOOTH",
"98 10 OFFCURVE",
"108 -2 OFFCURVE",
"120 -2 CURVE SMOOTH",
"165 -2 LINE SMOOTH",
"177 -2 OFFCURVE",
"187 10 OFFCURVE",
"187 24 CURVE SMOOTH",
"187 569 LINE SMOOTH",
"187 583 OFFCURVE",
"197 595 OFFCURVE",
"209 595 CURVE SMOOTH",
"428 595 LINE SMOOTH",
"440 595 OFFCURVE",
"450 583 OFFCURVE",
"450 569 CURVE SMOOTH",
"450 24 LINE SMOOTH"
);
},
{
closed = 1;
nodes = (
"343 764 LINE SMOOTH",
"343 778 OFFCURVE",
"333 790 OFFCURVE",
"321 790 CURVE SMOOTH",
"320 790 LINE SMOOTH",
"308 790 OFFCURVE",
"298 778 OFFCURVE",
"298 764 CURVE SMOOTH",
"298 610 LINE",
"343 610 LINE"
);
},
{
closed = 1;
nodes = (
"501 -200 OFFCURVE",
"538 -152 OFFCURVE",
"538 -92 CURVE",
"538 -32 OFFCURVE",
"501 16 OFFCURVE",
"451 16 CURVE SMOOTH",
"402 16 OFFCURVE",
"364 -32 OFFCURVE",
"364 -92 CURVE SMOOTH",
"364 -152 OFFCURVE",
"402 -200 OFFCURVE",
"451 -200 CURVE SMOOTH"
);
},
{
closed = 1;
nodes = (
"420 -158 OFFCURVE",
"397 -130 OFFCURVE",
"397 -92 CURVE SMOOTH",
"397 -54 OFFCURVE",
"420 -26 OFFCURVE",
"451 -26 CURVE SMOOTH",
"482 -26 OFFCURVE",
"505 -54 OFFCURVE",
"505 -92 CURVE SMOOTH",
"505 -130 OFFCURVE",
"482 -158 OFFCURVE",
"451 -158 CURVE SMOOTH"
);
}
);
width = 637;
}
);
unicode = 1234;
},
{
glyphname = "se-ethiopic";
lastChange = "2019-02-19 04:41:48 +0000";
layers = (
{
layerId = "A36D14D1-FF07-4574-A62D-30DF65569781";
paths = (
{
closed = 1;
nodes = (
"450 10 OFFCURVE",
"460 -2 OFFCURVE",
"472 -2 CURVE SMOOTH",
"517 -2 LINE SMOOTH",
"529 -2 OFFCURVE",
"539 10 OFFCURVE",
"539 24 CURVE SMOOTH",
"539 582 LINE SMOOTH",
"539 619 OFFCURVE",
"515 648 OFFCURVE",
"483 648 CURVE SMOOTH",
"154 648 LINE SMOOTH",
"122 648 OFFCURVE",
"98 619 OFFCURVE",
"98 582 CURVE SMOOTH",
"98 24 LINE SMOOTH",
"98 10 OFFCURVE",
"108 -2 OFFCURVE",
"120 -2 CURVE SMOOTH",
"165 -2 LINE SMOOTH",
"177 -2 OFFCURVE",
"187 10 OFFCURVE",
"187 24 CURVE SMOOTH",
"187 569 LINE SMOOTH",
"187 583 OFFCURVE",
"197 595 OFFCURVE",
"209 595 CURVE SMOOTH",
"428 595 LINE SMOOTH",
"440 595 OFFCURVE",
"450 583 OFFCURVE",
"450 569 CURVE SMOOTH",
"450 24 LINE SMOOTH"
);
},
{
closed = 1;
nodes = (
"250 781 LINE SMOOTH",
"242 793 OFFCURVE",
"229 796 OFFCURVE",
"219 786 CURVE SMOOTH",
"218 785 LINE SMOOTH",
"208 775 OFFCURVE",
"206 761 OFFCURVE",
"213 750 CURVE SMOOTH",
"315 601 LINE",
"351 616 LINE"
);
}
);
width = 637;
}
);
unicode = 1235;
},
{
glyphname = "so-ethiopic";
lastChange = "2019-02-19 04:41:48 +0000";
layers = (
{
layerId = "A36D14D1-FF07-4574-A62D-30DF65569781";
paths = (
{
closed = 1;
nodes = (
"450 10 OFFCURVE",
"460 -2 OFFCURVE",
"472 -2 CURVE SMOOTH",
"517 -2 LINE SMOOTH",
"529 -2 OFFCURVE",
"539 10 OFFCURVE",
"539 24 CURVE SMOOTH",
"539 582 LINE SMOOTH",
"539 619 OFFCURVE",
"515 648 OFFCURVE",
"483 648 CURVE SMOOTH",
"154 648 LINE SMOOTH",
"122 648 OFFCURVE",
"98 619 OFFCURVE",
"98 582 CURVE SMOOTH",
"98 24 LINE SMOOTH",
"98 10 OFFCURVE",
"108 -2 OFFCURVE",
"120 -2 CURVE SMOOTH",
"165 -2 LINE SMOOTH",
"177 -2 OFFCURVE",
"187 10 OFFCURVE",
"187 24 CURVE SMOOTH",
"187 569 LINE SMOOTH",
"187 583 OFFCURVE",
"197 595 OFFCURVE",
"209 595 CURVE SMOOTH",
"428 595 LINE SMOOTH",
"440 595 OFFCURVE",
"450 583 OFFCURVE",
"450 569 CURVE SMOOTH",
"450 24 LINE SMOOTH"
);
},
{
closed = 1;
nodes = (
"343 774 LINE SMOOTH",
"343 788 OFFCURVE",
"333 800 OFFCURVE",
"321 800 CURVE SMOOTH",
"320 800 LINE SMOOTH",
"308 800 OFFCURVE",
"298 788 OFFCURVE",
"298 774 CURVE SMOOTH",
"298 620 LINE",
"343 620 LINE"
);
},
{
closed = 1;
nodes = (
"98 38 LINE",
"98 -166 LINE SMOOTH",
"98 -180 OFFCURVE",
"108 -192 OFFCURVE",
"120 -192 CURVE SMOOTH",
"121 -192 LINE SMOOTH",
"133 -192 OFFCURVE",
"143 -180 OFFCURVE",
"143 -166 CURVE SMOOTH",
"143 38 LINE"
);
}
);
width = 637;
}
);
unicode = 1236;
},
{
glyphname = "swa-ethiopic";
lastChange = "2019-02-19 04:41:48 +0000";
layers = (
{
layerId = "A36D14D1-FF07-4574-A62D-30DF65569781";
paths = (
{
closed = 1;
nodes = (
"450 10 OFFCURVE",
"460 -2 OFFCURVE",
"472 -2 CURVE SMOOTH",
"517 -2 LINE SMOOTH",
"529 -2 OFFCURVE",
"539 10 OFFCURVE",
"539 24 CURVE SMOOTH",
"539 582 LINE SMOOTH",
"539 619 OFFCURVE",
"515 648 OFFCURVE",
"483 648 CURVE SMOOTH",
"154 648 LINE SMOOTH",
"122 648 OFFCURVE",
"98 619 OFFCURVE",
"98 582 CURVE SMOOTH",
"98 24 LINE SMOOTH",
"98 10 OFFCURVE",
"108 -2 OFFCURVE",
"120 -2 CURVE SMOOTH",
"165 -2 LINE SMOOTH",
"177 -2 OFFCURVE",
"187 10 OFFCURVE",
"187 24 CURVE SMOOTH",
"187 569 LINE SMOOTH",
"187 583 OFFCURVE",
"197 595 OFFCURVE",
"209 595 CURVE SMOOTH",
"428 595 LINE SMOOTH",
"440 595 OFFCURVE",
"450 583 OFFCURVE",
"450 569 CURVE SMOOTH",
"450 24 LINE SMOOTH"
);
},
{
closed = 1;
nodes = (
"343 754 LINE SMOOTH",
"343 768 OFFCURVE",
"333 780 OFFCURVE",
"321 780 CURVE SMOOTH",
"320 780 LINE SMOOTH",
"308 780 OFFCURVE",
"298 768 OFFCURVE",
"298 754 CURVE SMOOTH",
"298 610 LINE",
"343 610 LINE"
);
},
{
closed = 1;
nodes = (
"501 -170 LINE SMOOTH",
"501 -184 OFFCURVE",
"510 -196 OFFCURVE",
"523 -196 CURVE SMOOTH",
"524 -196 LINE SMOOTH",
"536 -196 OFFCURVE",
"546 -184 OFFCURVE",
"546 -170 CURVE SMOOTH",
"546 -27 LINE",
"501 -27 LINE"
);
},
{
closed = 1;
nodes = (
"546 -79 LINE",
"546 -25 LINE",
"389 -25 LINE",
"391 -79 LINE"
);
},
{
closed = 1;
nodes = (
"457 -50 LINE SMOOTH",
"457 -64 OFFCURVE",
"466 -76 OFFCURVE",
"479 -76 CURVE SMOOTH",
"480 -76 LINE SMOOTH",
"492 -76 OFFCURVE",
"502 -64 OFFCURVE",
"502 -50 CURVE SMOOTH",
"502 28 LINE",
"457 28 LINE"
);
}
);
width = 637;
}
);
unicode = 1237;
},
{
glyphname = "sha-ethiopic";
lastChange = "2019-02-19 04:41:48 +0000";
layers = (
{
layerId = "A36D14D1-FF07-4574-A62D-30DF65569781";
paths = (
{
closed = 1;
nodes = (
"199 754 LINE",
"457 754 LINE",
"457 788 LINE",
"199 788 LINE"
);
},
{
closed = 1;
nodes = (
"450 10 OFFCURVE",
"460 -2 OFFCURVE",
"472 -2 CURVE SMOOTH",
"517 -2 LINE SMOOTH",
"529 -2 OFFCURVE",
"539 10 OFFCURVE",
"539 24 CURVE SMOOTH",
"539 582 LINE SMOOTH",
"539 619 OFFCURVE",
"515 648 OFFCURVE",
"483 648 CURVE SMOOTH",
"154 648 LINE SMOOTH",
"122 648 OFFCURVE",
"98 619 OFFCURVE",
"98 582 CURVE SMOOTH",
"98 24 LINE SMOOTH",
"98 10 OFFCURVE",
"108 -2 OFFCURVE",
"120 -2 CURVE SMOOTH",
"165 -2 LINE SMOOTH",
"177 -2 OFFCURVE",
"187 10 OFFCURVE",
"187 24 CURVE SMOOTH",
"187 569 LINE SMOOTH",
"187 583 OFFCURVE",
"197 595 OFFCURVE",
"209 595 CURVE SMOOTH",
"428 595 LINE SMOOTH",
"440 595 OFFCURVE",
"450 583 OFFCURVE",
"450 569 CURVE SMOOTH",
"450 24 LINE SMOOTH"
);
},
{
closed = 1;
nodes = (
"343 744 LINE SMOOTH",
"343 758 OFFCURVE",
"333 770 OFFCURVE",
"321 770 CURVE SMOOTH",
"320 770 LINE SMOOTH",
"308 770 OFFCURVE",
"298 758 OFFCURVE",
"298 744 CURVE SMOOTH",
"298 660 LINE",
"343 660 LINE"
);
},
{
closed = 1;
nodes = (
"343 724 LINE SMOOTH",
"343 738 OFFCURVE",
"333 750 OFFCURVE",
"321 750 CURVE SMOOTH",
"320 750 LINE SMOOTH",
"308 750 OFFCURVE",
"298 738 OFFCURVE",
"298 724 CURVE SMOOTH",
"298 640 LINE",
"343 640 LINE"
);
}
);
width = 637;
}
);
unicode = 1238;
},
{
glyphname = "shu-ethiopic";
lastChange = "2019-02-19 04:41:48 +0000";
layers = (
{
components = (
{
name = _part.hoo;
transform = "{1.1, 0, 0, 1.3, 0, -2}";
}
);
layerId = "A36D14D1-FF07-4574-A62D-30DF65569781";
paths = (
{
closed = 1;
nodes = (
"199 754 LINE",
"457 754 LINE",
"457 788 LINE",
"199 788 LINE"
);
},
{
closed = 1;
nodes = (
"450 10 OFFCURVE",
"460 -2 OFFCURVE",
"472 -2 CURVE SMOOTH",
"517 -2 LINE SMOOTH",
"529 -2 OFFCURVE",
"539 10 OFFCURVE",
"539 24 CURVE SMOOTH",
"539 582 LINE SMOOTH",
"539 619 OFFCURVE",
"515 648 OFFCURVE",
"483 648 CURVE SMOOTH",
"154 648 LINE SMOOTH",
"122 648 OFFCURVE",
"98 619 OFFCURVE",
"98 582 CURVE SMOOTH",
"98 24 LINE SMOOTH",
"98 10 OFFCURVE",
"108 -2 OFFCURVE",
"120 -2 CURVE SMOOTH",
"165 -2 LINE SMOOTH",
"177 -2 OFFCURVE",
"187 10 OFFCURVE",
"187 24 CURVE SMOOTH",
"187 569 LINE SMOOTH",
"187 583 OFFCURVE",
"197 595 OFFCURVE",
"209 595 CURVE SMOOTH",
"428 595 LINE SMOOTH",
"440 595 OFFCURVE",
"450 583 OFFCURVE",
"450 569 CURVE SMOOTH",
"450 24 LINE SMOOTH"
);
},
{
closed = 1;
nodes = (
"343 744 LINE SMOOTH",
"343 758 OFFCURVE",
"333 770 OFFCURVE",
"321 770 CURVE SMOOTH",
"320 770 LINE SMOOTH",
"308 770 OFFCURVE",
"298 758 OFFCURVE",
"298 744 CURVE SMOOTH",
"298 660 LINE",
"343 660 LINE"
);
},
{
closed = 1;
nodes = (
"343 724 LINE SMOOTH",
"343 738 OFFCURVE",
"333 750 OFFCURVE",
"321 750 CURVE SMOOTH",
"320 750 LINE SMOOTH",
"308 750 OFFCURVE",
"298 738 OFFCURVE",
"298 724 CURVE SMOOTH",
"298 640 LINE",
"343 640 LINE"
);
}
);
width = 637;
}
);
unicode = 1239;
},
{
glyphname = "shi-ethiopic";
lastChange = "2019-02-19 04:41:48 +0000";
layers = (
{
layerId = "A36D14D1-FF07-4574-A62D-30DF65569781";
paths = (
{
closed = 1;
nodes = (
"199 754 LINE",
"457 754 LINE",
"457 788 LINE",
"199 788 LINE"
);
},
{
closed = 1;
nodes = (
"450 10 OFFCURVE",
"460 -2 OFFCURVE",
"472 -2 CURVE SMOOTH",
"517 -2 LINE SMOOTH",
"529 -2 OFFCURVE",
"539 10 OFFCURVE",
"539 24 CURVE SMOOTH",
"539 582 LINE SMOOTH",
"539 619 OFFCURVE",
"515 648 OFFCURVE",
"483 648 CURVE SMOOTH",
"154 648 LINE SMOOTH",
"122 648 OFFCURVE",
"98 619 OFFCURVE",
"98 582 CURVE SMOOTH",
"98 24 LINE SMOOTH",
"98 10 OFFCURVE",
"108 -2 OFFCURVE",
"120 -2 CURVE SMOOTH",
"165 -2 LINE SMOOTH",
"177 -2 OFFCURVE",
"187 10 OFFCURVE",
"187 24 CURVE SMOOTH",
"187 569 LINE SMOOTH",
"187 583 OFFCURVE",
"197 595 OFFCURVE",
"209 595 CURVE SMOOTH",
"428 595 LINE SMOOTH",
"440 595 OFFCURVE",
"450 583 OFFCURVE",
"450 569 CURVE SMOOTH",
"450 24 LINE SMOOTH"
);
},
{
closed = 1;
nodes = (
"343 744 LINE SMOOTH",
"343 758 OFFCURVE",
"333 770 OFFCURVE",
"321 770 CURVE SMOOTH",
"320 770 LINE SMOOTH",
"308 770 OFFCURVE",
"298 758 OFFCURVE",
"298 744 CURVE SMOOTH",
"298 630 LINE",
"343 630 LINE"
);
},
{
closed = 1;
nodes = (
"343 744 LINE SMOOTH",
"343 758 OFFCURVE",
"333 770 OFFCURVE",
"321 770 CURVE SMOOTH",
"320 770 LINE SMOOTH",
"308 770 OFFCURVE",
"298 758 OFFCURVE",
"298 744 CURVE SMOOTH",
"298 630 LINE",
"343 630 LINE"
);
},
{
closed = 1;
nodes = (
"453 -213 LINE",
"574 -213 LINE SMOOTH",
"586 -213 OFFCURVE",
"596 -201 OFFCURVE",
"596 -187 CURVE SMOOTH",
"596 -185 LINE SMOOTH",
"596 -171 OFFCURVE",
"586 -159 OFFCURVE",
"574 -159 CURVE SMOOTH",
"453 -159 LINE"
);
},
{
closed = 1;
nodes = (
"452 -28 LINE",
"452 -213 LINE",
"497 -213 LINE",
"497 -29 LINE"
);
}
);
width = 637;
}
);
unicode = 123A;
},
{
glyphname = "shaa-ethiopic";
lastChange = "2019-02-19 04:41:48 +0000";
layers = (
{
layerId = "A36D14D1-FF07-4574-A62D-30DF65569781";
paths = (
{
closed = 1;
nodes = (
"199 754 LINE",
"457 754 LINE",
"457 788 LINE",
"199 788 LINE"
);
},
{
closed = 1;
nodes = (
"450 10 OFFCURVE",
"460 -2 OFFCURVE",
"472 -2 CURVE SMOOTH",
"517 -2 LINE SMOOTH",
"529 -2 OFFCURVE",
"539 10 OFFCURVE",
"539 24 CURVE SMOOTH",
"539 582 LINE SMOOTH",
"539 619 OFFCURVE",
"515 648 OFFCURVE",
"483 648 CURVE SMOOTH",
"154 648 LINE SMOOTH",
"122 648 OFFCURVE",
"98 619 OFFCURVE",
"98 582 CURVE SMOOTH",
"98 24 LINE SMOOTH",
"98 10 OFFCURVE",
"108 -2 OFFCURVE",
"120 -2 CURVE SMOOTH",
"165 -2 LINE SMOOTH",
"177 -2 OFFCURVE",
"187 10 OFFCURVE",
"187 24 CURVE SMOOTH",
"187 569 LINE SMOOTH",
"187 583 OFFCURVE",
"197 595 OFFCURVE",
"209 595 CURVE SMOOTH",
"428 595 LINE SMOOTH",
"440 595 OFFCURVE",
"450 583 OFFCURVE",
"450 569 CURVE SMOOTH",
"450 24 LINE SMOOTH"
);
},
{
closed = 1;
nodes = (
"343 744 LINE SMOOTH",
"343 758 OFFCURVE",
"333 770 OFFCURVE",
"321 770 CURVE SMOOTH",
"320 770 LINE SMOOTH",
"308 770 OFFCURVE",
"298 758 OFFCURVE",
"298 744 CURVE SMOOTH",
"298 630 LINE",
"343 630 LINE"
);
},
{
closed = 1;
nodes = (
"343 744 LINE SMOOTH",
"343 758 OFFCURVE",
"333 770 OFFCURVE",
"321 770 CURVE SMOOTH",
"320 770 LINE SMOOTH",
"308 770 OFFCURVE",
"298 758 OFFCURVE",
"298 744 CURVE SMOOTH",
"298 630 LINE",
"343 630 LINE"
);
},
{
closed = 1;
nodes = (
"461 48 LINE",
"461 -156 LINE SMOOTH",
"461 -170 OFFCURVE",
"471 -182 OFFCURVE",
"483 -182 CURVE SMOOTH",
"484 -182 LINE SMOOTH",
"496 -182 OFFCURVE",
"506 -170 OFFCURVE",
"506 -156 CURVE SMOOTH",
"506 48 LINE"
);
}
);
width = 637;
}
);
unicode = 123B;
},
{
glyphname = "shee-ethiopic";
lastChange = "2019-02-19 04:41:48 +0000";
layers = (
{
layerId = "A36D14D1-FF07-4574-A62D-30DF65569781";
paths = (
{
closed = 1;
nodes = (
"199 764 LINE",
"457 764 LINE",
"457 798 LINE",
"199 798 LINE"
);
},
{
closed = 1;
nodes = (
"450 10 OFFCURVE",
"460 -2 OFFCURVE",
"472 -2 CURVE SMOOTH",
"517 -2 LINE SMOOTH",
"529 -2 OFFCURVE",
"539 10 OFFCURVE",
"539 24 CURVE SMOOTH",
"539 582 LINE SMOOTH",
"539 619 OFFCURVE",
"515 648 OFFCURVE",
"483 648 CURVE SMOOTH",
"154 648 LINE SMOOTH",
"122 648 OFFCURVE",
"98 619 OFFCURVE",
"98 582 CURVE SMOOTH",
"98 24 LINE SMOOTH",
"98 10 OFFCURVE",
"108 -2 OFFCURVE",
"120 -2 CURVE SMOOTH",
"165 -2 LINE SMOOTH",
"177 -2 OFFCURVE",
"187 10 OFFCURVE",
"187 24 CURVE SMOOTH",
"187 569 LINE SMOOTH",
"187 583 OFFCURVE",
"197 595 OFFCURVE",
"209 595 CURVE SMOOTH",
"428 595 LINE SMOOTH",
"440 595 OFFCURVE",
"450 583 OFFCURVE",
"450 569 CURVE SMOOTH",
"450 24 LINE SMOOTH"
);
},
{
closed = 1;
nodes = (
"343 754 LINE SMOOTH",
"343 768 OFFCURVE",
"333 780 OFFCURVE",
"321 780 CURVE SMOOTH",
"320 780 LINE SMOOTH",
"308 780 OFFCURVE",
"298 768 OFFCURVE",
"298 754 CURVE SMOOTH",
"298 630 LINE",
"343 630 LINE"
);
},
{
closed = 1;
nodes = (
"343 754 LINE SMOOTH",
"343 768 OFFCURVE",
"333 780 OFFCURVE",
"321 780 CURVE SMOOTH",
"320 780 LINE SMOOTH",
"308 780 OFFCURVE",
"298 768 OFFCURVE",
"298 754 CURVE SMOOTH",
"298 630 LINE",
"343 630 LINE"
);
},
{
closed = 1;
nodes = (
"562 -200 OFFCURVE",
"600 -152 OFFCURVE",
"600 -92 CURVE SMOOTH",
"600 -32 OFFCURVE",
"562 16 OFFCURVE",
"513 16 CURVE SMOOTH",
"463 16 OFFCURVE",
"426 -32 OFFCURVE",
"426 -92 CURVE SMOOTH",
"426 -152 OFFCURVE",
"463 -200 OFFCURVE",
"513 -200 CURVE SMOOTH"
);
},
{
closed = 1;
nodes = (
"482 -158 OFFCURVE",
"459 -130 OFFCURVE",
"459 -92 CURVE SMOOTH",
"459 -54 OFFCURVE",
"482 -26 OFFCURVE",
"513 -26 CURVE SMOOTH",
"543 -26 OFFCURVE",
"567 -54 OFFCURVE",
"567 -92 CURVE SMOOTH",
"567 -130 OFFCURVE",
"543 -158 OFFCURVE",
"513 -158 CURVE SMOOTH"
);
}
);
width = 637;
}
);
unicode = 123C;
},
{
glyphname = "she-ethiopic";
lastChange = "2019-02-19 04:41:48 +0000";
layers = (
{
layerId = "A36D14D1-FF07-4574-A62D-30DF65569781";
paths = (
{
closed = 1;
nodes = (
"122 759 LINE",
"380 759 LINE",
"380 793 LINE",
"122 793 LINE"
);
},
{
closed = 1;
nodes = (
"450 10 OFFCURVE",
"460 -2 OFFCURVE",
"472 -2 CURVE SMOOTH",
"517 -2 LINE SMOOTH",
"529 -2 OFFCURVE",
"539 10 OFFCURVE",
"539 24 CURVE SMOOTH",
"539 582 LINE SMOOTH",
"539 619 OFFCURVE",
"515 648 OFFCURVE",
"483 648 CURVE SMOOTH",
"154 648 LINE SMOOTH",
"122 648 OFFCURVE",
"98 619 OFFCURVE",
"98 582 CURVE SMOOTH",
"98 24 LINE SMOOTH",
"98 10 OFFCURVE",
"108 -2 OFFCURVE",
"120 -2 CURVE SMOOTH",
"165 -2 LINE SMOOTH",
"177 -2 OFFCURVE",
"187 10 OFFCURVE",
"187 24 CURVE SMOOTH",
"187 569 LINE SMOOTH",
"187 583 OFFCURVE",
"197 595 OFFCURVE",
"209 595 CURVE SMOOTH",
"428 595 LINE SMOOTH",
"440 595 OFFCURVE",
"450 583 OFFCURVE",
"450 569 CURVE SMOOTH",
"450 24 LINE SMOOTH"
);
},
{
closed = 1;
nodes = (
"250 771 LINE SMOOTH",
"242 783 OFFCURVE",
"229 786 OFFCURVE",
"219 776 CURVE SMOOTH",
"218 775 LINE SMOOTH",
"208 765 OFFCURVE",
"205 752 OFFCURVE",
"213 740 CURVE SMOOTH",
"315 598 LINE",
"351 616 LINE"
);
}
);
width = 637;
}
);
unicode = 123D;
},
{
glyphname = "sho-ethiopic";
lastChange = "2019-02-19 04:41:48 +0000";
layers = (
{
layerId = "A36D14D1-FF07-4574-A62D-30DF65569781";
paths = (
{
closed = 1;
nodes = (
"199 766 LINE",
"457 766 LINE",
"457 800 LINE",
"199 800 LINE"
);
},
{
closed = 1;
nodes = (
"450 10 OFFCURVE",
"460 -2 OFFCURVE",
"472 -2 CURVE SMOOTH",
"517 -2 LINE SMOOTH",
"529 -2 OFFCURVE",
"539 10 OFFCURVE",
"539 24 CURVE SMOOTH",
"539 582 LINE SMOOTH",
"539 619 OFFCURVE",
"515 648 OFFCURVE",
"483 648 CURVE SMOOTH",
"154 648 LINE SMOOTH",
"122 648 OFFCURVE",
"98 619 OFFCURVE",
"98 582 CURVE SMOOTH",
"98 24 LINE SMOOTH",
"98 10 OFFCURVE",
"108 -2 OFFCURVE",
"120 -2 CURVE SMOOTH",
"165 -2 LINE SMOOTH",
"177 -2 OFFCURVE",
"187 10 OFFCURVE",
"187 24 CURVE SMOOTH",
"187 569 LINE SMOOTH",
"187 583 OFFCURVE",
"197 595 OFFCURVE",
"209 595 CURVE SMOOTH",
"428 595 LINE SMOOTH",
"440 595 OFFCURVE",
"450 583 OFFCURVE",
"450 569 CURVE SMOOTH",
"450 24 LINE SMOOTH"
);
},
{
closed = 1;
nodes = (
"343 756 LINE SMOOTH",
"343 770 OFFCURVE",
"333 782 OFFCURVE",
"321 782 CURVE SMOOTH",
"320 782 LINE SMOOTH",
"308 782 OFFCURVE",
"298 770 OFFCURVE",
"298 756 CURVE SMOOTH",
"298 630 LINE",
"343 630 LINE"
);
},
{
closed = 1;
nodes = (
"343 756 LINE SMOOTH",
"343 770 OFFCURVE",
"333 782 OFFCURVE",
"321 782 CURVE SMOOTH",
"320 782 LINE SMOOTH",
"308 782 OFFCURVE",
"298 770 OFFCURVE",
"298 756 CURVE SMOOTH",
"298 630 LINE",
"343 630 LINE"
);
},
{
closed = 1;
nodes = (
"98 48 LINE",
"98 -156 LINE SMOOTH",
"98 -170 OFFCURVE",
"108 -182 OFFCURVE",
"120 -182 CURVE SMOOTH",
"121 -182 LINE SMOOTH",
"133 -182 OFFCURVE",
"143 -170 OFFCURVE",
"143 -156 CURVE SMOOTH",
"143 48 LINE"
);
}
);
width = 637;
}
);
unicode = 123E;
},
{
glyphname = "shwa-ethiopic";
lastChange = "2019-02-19 04:41:48 +0000";
layers = (
{
layerId = "A36D14D1-FF07-4574-A62D-30DF65569781";
paths = (
{
closed = 1;
nodes = (
"199 764 LINE",
"457 764 LINE",
"457 798 LINE",
"199 798 LINE"
);
},
{
closed = 1;
nodes = (
"343 754 LINE SMOOTH",
"343 768 OFFCURVE",
"333 780 OFFCURVE",
"321 780 CURVE SMOOTH",
"320 780 LINE SMOOTH",
"308 780 OFFCURVE",
"298 768 OFFCURVE",
"298 754 CURVE SMOOTH",
"298 640 LINE",
"343 640 LINE"
);
},
{
closed = 1;
nodes = (
"450 10 OFFCURVE",
"460 -2 OFFCURVE",
"472 -2 CURVE SMOOTH",
"517 -2 LINE SMOOTH",
"529 -2 OFFCURVE",
"539 10 OFFCURVE",
"539 24 CURVE SMOOTH",
"539 582 LINE SMOOTH",
"539 619 OFFCURVE",
"515 648 OFFCURVE",
"483 648 CURVE SMOOTH",
"154 648 LINE SMOOTH",
"122 648 OFFCURVE",
"98 619 OFFCURVE",
"98 582 CURVE SMOOTH",
"98 24 LINE SMOOTH",
"98 10 OFFCURVE",
"108 -2 OFFCURVE",
"120 -2 CURVE SMOOTH",
"165 -2 LINE SMOOTH",
"177 -2 OFFCURVE",
"187 10 OFFCURVE",
"187 24 CURVE SMOOTH",
"187 569 LINE SMOOTH",
"187 583 OFFCURVE",
"197 595 OFFCURVE",
"209 595 CURVE SMOOTH",
"428 595 LINE SMOOTH",
"440 595 OFFCURVE",
"450 583 OFFCURVE",
"450 569 CURVE SMOOTH",
"450 24 LINE SMOOTH"
);
},
{
closed = 1;
nodes = (
"343 754 LINE SMOOTH",
"343 768 OFFCURVE",
"333 780 OFFCURVE",
"321 780 CURVE SMOOTH",
"320 780 LINE SMOOTH",
"308 780 OFFCURVE",
"298 768 OFFCURVE",
"298 754 CURVE SMOOTH",
"298 640 LINE",
"343 640 LINE"
);
},
{
closed = 1;
nodes = (
"343 754 LINE SMOOTH",
"343 768 OFFCURVE",
"333 780 OFFCURVE",
"321 780 CURVE SMOOTH",
"320 780 LINE SMOOTH",
"308 780 OFFCURVE",
"298 768 OFFCURVE",
"298 754 CURVE SMOOTH",
"298 640 LINE",
"343 640 LINE"
);
},
{
closed = 1;
nodes = (
"501 -160 LINE SMOOTH",
"501 -174 OFFCURVE",
"510 -186 OFFCURVE",
"523 -186 CURVE SMOOTH",
"524 -186 LINE SMOOTH",
"536 -186 OFFCURVE",
"546 -174 OFFCURVE",
"546 -160 CURVE SMOOTH",
"546 -17 LINE",
"501 -17 LINE"
);
},
{
closed = 1;
nodes = (
"546 -69 LINE",
"546 -15 LINE",
"389 -15 LINE",
"391 -69 LINE"
);
},
{
closed = 1;
nodes = (
"457 -30 LINE SMOOTH",
"457 -44 OFFCURVE",
"466 -56 OFFCURVE",
"479 -56 CURVE SMOOTH",
"480 -56 LINE SMOOTH",
"492 -56 OFFCURVE",
"502 -44 OFFCURVE",
"502 -30 CURVE SMOOTH",
"502 48 LINE",
"457 48 LINE"
);
}
);
width = 637;
}
);
unicode = 123F;
},
{
glyphname = "qa-ethiopic";
lastChange = "2019-02-19 04:41:48 +0000";
layers = (
{
layerId = "A36D14D1-FF07-4574-A62D-30DF65569781";
paths = (
{
closed = 1;
nodes = (
"110 648 LINE SMOOTH",
"85 648 OFFCURVE",
"65 625 OFFCURVE",
"65 595 CURVE SMOOTH",
"65 64 LINE SMOOTH",
"65 27 OFFCURVE",
"89 -2 OFFCURVE",
"121 -2 CURVE SMOOTH",
"450 -2 LINE SMOOTH",
"482 -2 OFFCURVE",
"506 27 OFFCURVE",
"506 64 CURVE SMOOTH",
"506 595 LINE SMOOTH",
"506 625 OFFCURVE",
"486 648 OFFCURVE",
"461 648 CURVE SMOOTH"
);
},
{
closed = 1;
nodes = (
"165 51 LINE SMOOTH",
"153 51 OFFCURVE",
"143 63 OFFCURVE",
"143 77 CURVE SMOOTH",
"143 590 LINE SMOOTH",
"143 604 OFFCURVE",
"153 616 OFFCURVE",
"165 616 CURVE SMOOTH",
"259 616 LINE",
"259 51 LINE"
);
},
{
closed = 1;
nodes = (
"305 51 LINE",
"305 616 LINE",
"399 616 LINE SMOOTH",
"411 616 OFFCURVE",
"421 604 OFFCURVE",
"421 590 CURVE SMOOTH",
"421 77 LINE SMOOTH",
"421 63 OFFCURVE",
"411 51 OFFCURVE",
"399 51 CURVE SMOOTH"
);
},
{
closed = 1;
nodes = (
"256 -149 LINE",
"301 -149 LINE",
"301 779 LINE",
"256 779 LINE"
);
}
);
width = 571;
}
);
unicode = 1240;
},
{
glyphname = "qu-ethiopic";
lastChange = "2019-02-19 04:41:48 +0000";
layers = (
{
components = (
{
name = _part.hoo;
transform = "{1.1, 0, 0, 1.3, -44, -2}";
}
);
layerId = "A36D14D1-FF07-4574-A62D-30DF65569781";
paths = (
{
closed = 1;
nodes = (
"110 648 LINE SMOOTH",
"85 648 OFFCURVE",
"65 625 OFFCURVE",
"65 595 CURVE SMOOTH",
"65 64 LINE SMOOTH",
"65 27 OFFCURVE",
"89 -2 OFFCURVE",
"121 -2 CURVE SMOOTH",
"450 -2 LINE SMOOTH",
"482 -2 OFFCURVE",
"506 27 OFFCURVE",
"506 64 CURVE SMOOTH",
"506 595 LINE SMOOTH",
"506 625 OFFCURVE",
"486 648 OFFCURVE",
"461 648 CURVE SMOOTH"
);
},
{
closed = 1;
nodes = (
"165 51 LINE SMOOTH",
"153 51 OFFCURVE",
"143 63 OFFCURVE",
"143 77 CURVE SMOOTH",
"143 590 LINE SMOOTH",
"143 604 OFFCURVE",
"153 616 OFFCURVE",
"165 616 CURVE SMOOTH",
"259 616 LINE",
"259 51 LINE"
);
},
{
closed = 1;
nodes = (
"305 51 LINE",
"305 616 LINE",
"399 616 LINE SMOOTH",
"411 616 OFFCURVE",
"421 604 OFFCURVE",
"421 590 CURVE SMOOTH",
"421 77 LINE SMOOTH",
"421 63 OFFCURVE",
"411 51 OFFCURVE",
"399 51 CURVE SMOOTH"
);
},
{
closed = 1;
nodes = (
"256 -149 LINE",
"301 -149 LINE",
"301 779 LINE",
"256 779 LINE"
);
}
);
width = 591;
}
);
unicode = 1241;
},
{
glyphname = "qi-ethiopic";
lastChange = "2019-02-19 04:41:48 +0000";
layers = (
{
layerId = "A36D14D1-FF07-4574-A62D-30DF65569781";
paths = (
{
closed = 1;
nodes = (
"110 648 LINE SMOOTH",
"85 648 OFFCURVE",
"65 625 OFFCURVE",
"65 595 CURVE SMOOTH",
"65 64 LINE SMOOTH",
"65 27 OFFCURVE",
"89 -2 OFFCURVE",
"121 -2 CURVE SMOOTH",
"450 -2 LINE SMOOTH",
"482 -2 OFFCURVE",
"506 27 OFFCURVE",
"506 64 CURVE SMOOTH",
"506 595 LINE SMOOTH",
"506 625 OFFCURVE",
"486 648 OFFCURVE",
"461 648 CURVE SMOOTH"
);
},
{
closed = 1;
nodes = (
"165 51 LINE SMOOTH",
"153 51 OFFCURVE",
"143 63 OFFCURVE",
"143 77 CURVE SMOOTH",
"143 590 LINE SMOOTH",
"143 604 OFFCURVE",
"153 616 OFFCURVE",
"165 616 CURVE SMOOTH",
"259 616 LINE",
"259 51 LINE"
);
},
{
closed = 1;
nodes = (
"305 51 LINE",
"305 616 LINE",
"399 616 LINE SMOOTH",
"411 616 OFFCURVE",
"421 604 OFFCURVE",
"421 590 CURVE SMOOTH",
"421 77 LINE SMOOTH",
"421 63 OFFCURVE",
"411 51 OFFCURVE",
"399 51 CURVE SMOOTH"
);
},
{
closed = 1;
nodes = (
"256 -149 LINE",
"301 -149 LINE",
"301 779 LINE",
"256 779 LINE"
);
},
{
closed = 1;
nodes = (
"257 -193 LINE",
"378 -193 LINE SMOOTH",
"391 -193 OFFCURVE",
"400 -181 OFFCURVE",
"400 -167 CURVE SMOOTH",
"400 -165 LINE SMOOTH",
"400 -151 OFFCURVE",
"391 -139 OFFCURVE",
"378 -139 CURVE SMOOTH",
"257 -139 LINE"
);
},
{
closed = 1;
nodes = (
"256 -28 LINE",
"301 -29 LINE"
);
}
);
width = 571;
}
);
unicode = 1242;
},
{
glyphname = "qaa-ethiopic";
lastChange = "2019-02-19 04:41:48 +0000";
layers = (
{
layerId = "A36D14D1-FF07-4574-A62D-30DF65569781";
paths = (
{
closed = 1;
nodes = (
"110 648 LINE SMOOTH",
"85 648 OFFCURVE",
"65 625 OFFCURVE",
"65 595 CURVE SMOOTH",
"65 64 LINE SMOOTH",
"65 27 OFFCURVE",
"89 -2 OFFCURVE",
"121 -2 CURVE SMOOTH",
"450 -2 LINE SMOOTH",
"482 -2 OFFCURVE",
"506 27 OFFCURVE",
"506 64 CURVE SMOOTH",
"506 595 LINE SMOOTH",
"506 625 OFFCURVE",
"486 648 OFFCURVE",
"461 648 CURVE SMOOTH"
);
},
{
closed = 1;
nodes = (
"165 51 LINE SMOOTH",
"153 51 OFFCURVE",
"143 63 OFFCURVE",
"143 77 CURVE SMOOTH",
"143 590 LINE SMOOTH",
"143 604 OFFCURVE",
"153 616 OFFCURVE",
"165 616 CURVE SMOOTH",
"259 616 LINE",
"259 51 LINE"
);
},
{
closed = 1;
nodes = (
"305 51 LINE",
"305 616 LINE",
"399 616 LINE SMOOTH",
"411 616 OFFCURVE",
"421 604 OFFCURVE",
"421 590 CURVE SMOOTH",
"421 77 LINE SMOOTH",
"421 63 OFFCURVE",
"411 51 OFFCURVE",
"399 51 CURVE SMOOTH"
);
},
{
closed = 1;
nodes = (
"256 -149 LINE",
"301 -149 LINE",
"301 779 LINE",
"256 779 LINE"
);
},
{
closed = 1;
nodes = (
"179 -139 LINE SMOOTH",
"167 -139 OFFCURVE",
"157 -151 OFFCURVE",
"157 -165 CURVE SMOOTH",
"157 -167 LINE SMOOTH",
"157 -181 OFFCURVE",
"167 -193 OFFCURVE",
"179 -193 CURVE SMOOTH",
"300 -193 LINE",
"300 -139 LINE"
);
},
{
closed = 1;
nodes = (
"301 -28 LINE",
"256 -29 LINE"
);
}
);
width = 571;
}
);
unicode = 1243;
},
{
glyphname = "qee-ethiopic";
lastChange = "2019-02-19 04:41:48 +0000";
layers = (
{
layerId = "A36D14D1-FF07-4574-A62D-30DF65569781";
paths = (
{
closed = 1;
nodes = (
"110 648 LINE SMOOTH",
"85 648 OFFCURVE",
"65 625 OFFCURVE",
"65 595 CURVE SMOOTH",
"65 64 LINE SMOOTH",
"65 27 OFFCURVE",
"89 -2 OFFCURVE",
"121 -2 CURVE SMOOTH",
"450 -2 LINE SMOOTH",
"482 -2 OFFCURVE",
"506 27 OFFCURVE",
"506 64 CURVE SMOOTH",
"506 595 LINE SMOOTH",
"506 625 OFFCURVE",
"486 648 OFFCURVE",
"461 648 CURVE SMOOTH"
);
},
{
closed = 1;
nodes = (
"165 51 LINE SMOOTH",
"153 51 OFFCURVE",
"143 63 OFFCURVE",
"143 77 CURVE SMOOTH",
"143 590 LINE SMOOTH",
"143 604 OFFCURVE",
"153 616 OFFCURVE",
"165 616 CURVE SMOOTH",
"259 616 LINE",
"259 51 LINE"
);
},
{
closed = 1;
nodes = (
"305 51 LINE",
"305 616 LINE",
"399 616 LINE SMOOTH",
"411 616 OFFCURVE",
"421 604 OFFCURVE",
"421 590 CURVE SMOOTH",
"421 77 LINE SMOOTH",
"421 63 OFFCURVE",
"411 51 OFFCURVE",
"399 51 CURVE SMOOTH"
);
},
{
closed = 1;
nodes = (
"256 -149 LINE",
"301 -149 LINE",
"301 779 LINE",
"256 779 LINE"
);
},
{
closed = 1;
nodes = (
"391 -183 OFFCURVE",
"422 -144 OFFCURVE",
"422 -94 CURVE SMOOTH",
"422 -44 OFFCURVE",
"391 -5 OFFCURVE",
"350 -5 CURVE SMOOTH",
"310 -5 OFFCURVE",
"278 -44 OFFCURVE",
"278 -94 CURVE SMOOTH",
"278 -144 OFFCURVE",
"310 -183 OFFCURVE",
"350 -183 CURVE SMOOTH"
);
},
{
closed = 1;
nodes = (
"324 -149 OFFCURVE",
"305 -125 OFFCURVE",
"305 -94 CURVE SMOOTH",
"305 -63 OFFCURVE",
"324 -39 OFFCURVE",
"350 -39 CURVE SMOOTH",
"376 -39 OFFCURVE",
"395 -63 OFFCURVE",
"395 -94 CURVE SMOOTH",
"395 -125 OFFCURVE",
"376 -149 OFFCURVE",
"350 -149 CURVE SMOOTH"
);
}
);
width = 571;
}
);
unicode = 1244;
},
{
glyphname = "qe-ethiopic";
lastChange = "2019-02-19 04:41:48 +0000";
layers = (
{
layerId = "A36D14D1-FF07-4574-A62D-30DF65569781";
paths = (
{
closed = 1;
nodes = (
"110 648 LINE SMOOTH",
"85 648 OFFCURVE",
"65 625 OFFCURVE",
"65 595 CURVE SMOOTH",
"65 64 LINE SMOOTH",
"65 27 OFFCURVE",
"89 -2 OFFCURVE",
"121 -2 CURVE SMOOTH",
"450 -2 LINE SMOOTH",
"482 -2 OFFCURVE",
"506 27 OFFCURVE",
"506 64 CURVE SMOOTH",
"506 595 LINE SMOOTH",
"506 625 OFFCURVE",
"486 648 OFFCURVE",
"461 648 CURVE SMOOTH"
);
},
{
closed = 1;
nodes = (
"165 51 LINE SMOOTH",
"153 51 OFFCURVE",
"143 63 OFFCURVE",
"143 77 CURVE SMOOTH",
"143 590 LINE SMOOTH",
"143 604 OFFCURVE",
"153 616 OFFCURVE",
"165 616 CURVE SMOOTH",
"259 616 LINE",
"259 51 LINE"
);
},
{
closed = 1;
nodes = (
"305 51 LINE",
"305 616 LINE",
"399 616 LINE SMOOTH",
"411 616 OFFCURVE",
"421 604 OFFCURVE",
"421 590 CURVE SMOOTH",
"421 77 LINE SMOOTH",
"421 63 OFFCURVE",
"411 51 OFFCURVE",
"399 51 CURVE SMOOTH"
);
},
{
closed = 1;
nodes = (
"256 -149 LINE",
"301 -149 LINE",
"301 729 LINE",
"256 729 LINE"
);
},
{
closed = 1;
nodes = (
"150 670 LINE",
"271 670 LINE SMOOTH",
"283 670 OFFCURVE",
"293 681 OFFCURVE",
"293 696 CURVE SMOOTH",
"293 697 LINE SMOOTH",
"293 711 OFFCURVE",
"283 723 OFFCURVE",
"271 723 CURVE SMOOTH",
"150 723 LINE"
);
},
{
closed = 1;
nodes = (
"149 804 LINE",
"149 670 LINE",
"194 670 LINE",
"194 803 LINE"
);
}
);
width = 571;
}
);
unicode = 1245;
},
{
glyphname = "qo-ethiopic";
lastChange = "2019-02-19 04:41:48 +0000";
layers = (
{
layerId = "A36D14D1-FF07-4574-A62D-30DF65569781";
paths = (
{
closed = 1;
nodes = (
"110 648 LINE SMOOTH",
"85 648 OFFCURVE",
"65 625 OFFCURVE",
"65 595 CURVE SMOOTH",
"65 64 LINE SMOOTH",
"65 27 OFFCURVE",
"89 -2 OFFCURVE",
"121 -2 CURVE SMOOTH",
"450 -2 LINE SMOOTH",
"482 -2 OFFCURVE",
"506 27 OFFCURVE",
"506 64 CURVE SMOOTH",
"506 595 LINE SMOOTH",
"506 625 OFFCURVE",
"486 648 OFFCURVE",
"461 648 CURVE SMOOTH"
);
},
{
closed = 1;
nodes = (
"165 51 LINE SMOOTH",
"153 51 OFFCURVE",
"143 63 OFFCURVE",
"143 77 CURVE SMOOTH",
"143 590 LINE SMOOTH",
"143 604 OFFCURVE",
"153 616 OFFCURVE",
"165 616 CURVE SMOOTH",
"259 616 LINE",
"259 51 LINE"
);
},
{
closed = 1;
nodes = (
"305 51 LINE",
"305 616 LINE",
"399 616 LINE SMOOTH",
"411 616 OFFCURVE",
"421 604 OFFCURVE",
"421 590 CURVE SMOOTH",
"421 77 LINE SMOOTH",
"421 63 OFFCURVE",
"411 51 OFFCURVE",
"399 51 CURVE SMOOTH"
);
},
{
closed = 1;
nodes = (
"256 -149 LINE",
"301 -149 LINE",
"301 667 LINE",
"256 667 LINE"
);
},
{
closed = 1;
nodes = (
"314 643 OFFCURVE",
"341 679 OFFCURVE",
"341 724 CURVE SMOOTH",
"341 769 OFFCURVE",
"314 805 OFFCURVE",
"276 805 CURVE SMOOTH",
"239 805 OFFCURVE",
"211 769 OFFCURVE",
"211 724 CURVE SMOOTH",
"211 679 OFFCURVE",
"239 643 OFFCURVE",
"276 643 CURVE SMOOTH"
);
},
{
closed = 1;
nodes = (
"253 674 OFFCURVE",
"235 695 OFFCURVE",
"235 724 CURVE SMOOTH",
"235 753 OFFCURVE",
"253 774 OFFCURVE",
"276 774 CURVE SMOOTH",
"299 774 OFFCURVE",
"317 753 OFFCURVE",
"317 724 CURVE SMOOTH",
"317 695 OFFCURVE",
"299 674 OFFCURVE",
"276 674 CURVE SMOOTH"
);
}
);
width = 571;
}
);
unicode = 1246;
},
{
glyphname = "qoa-ethiopic";
lastChange = "2019-02-19 04:41:48 +0000";
layers = (
{
layerId = "A36D14D1-FF07-4574-A62D-30DF65569781";
paths = (
{
closed = 1;
nodes = (
"110 648 LINE SMOOTH",
"85 648 OFFCURVE",
"65 625 OFFCURVE",
"65 595 CURVE SMOOTH",
"65 64 LINE SMOOTH",
"65 27 OFFCURVE",
"89 -2 OFFCURVE",
"121 -2 CURVE SMOOTH",
"450 -2 LINE SMOOTH",
"482 -2 OFFCURVE",
"506 27 OFFCURVE",
"506 64 CURVE SMOOTH",
"506 595 LINE SMOOTH",
"506 625 OFFCURVE",
"486 648 OFFCURVE",
"461 648 CURVE SMOOTH"
);
},
{
closed = 1;
nodes = (
"165 51 LINE SMOOTH",
"153 51 OFFCURVE",
"143 63 OFFCURVE",
"143 77 CURVE SMOOTH",
"143 590 LINE SMOOTH",
"143 604 OFFCURVE",
"153 616 OFFCURVE",
"165 616 CURVE SMOOTH",
"259 616 LINE",
"259 51 LINE"
);
},
{
closed = 1;
nodes = (
"305 51 LINE",
"305 616 LINE",
"399 616 LINE SMOOTH",
"411 616 OFFCURVE",
"421 604 OFFCURVE",
"421 590 CURVE SMOOTH",
"421 77 LINE SMOOTH",
"421 63 OFFCURVE",
"411 51 OFFCURVE",
"399 51 CURVE SMOOTH"
);
},
{
closed = 1;
nodes = (
"256 -149 LINE",
"301 -149 LINE",
"301 675 LINE",
"256 675 LINE"
);
},
{
closed = 1;
nodes = (
"314 643 OFFCURVE",
"341 679 OFFCURVE",
"341 724 CURVE SMOOTH",
"341 769 OFFCURVE",
"314 805 OFFCURVE",
"276 805 CURVE SMOOTH",
"239 805 OFFCURVE",
"211 769 OFFCURVE",
"211 724 CURVE SMOOTH",
"211 679 OFFCURVE",
"239 643 OFFCURVE",
"276 643 CURVE SMOOTH"
);
},
{
closed = 1;
nodes = (
"253 674 OFFCURVE",
"235 695 OFFCURVE",
"235 724 CURVE SMOOTH",
"235 753 OFFCURVE",
"253 774 OFFCURVE",
"276 774 CURVE SMOOTH",
"299 774 OFFCURVE",
"317 753 OFFCURVE",
"317 724 CURVE SMOOTH",
"317 695 OFFCURVE",
"299 674 OFFCURVE",
"276 674 CURVE SMOOTH"
);
},
{
closed = 1;
nodes = (
"179 -139 LINE SMOOTH",
"167 -139 OFFCURVE",
"157 -151 OFFCURVE",
"157 -165 CURVE SMOOTH",
"157 -167 LINE SMOOTH",
"157 -181 OFFCURVE",
"167 -193 OFFCURVE",
"179 -193 CURVE SMOOTH",
"300 -193 LINE",
"300 -139 LINE"
);
},
{
closed = 1;
nodes = (
"306 -28 LINE",
"256 -29 LINE"
);
}
);
width = 571;
}
);
unicode = 1247;
},
{
glyphname = "qwaa-ethiopic";
lastChange = "2019-02-19 04:41:48 +0000";
layers = (
{
layerId = "A36D14D1-FF07-4574-A62D-30DF65569781";
paths = (
{
closed = 1;
nodes = (
"86 648 LINE",
"74 647 OFFCURVE",
"65 636 OFFCURVE",
"65 622 CURVE SMOOTH",
"65 64 LINE SMOOTH",
"65 27 OFFCURVE",
"89 -2 OFFCURVE",
"121 -2 CURVE",
"450 -2 LINE",
"482 -2 OFFCURVE",
"506 27 OFFCURVE",
"506 64 CURVE SMOOTH",
"506 622 LINE SMOOTH",
"506 636 OFFCURVE",
"497 647 OFFCURVE",
"485 648 CURVE"
);
},
{
closed = 1;
nodes = (
"176 51 LINE SMOOTH",
"164 51 OFFCURVE",
"154 63 OFFCURVE",
"154 77 CURVE SMOOTH",
"154 590 LINE SMOOTH",
"154 604 OFFCURVE",
"164 616 OFFCURVE",
"176 616 CURVE SMOOTH",
"259 616 LINE",
"259 51 LINE"
);
},
{
closed = 1;
nodes = (
"305 51 LINE",
"305 616 LINE",
"397 616 LINE SMOOTH",
"409 616 OFFCURVE",
"419 604 OFFCURVE",
"419 590 CURVE SMOOTH",
"419 77 LINE SMOOTH",
"419 63 OFFCURVE",
"409 51 OFFCURVE",
"397 51 CURVE SMOOTH"
);
},
{
closed = 1;
nodes = (
"256 -149 LINE",
"301 -149 LINE",
"301 779 LINE",
"256 779 LINE"
);
},
{
closed = 1;
nodes = (
"179 -55 LINE SMOOTH",
"167 -55 OFFCURVE",
"157 -67 OFFCURVE",
"157 -81 CURVE SMOOTH",
"157 -83 LINE SMOOTH",
"157 -97 OFFCURVE",
"167 -109 OFFCURVE",
"179 -109 CURVE SMOOTH",
"300 -109 LINE",
"300 -55 LINE"
);
},
{
closed = 1;
nodes = (
"256 -203 LINE",
"301 -203 LINE",
"301 -28 LINE",
"256 -29 LINE"
);
}
);
width = 571;
}
);
unicode = 124B;
},
{
glyphname = "ba-ethiopic";
lastChange = "2019-02-19 04:41:48 +0000";
layers = (
{
layerId = "A36D14D1-FF07-4574-A62D-30DF65569781";
paths = (
{
closed = 1;
nodes = (
"450 10 OFFCURVE",
"460 -2 OFFCURVE",
"472 -2 CURVE SMOOTH",
"517 -2 LINE SMOOTH",
"529 -2 OFFCURVE",
"539 10 OFFCURVE",
"539 24 CURVE SMOOTH",
"539 582 LINE SMOOTH",
"539 619 OFFCURVE",
"515 648 OFFCURVE",
"483 648 CURVE SMOOTH",
"154 648 LINE SMOOTH",
"122 648 OFFCURVE",
"98 619 OFFCURVE",
"98 582 CURVE SMOOTH",
"98 24 LINE SMOOTH",
"98 10 OFFCURVE",
"108 -2 OFFCURVE",
"120 -2 CURVE SMOOTH",
"165 -2 LINE SMOOTH",
"177 -2 OFFCURVE",
"187 10 OFFCURVE",
"187 24 CURVE SMOOTH",
"187 569 LINE SMOOTH",
"187 583 OFFCURVE",
"197 595 OFFCURVE",
"209 595 CURVE SMOOTH",
"428 595 LINE SMOOTH",
"440 595 OFFCURVE",
"450 583 OFFCURVE",
"450 569 CURVE SMOOTH",
"450 24 LINE SMOOTH"
);
}
);
width = 637;
}
);
unicode = 1260;
},
{
glyphname = "bu-ethiopic";
lastChange = "2019-02-19 04:41:48 +0000";
layers = (
{
components = (
{
name = _part.hoo;
transform = "{1.1, 0, 0, 1.3, 0, -2}";
}
);
layerId = "A36D14D1-FF07-4574-A62D-30DF65569781";
paths = (
{
closed = 1;
nodes = (
"450 10 OFFCURVE",
"460 -2 OFFCURVE",
"472 -2 CURVE SMOOTH",
"517 -2 LINE SMOOTH",
"529 -2 OFFCURVE",
"539 10 OFFCURVE",
"539 24 CURVE SMOOTH",
"539 582 LINE SMOOTH",
"539 619 OFFCURVE",
"515 648 OFFCURVE",
"483 648 CURVE SMOOTH",
"154 648 LINE SMOOTH",
"122 648 OFFCURVE",
"98 619 OFFCURVE",
"98 582 CURVE SMOOTH",
"98 24 LINE SMOOTH",
"98 10 OFFCURVE",
"108 -2 OFFCURVE",
"120 -2 CURVE SMOOTH",
"165 -2 LINE SMOOTH",
"177 -2 OFFCURVE",
"187 10 OFFCURVE",
"187 24 CURVE SMOOTH",
"187 569 LINE SMOOTH",
"187 583 OFFCURVE",
"197 595 OFFCURVE",
"209 595 CURVE SMOOTH",
"428 595 LINE SMOOTH",
"440 595 OFFCURVE",
"450 583 OFFCURVE",
"450 569 CURVE SMOOTH",
"450 24 LINE SMOOTH"
);
}
);
width = 637;
}
);
unicode = 1261;
},
{
glyphname = "bi-ethiopic";
lastChange = "2019-02-19 04:41:48 +0000";
layers = (
{
layerId = "A36D14D1-FF07-4574-A62D-30DF65569781";
paths = (
{
closed = 1;
nodes = (
"450 10 OFFCURVE",
"460 -2 OFFCURVE",
"472 -2 CURVE SMOOTH",
"517 -2 LINE SMOOTH",
"529 -2 OFFCURVE",
"539 10 OFFCURVE",
"539 24 CURVE SMOOTH",
"539 582 LINE SMOOTH",
"539 619 OFFCURVE",
"515 648 OFFCURVE",
"483 648 CURVE SMOOTH",
"154 648 LINE SMOOTH",
"122 648 OFFCURVE",
"98 619 OFFCURVE",
"98 582 CURVE SMOOTH",
"98 24 LINE SMOOTH",
"98 10 OFFCURVE",
"108 -2 OFFCURVE",
"120 -2 CURVE SMOOTH",
"165 -2 LINE SMOOTH",
"177 -2 OFFCURVE",
"187 10 OFFCURVE",
"187 24 CURVE SMOOTH",
"187 569 LINE SMOOTH",
"187 583 OFFCURVE",
"197 595 OFFCURVE",
"209 595 CURVE SMOOTH",
"428 595 LINE SMOOTH",
"440 595 OFFCURVE",
"450 583 OFFCURVE",
"450 569 CURVE SMOOTH",
"450 24 LINE SMOOTH"
);
},
{
closed = 1;
nodes = (
"453 -193 LINE",
"574 -193 LINE SMOOTH",
"586 -193 OFFCURVE",
"596 -181 OFFCURVE",
"596 -167 CURVE SMOOTH",
"596 -165 LINE SMOOTH",
"596 -151 OFFCURVE",
"586 -139 OFFCURVE",
"574 -139 CURVE SMOOTH",
"453 -139 LINE"
);
},
{
closed = 1;
nodes = (
"452 -8 LINE",
"452 -193 LINE",
"497 -193 LINE",
"497 -9 LINE"
);
}
);
width = 637;
}
);
unicode = 1262;
},
{
glyphname = "baa-ethiopic";
lastChange = "2019-02-19 04:41:48 +0000";
layers = (
{
layerId = "A36D14D1-FF07-4574-A62D-30DF65569781";
paths = (
{
closed = 1;
nodes = (
"450 10 OFFCURVE",
"460 -2 OFFCURVE",
"472 -2 CURVE SMOOTH",
"517 -2 LINE SMOOTH",
"529 -2 OFFCURVE",
"539 10 OFFCURVE",
"539 24 CURVE SMOOTH",
"539 582 LINE SMOOTH",
"539 619 OFFCURVE",
"515 648 OFFCURVE",
"483 648 CURVE SMOOTH",
"154 648 LINE SMOOTH",
"122 648 OFFCURVE",
"98 619 OFFCURVE",
"98 582 CURVE SMOOTH",
"98 24 LINE SMOOTH",
"98 10 OFFCURVE",
"108 -2 OFFCURVE",
"120 -2 CURVE SMOOTH",
"165 -2 LINE SMOOTH",
"177 -2 OFFCURVE",
"187 10 OFFCURVE",
"187 24 CURVE SMOOTH",
"187 569 LINE SMOOTH",
"187 583 OFFCURVE",
"197 595 OFFCURVE",
"209 595 CURVE SMOOTH",
"428 595 LINE SMOOTH",
"440 595 OFFCURVE",
"450 583 OFFCURVE",
"450 569 CURVE SMOOTH",
"450 24 LINE SMOOTH"
);
},
{
closed = 1;
nodes = (
"461 38 LINE",
"461 -166 LINE SMOOTH",
"461 -180 OFFCURVE",
"471 -192 OFFCURVE",
"483 -192 CURVE SMOOTH",
"484 -192 LINE SMOOTH",
"496 -192 OFFCURVE",
"506 -180 OFFCURVE",
"506 -166 CURVE SMOOTH",
"506 38 LINE"
);
}
);
width = 637;
}
);
unicode = 1263;
},
{
glyphname = "bee-ethiopic";
lastChange = "2019-02-19 04:41:48 +0000";
layers = (
{
layerId = "A36D14D1-FF07-4574-A62D-30DF65569781";
paths = (
{
closed = 1;
nodes = (
"450 10 OFFCURVE",
"460 -2 OFFCURVE",
"472 -2 CURVE SMOOTH",
"517 -2 LINE SMOOTH",
"529 -2 OFFCURVE",
"539 10 OFFCURVE",
"539 24 CURVE SMOOTH",
"539 582 LINE SMOOTH",
"539 619 OFFCURVE",
"515 648 OFFCURVE",
"483 648 CURVE SMOOTH",
"154 648 LINE SMOOTH",
"122 648 OFFCURVE",
"98 619 OFFCURVE",
"98 582 CURVE SMOOTH",
"98 24 LINE SMOOTH",
"98 10 OFFCURVE",
"108 -2 OFFCURVE",
"120 -2 CURVE SMOOTH",
"165 -2 LINE SMOOTH",
"177 -2 OFFCURVE",
"187 10 OFFCURVE",
"187 24 CURVE SMOOTH",
"187 569 LINE SMOOTH",
"187 583 OFFCURVE",
"197 595 OFFCURVE",
"209 595 CURVE SMOOTH",
"428 595 LINE SMOOTH",
"440 595 OFFCURVE",
"450 583 OFFCURVE",
"450 569 CURVE SMOOTH",
"450 24 LINE SMOOTH"
);
},
{
closed = 1;
nodes = (
"556 -197 OFFCURVE",
"593 -149 OFFCURVE",
"593 -89 CURVE SMOOTH",
"593 -29 OFFCURVE",
"556 19 OFFCURVE",
"506 19 CURVE SMOOTH",
"457 19 OFFCURVE",
"419 -29 OFFCURVE",
"419 -89 CURVE SMOOTH",
"419 -149 OFFCURVE",
"457 -197 OFFCURVE",
"506 -197 CURVE SMOOTH"
);
},
{
closed = 1;
nodes = (
"475 -155 OFFCURVE",
"452 -127 OFFCURVE",
"452 -89 CURVE SMOOTH",
"452 -51 OFFCURVE",
"475 -23 OFFCURVE",
"506 -23 CURVE SMOOTH",
"537 -23 OFFCURVE",
"560 -51 OFFCURVE",
"560 -89 CURVE SMOOTH",
"560 -127 OFFCURVE",
"537 -155 OFFCURVE",
"506 -155 CURVE SMOOTH"
);
}
);
width = 637;
}
);
unicode = 1264;
},
{
glyphname = "be-ethiopic";
lastChange = "2019-02-19 04:41:48 +0000";
layers = (
{
layerId = "A36D14D1-FF07-4574-A62D-30DF65569781";
paths = (
{
closed = 1;
nodes = (
"450 10 OFFCURVE",
"460 -2 OFFCURVE",
"472 -2 CURVE SMOOTH",
"517 -2 LINE SMOOTH",
"529 -2 OFFCURVE",
"539 10 OFFCURVE",
"539 24 CURVE SMOOTH",
"539 582 LINE SMOOTH",
"539 619 OFFCURVE",
"515 648 OFFCURVE",
"483 648 CURVE SMOOTH",
"154 648 LINE SMOOTH",
"122 648 OFFCURVE",
"98 619 OFFCURVE",
"98 582 CURVE SMOOTH",
"98 24 LINE SMOOTH",
"98 10 OFFCURVE",
"108 -2 OFFCURVE",
"120 -2 CURVE SMOOTH",
"165 -2 LINE SMOOTH",
"177 -2 OFFCURVE",
"187 10 OFFCURVE",
"187 24 CURVE SMOOTH",
"187 569 LINE SMOOTH",
"187 583 OFFCURVE",
"197 595 OFFCURVE",
"209 595 CURVE SMOOTH",
"428 595 LINE SMOOTH",
"440 595 OFFCURVE",
"450 583 OFFCURVE",
"450 569 CURVE SMOOTH",
"450 24 LINE SMOOTH"
);
},
{
closed = 1;
nodes = (
"25 365 LINE SMOOTH",
"25 337 OFFCURVE",
"35 314 OFFCURVE",
"47 314 CURVE SMOOTH",
"135 314 LINE",
"135 419 LINE",
"47 419 LINE SMOOTH",
"35 419 OFFCURVE",
"25 396 OFFCURVE",
"25 367 CURVE SMOOTH"
);
}
);
width = 637;
}
);
unicode = 1265;
},
{
glyphname = "bo-ethiopic";
lastChange = "2019-02-19 04:41:48 +0000";
layers = (
{
layerId = "A36D14D1-FF07-4574-A62D-30DF65569781";
paths = (
{
closed = 1;
nodes = (
"450 10 OFFCURVE",
"460 -2 OFFCURVE",
"472 -2 CURVE SMOOTH",
"517 -2 LINE SMOOTH",
"529 -2 OFFCURVE",
"539 10 OFFCURVE",
"539 24 CURVE SMOOTH",
"539 582 LINE SMOOTH",
"539 619 OFFCURVE",
"515 648 OFFCURVE",
"483 648 CURVE SMOOTH",
"154 648 LINE SMOOTH",
"122 648 OFFCURVE",
"98 619 OFFCURVE",
"98 582 CURVE SMOOTH",
"98 24 LINE SMOOTH",
"98 10 OFFCURVE",
"108 -2 OFFCURVE",
"120 -2 CURVE SMOOTH",
"165 -2 LINE SMOOTH",
"177 -2 OFFCURVE",
"187 10 OFFCURVE",
"187 24 CURVE SMOOTH",
"187 569 LINE SMOOTH",
"187 583 OFFCURVE",
"197 595 OFFCURVE",
"209 595 CURVE SMOOTH",
"428 595 LINE SMOOTH",
"440 595 OFFCURVE",
"450 583 OFFCURVE",
"450 569 CURVE SMOOTH",
"450 24 LINE SMOOTH"
);
},
{
closed = 1;
nodes = (
"98 38 LINE",
"98 -166 LINE SMOOTH",
"98 -180 OFFCURVE",
"108 -192 OFFCURVE",
"120 -192 CURVE SMOOTH",
"121 -192 LINE SMOOTH",
"133 -192 OFFCURVE",
"143 -180 OFFCURVE",
"143 -166 CURVE SMOOTH",
"143 38 LINE"
);
}
);
width = 637;
}
);
unicode = 1266;
},
{
glyphname = "bwa-ethiopic";
lastChange = "2019-02-19 04:41:48 +0000";
layers = (
{
layerId = "A36D14D1-FF07-4574-A62D-30DF65569781";
paths = (
{
closed = 1;
nodes = (
"450 10 OFFCURVE",
"460 -2 OFFCURVE",
"472 -2 CURVE SMOOTH",
"517 -2 LINE SMOOTH",
"529 -2 OFFCURVE",
"539 10 OFFCURVE",
"539 24 CURVE SMOOTH",
"539 582 LINE SMOOTH",
"539 619 OFFCURVE",
"515 648 OFFCURVE",
"483 648 CURVE SMOOTH",
"154 648 LINE SMOOTH",
"122 648 OFFCURVE",
"98 619 OFFCURVE",
"98 582 CURVE SMOOTH",
"98 24 LINE SMOOTH",
"98 10 OFFCURVE",
"108 -2 OFFCURVE",
"120 -2 CURVE SMOOTH",
"165 -2 LINE SMOOTH",
"177 -2 OFFCURVE",
"187 10 OFFCURVE",
"187 24 CURVE SMOOTH",
"187 569 LINE SMOOTH",
"187 583 OFFCURVE",
"197 595 OFFCURVE",
"209 595 CURVE SMOOTH",
"428 595 LINE SMOOTH",
"440 595 OFFCURVE",
"450 583 OFFCURVE",
"450 569 CURVE SMOOTH",
"450 24 LINE SMOOTH"
);
},
{
closed = 1;
nodes = (
"501 -169 LINE SMOOTH",
"501 -183 OFFCURVE",
"510 -205 OFFCURVE",
"523 -205 CURVE SMOOTH",
"524 -205 LINE SMOOTH",
"536 -205 OFFCURVE",
"546 -193 OFFCURVE",
"546 -179 CURVE SMOOTH",
"546 -36 LINE",
"501 -26 LINE"
);
},
{
closed = 1;
nodes = (
"546 -78 LINE",
"546 -25 LINE",
"389 -25 LINE",
"391 -78 LINE"
);
}
);
width = 637;
}
);
unicode = 1267;
},
{
glyphname = "va-ethiopic";
lastChange = "2019-02-19 04:41:48 +0000";
layers = (
{
layerId = "A36D14D1-FF07-4574-A62D-30DF65569781";
paths = (
{
closed = 1;
nodes = (
"135 707 OFFCURVE",
"145 700 OFFCURVE",
"157 700 CURVE SMOOTH",
"474 700 LINE SMOOTH",
"486 700 OFFCURVE",
"496 708 OFFCURVE",
"496 717 CURVE SMOOTH",
"496 726 OFFCURVE",
"486 734 OFFCURVE",
"474 734 CURVE SMOOTH",
"157 734 LINE SMOOTH",
"145 734 OFFCURVE",
"135 726 OFFCURVE",
"135 717 CURVE SMOOTH"
);
},
{
closed = 1;
nodes = (
"450 10 OFFCURVE",
"460 -2 OFFCURVE",
"472 -2 CURVE SMOOTH",
"517 -2 LINE SMOOTH",
"529 -2 OFFCURVE",
"539 10 OFFCURVE",
"539 24 CURVE SMOOTH",
"539 582 LINE SMOOTH",
"539 619 OFFCURVE",
"515 648 OFFCURVE",
"483 648 CURVE SMOOTH",
"154 648 LINE SMOOTH",
"122 648 OFFCURVE",
"98 619 OFFCURVE",
"98 582 CURVE SMOOTH",
"98 24 LINE SMOOTH",
"98 10 OFFCURVE",
"108 -2 OFFCURVE",
"120 -2 CURVE SMOOTH",
"165 -2 LINE SMOOTH",
"177 -2 OFFCURVE",
"187 10 OFFCURVE",
"187 24 CURVE SMOOTH",
"187 569 LINE SMOOTH",
"187 583 OFFCURVE",
"197 595 OFFCURVE",
"209 595 CURVE SMOOTH",
"428 595 LINE SMOOTH",
"440 595 OFFCURVE",
"450 583 OFFCURVE",
"450 569 CURVE SMOOTH",
"450 24 LINE SMOOTH"
);
}
);
width = 637;
}
);
unicode = 1268;
},
{
glyphname = "vu-ethiopic";
lastChange = "2019-02-19 04:41:48 +0000";
layers = (
{
components = (
{
name = _part.hoo;
transform = "{1.1, 0, 0, 1.3, 0, -2}";
}
);
layerId = "A36D14D1-FF07-4574-A62D-30DF65569781";
paths = (
{
closed = 1;
nodes = (
"135 707 OFFCURVE",
"145 700 OFFCURVE",
"157 700 CURVE SMOOTH",
"474 700 LINE SMOOTH",
"486 700 OFFCURVE",
"496 708 OFFCURVE",
"496 717 CURVE SMOOTH",
"496 726 OFFCURVE",
"486 734 OFFCURVE",
"474 734 CURVE SMOOTH",
"157 734 LINE SMOOTH",
"145 734 OFFCURVE",
"135 726 OFFCURVE",
"135 717 CURVE SMOOTH"
);
},
{
closed = 1;
nodes = (
"450 10 OFFCURVE",
"460 -2 OFFCURVE",
"472 -2 CURVE SMOOTH",
"517 -2 LINE SMOOTH",
"529 -2 OFFCURVE",
"539 10 OFFCURVE",
"539 24 CURVE SMOOTH",
"539 582 LINE SMOOTH",
"539 619 OFFCURVE",
"515 648 OFFCURVE",
"483 648 CURVE SMOOTH",
"154 648 LINE SMOOTH",
"122 648 OFFCURVE",
"98 619 OFFCURVE",
"98 582 CURVE SMOOTH",
"98 24 LINE SMOOTH",
"98 10 OFFCURVE",
"108 -2 OFFCURVE",
"120 -2 CURVE SMOOTH",
"165 -2 LINE SMOOTH",
"177 -2 OFFCURVE",
"187 10 OFFCURVE",
"187 24 CURVE SMOOTH",
"187 569 LINE SMOOTH",
"187 583 OFFCURVE",
"197 595 OFFCURVE",
"209 595 CURVE SMOOTH",
"428 595 LINE SMOOTH",
"440 595 OFFCURVE",
"450 583 OFFCURVE",
"450 569 CURVE SMOOTH",
"450 24 LINE SMOOTH"
);
}
);
width = 637;
}
);
unicode = 1269;
},
{
glyphname = "vi-ethiopic";
lastChange = "2019-02-19 04:41:48 +0000";
layers = (
{
components = (
{
name = _part.hoo;
transform = "{1, 0, 0, 1, 59, -245}";
}
);
layerId = "A36D14D1-FF07-4574-A62D-30DF65569781";
paths = (
{
closed = 1;
nodes = (
"135 707 OFFCURVE",
"145 700 OFFCURVE",
"157 700 CURVE SMOOTH",
"474 700 LINE SMOOTH",
"486 700 OFFCURVE",
"496 708 OFFCURVE",
"496 717 CURVE SMOOTH",
"496 726 OFFCURVE",
"486 734 OFFCURVE",
"474 734 CURVE SMOOTH",
"157 734 LINE SMOOTH",
"145 734 OFFCURVE",
"135 726 OFFCURVE",
"135 717 CURVE SMOOTH"
);
},
{
closed = 1;
nodes = (
"450 10 OFFCURVE",
"460 -2 OFFCURVE",
"472 -2 CURVE SMOOTH",
"517 -2 LINE SMOOTH",
"529 -2 OFFCURVE",
"539 10 OFFCURVE",
"539 24 CURVE SMOOTH",
"539 582 LINE SMOOTH",
"539 619 OFFCURVE",
"515 648 OFFCURVE",
"483 648 CURVE SMOOTH",
"154 648 LINE SMOOTH",
"122 648 OFFCURVE",
"98 619 OFFCURVE",
"98 582 CURVE SMOOTH",
"98 24 LINE SMOOTH",
"98 10 OFFCURVE",
"108 -2 OFFCURVE",
"120 -2 CURVE SMOOTH",
"165 -2 LINE SMOOTH",
"177 -2 OFFCURVE",
"187 10 OFFCURVE",
"187 24 CURVE SMOOTH",
"187 569 LINE SMOOTH",
"187 583 OFFCURVE",
"197 595 OFFCURVE",
"209 595 CURVE SMOOTH",
"428 595 LINE SMOOTH",
"440 595 OFFCURVE",
"450 583 OFFCURVE",
"450 569 CURVE SMOOTH",
"450 24 LINE SMOOTH"
);
}
);
width = 637;
}
);
unicode = 126A;
},
{
glyphname = "vaa-ethiopic";
lastChange = "2019-02-19 04:41:48 +0000";
layers = (
{
layerId = "A36D14D1-FF07-4574-A62D-30DF65569781";
paths = (
{
closed = 1;
nodes = (
"135 707 OFFCURVE",
"145 700 OFFCURVE",
"157 700 CURVE SMOOTH",
"474 700 LINE SMOOTH",
"486 700 OFFCURVE",
"496 708 OFFCURVE",
"496 717 CURVE SMOOTH",
"496 726 OFFCURVE",
"486 734 OFFCURVE",
"474 734 CURVE SMOOTH",
"157 734 LINE SMOOTH",
"145 734 OFFCURVE",
"135 726 OFFCURVE",
"135 717 CURVE SMOOTH"
);
},
{
closed = 1;
nodes = (
"450 10 OFFCURVE",
"460 -2 OFFCURVE",
"472 -2 CURVE SMOOTH",
"517 -2 LINE SMOOTH",
"529 -2 OFFCURVE",
"539 10 OFFCURVE",
"539 24 CURVE SMOOTH",
"539 582 LINE SMOOTH",
"539 619 OFFCURVE",
"515 648 OFFCURVE",
"483 648 CURVE SMOOTH",
"154 648 LINE SMOOTH",
"122 648 OFFCURVE",
"98 619 OFFCURVE",
"98 582 CURVE SMOOTH",
"98 24 LINE SMOOTH",
"98 10 OFFCURVE",
"108 -2 OFFCURVE",
"120 -2 CURVE SMOOTH",
"165 -2 LINE SMOOTH",
"177 -2 OFFCURVE",
"187 10 OFFCURVE",
"187 24 CURVE SMOOTH",
"187 569 LINE SMOOTH",
"187 583 OFFCURVE",
"197 595 OFFCURVE",
"209 595 CURVE SMOOTH",
"428 595 LINE SMOOTH",
"440 595 OFFCURVE",
"450 583 OFFCURVE",
"450 569 CURVE SMOOTH",
"450 24 LINE SMOOTH"
);
},
{
closed = 1;
nodes = (
"461 48 LINE",
"461 -156 LINE SMOOTH",
"461 -170 OFFCURVE",
"471 -182 OFFCURVE",
"483 -182 CURVE SMOOTH",
"484 -182 LINE SMOOTH",
"496 -182 OFFCURVE",
"506 -170 OFFCURVE",
"506 -156 CURVE SMOOTH",
"506 48 LINE"
);
}
);
width = 637;
}
);
unicode = 126B;
},
{
glyphname = "vee-ethiopic";
lastChange = "2019-02-19 04:41:49 +0000";
layers = (
{
layerId = "A36D14D1-FF07-4574-A62D-30DF65569781";
paths = (
{
closed = 1;
nodes = (
"135 707 OFFCURVE",
"145 700 OFFCURVE",
"157 700 CURVE SMOOTH",
"474 700 LINE SMOOTH",
"486 700 OFFCURVE",
"496 708 OFFCURVE",
"496 717 CURVE SMOOTH",
"496 726 OFFCURVE",
"486 734 OFFCURVE",
"474 734 CURVE SMOOTH",
"157 734 LINE SMOOTH",
"145 734 OFFCURVE",
"135 726 OFFCURVE",
"135 717 CURVE SMOOTH"
);
},
{
closed = 1;
nodes = (
"450 10 OFFCURVE",
"460 -2 OFFCURVE",
"472 -2 CURVE SMOOTH",
"517 -2 LINE SMOOTH",
"529 -2 OFFCURVE",
"539 10 OFFCURVE",
"539 24 CURVE SMOOTH",
"539 582 LINE SMOOTH",
"539 619 OFFCURVE",
"515 648 OFFCURVE",
"483 648 CURVE SMOOTH",
"154 648 LINE SMOOTH",
"122 648 OFFCURVE",
"98 619 OFFCURVE",
"98 582 CURVE SMOOTH",
"98 24 LINE SMOOTH",
"98 10 OFFCURVE",
"108 -2 OFFCURVE",
"120 -2 CURVE SMOOTH",
"165 -2 LINE SMOOTH",
"177 -2 OFFCURVE",
"187 10 OFFCURVE",
"187 24 CURVE SMOOTH",
"187 569 LINE SMOOTH",
"187 583 OFFCURVE",
"197 595 OFFCURVE",
"209 595 CURVE SMOOTH",
"428 595 LINE SMOOTH",
"440 595 OFFCURVE",
"450 583 OFFCURVE",
"450 569 CURVE SMOOTH",
"450 24 LINE SMOOTH"
);
},
{
closed = 1;
nodes = (
"545 -197 OFFCURVE",
"582 -149 OFFCURVE",
"582 -89 CURVE SMOOTH",
"582 -29 OFFCURVE",
"545 19 OFFCURVE",
"495 19 CURVE SMOOTH",
"446 19 OFFCURVE",
"408 -29 OFFCURVE",
"408 -89 CURVE SMOOTH",
"408 -149 OFFCURVE",
"446 -197 OFFCURVE",
"495 -197 CURVE SMOOTH"
);
},
{
closed = 1;
nodes = (
"464 -155 OFFCURVE",
"441 -127 OFFCURVE",
"441 -89 CURVE SMOOTH",
"441 -51 OFFCURVE",
"464 -23 OFFCURVE",
"495 -23 CURVE SMOOTH",
"526 -23 OFFCURVE",
"549 -51 OFFCURVE",
"549 -89 CURVE SMOOTH",
"549 -127 OFFCURVE",
"526 -155 OFFCURVE",
"495 -155 CURVE SMOOTH"
);
}
);
width = 637;
}
);
unicode = 126C;
},
{
glyphname = "ve-ethiopic";
lastChange = "2019-02-19 04:41:49 +0000";
layers = (
{
components = (
{
name = _part.hoo;
transform = "{-1.1, 0, 0, 1.3, 634, -2}";
}
);
layerId = "A36D14D1-FF07-4574-A62D-30DF65569781";
paths = (
{
closed = 1;
nodes = (
"135 707 OFFCURVE",
"145 700 OFFCURVE",
"157 700 CURVE SMOOTH",
"474 700 LINE SMOOTH",
"486 700 OFFCURVE",
"496 708 OFFCURVE",
"496 717 CURVE SMOOTH",
"496 726 OFFCURVE",
"486 734 OFFCURVE",
"474 734 CURVE SMOOTH",
"157 734 LINE SMOOTH",
"145 734 OFFCURVE",
"135 726 OFFCURVE",
"135 717 CURVE SMOOTH"
);
},
{
closed = 1;
nodes = (
"450 10 OFFCURVE",
"460 -2 OFFCURVE",
"472 -2 CURVE SMOOTH",
"517 -2 LINE SMOOTH",
"529 -2 OFFCURVE",
"539 10 OFFCURVE",
"539 24 CURVE SMOOTH",
"539 582 LINE SMOOTH",
"539 619 OFFCURVE",
"515 648 OFFCURVE",
"483 648 CURVE SMOOTH",
"154 648 LINE SMOOTH",
"122 648 OFFCURVE",
"98 619 OFFCURVE",
"98 582 CURVE SMOOTH",
"98 24 LINE SMOOTH",
"98 10 OFFCURVE",
"108 -2 OFFCURVE",
"120 -2 CURVE SMOOTH",
"165 -2 LINE SMOOTH",
"177 -2 OFFCURVE",
"187 10 OFFCURVE",
"187 24 CURVE SMOOTH",
"187 569 LINE SMOOTH",
"187 583 OFFCURVE",
"197 595 OFFCURVE",
"209 595 CURVE SMOOTH",
"428 595 LINE SMOOTH",
"440 595 OFFCURVE",
"450 583 OFFCURVE",
"450 569 CURVE SMOOTH",
"450 24 LINE SMOOTH"
);
}
);
width = 637;
}
);
unicode = 126D;
},
{
glyphname = "vo-ethiopic";
lastChange = "2019-02-19 04:41:49 +0000";
layers = (
{
layerId = "A36D14D1-FF07-4574-A62D-30DF65569781";
paths = (
{
closed = 1;
nodes = (
"135 707 OFFCURVE",
"145 700 OFFCURVE",
"157 700 CURVE SMOOTH",
"474 700 LINE SMOOTH",
"486 700 OFFCURVE",
"496 708 OFFCURVE",
"496 717 CURVE SMOOTH",
"496 726 OFFCURVE",
"486 734 OFFCURVE",
"474 734 CURVE SMOOTH",
"157 734 LINE SMOOTH",
"145 734 OFFCURVE",
"135 726 OFFCURVE",
"135 717 CURVE SMOOTH"
);
},
{
closed = 1;
nodes = (
"450 10 OFFCURVE",
"460 -2 OFFCURVE",
"472 -2 CURVE SMOOTH",
"517 -2 LINE SMOOTH",
"529 -2 OFFCURVE",
"539 10 OFFCURVE",
"539 24 CURVE SMOOTH",
"539 582 LINE SMOOTH",
"539 619 OFFCURVE",
"515 648 OFFCURVE",
"483 648 CURVE SMOOTH",
"154 648 LINE SMOOTH",
"122 648 OFFCURVE",
"98 619 OFFCURVE",
"98 582 CURVE SMOOTH",
"98 24 LINE SMOOTH",
"98 10 OFFCURVE",
"108 -2 OFFCURVE",
"120 -2 CURVE SMOOTH",
"165 -2 LINE SMOOTH",
"177 -2 OFFCURVE",
"187 10 OFFCURVE",
"187 24 CURVE SMOOTH",
"187 569 LINE SMOOTH",
"187 583 OFFCURVE",
"197 595 OFFCURVE",
"209 595 CURVE SMOOTH",
"428 595 LINE SMOOTH",
"440 595 OFFCURVE",
"450 583 OFFCURVE",
"450 569 CURVE SMOOTH",
"450 24 LINE SMOOTH"
);
},
{
closed = 1;
nodes = (
"98 38 LINE",
"98 -166 LINE SMOOTH",
"98 -180 OFFCURVE",
"108 -192 OFFCURVE",
"120 -192 CURVE SMOOTH",
"121 -192 LINE SMOOTH",
"133 -192 OFFCURVE",
"143 -180 OFFCURVE",
"143 -166 CURVE SMOOTH",
"143 38 LINE"
);
}
);
width = 637;
}
);
unicode = 126E;
},
{
glyphname = "vwa-ethiopic";
lastChange = "2019-02-19 04:41:49 +0000";
layers = (
{
components = (
{
name = _part.hoa;
transform = "{1.1, 0, 0, 1.3, 0, 51}";
}
);
layerId = "A36D14D1-FF07-4574-A62D-30DF65569781";
paths = (
{
closed = 1;
nodes = (
"135 707 OFFCURVE",
"145 700 OFFCURVE",
"157 700 CURVE SMOOTH",
"474 700 LINE SMOOTH",
"486 700 OFFCURVE",
"496 708 OFFCURVE",
"496 717 CURVE SMOOTH",
"496 726 OFFCURVE",
"486 734 OFFCURVE",
"474 734 CURVE SMOOTH",
"157 734 LINE SMOOTH",
"145 734 OFFCURVE",
"135 726 OFFCURVE",
"135 717 CURVE SMOOTH"
);
},
{
closed = 1;
nodes = (
"450 10 OFFCURVE",
"460 -2 OFFCURVE",
"472 -2 CURVE SMOOTH",
"517 -2 LINE SMOOTH",
"529 -2 OFFCURVE",
"539 10 OFFCURVE",
"539 24 CURVE SMOOTH",
"539 582 LINE SMOOTH",
"539 619 OFFCURVE",
"515 648 OFFCURVE",
"483 648 CURVE SMOOTH",
"154 648 LINE SMOOTH",
"122 648 OFFCURVE",
"98 619 OFFCURVE",
"98 582 CURVE SMOOTH",
"98 24 LINE SMOOTH",
"98 10 OFFCURVE",
"108 -2 OFFCURVE",
"120 -2 CURVE SMOOTH",
"165 -2 LINE SMOOTH",
"177 -2 OFFCURVE",
"187 10 OFFCURVE",
"187 24 CURVE SMOOTH",
"187 569 LINE SMOOTH",
"187 583 OFFCURVE",
"197 595 OFFCURVE",
"209 595 CURVE SMOOTH",
"428 595 LINE SMOOTH",
"440 595 OFFCURVE",
"450 583 OFFCURVE",
"450 569 CURVE SMOOTH",
"450 24 LINE SMOOTH"
);
}
);
width = 637;
}
);
unicode = 126F;
},
{
glyphname = "ta-ethiopic";
lastChange = "2019-02-19 04:41:49 +0000";
layers = (
{
layerId = "A36D14D1-FF07-4574-A62D-30DF65569781";
paths = (
{
closed = 1;
nodes = (
"356 648 LINE SMOOTH",
"344 648 OFFCURVE",
"334 660 OFFCURVE",
"334 674 CURVE SMOOTH",
"334 769 LINE SMOOTH",
"334 784 OFFCURVE",
"325 794 OFFCURVE",
"312 795 CURVE SMOOTH",
"268 797 LINE SMOOTH",
"255 798 OFFCURVE",
"245 785 OFFCURVE",
"245 769 CURVE SMOOTH",
"245 674 LINE SMOOTH",
"245 660 OFFCURVE",
"235 648 OFFCURVE",
"223 648 CURVE SMOOTH",
"87 648 LINE SMOOTH",
"75 648 OFFCURVE",
"65 636 OFFCURVE",
"65 622 CURVE SMOOTH",
"65 621 LINE SMOOTH",
"65 606 OFFCURVE",
"75 595 OFFCURVE",
"87 595 CURVE SMOOTH",
"223 595 LINE SMOOTH",
"235 595 OFFCURVE",
"245 583 OFFCURVE",
"245 569 CURVE SMOOTH",
"245 24 LINE SMOOTH",
"245 10 OFFCURVE",
"255 -2 OFFCURVE",
"267 -2 CURVE SMOOTH",
"312 -2 LINE SMOOTH",
"325 -2 OFFCURVE",
"334 10 OFFCURVE",
"334 24 CURVE SMOOTH",
"334 569 LINE SMOOTH",
"334 583 OFFCURVE",
"344 595 OFFCURVE",
"356 595 CURVE SMOOTH",
"493 595 LINE SMOOTH",
"505 595 OFFCURVE",
"515 606 OFFCURVE",
"515 621 CURVE SMOOTH",
"515 622 LINE SMOOTH",
"515 636 OFFCURVE",
"505 648 OFFCURVE",
"493 648 CURVE SMOOTH"
);
}
);
width = 580;
}
);
unicode = 1270;
},
{
glyphname = "tu-ethiopic";
lastChange = "2019-02-19 04:41:49 +0000";
layers = (
{
layerId = "A36D14D1-FF07-4574-A62D-30DF65569781";
paths = (
{
closed = 1;
nodes = (
"356 648 LINE SMOOTH",
"344 648 OFFCURVE",
"334 660 OFFCURVE",
"334 674 CURVE SMOOTH",
"334 769 LINE SMOOTH",
"334 784 OFFCURVE",
"325 794 OFFCURVE",
"312 795 CURVE SMOOTH",
"268 797 LINE SMOOTH",
"255 798 OFFCURVE",
"245 785 OFFCURVE",
"245 769 CURVE SMOOTH",
"245 674 LINE SMOOTH",
"245 660 OFFCURVE",
"235 648 OFFCURVE",
"223 648 CURVE SMOOTH",
"87 648 LINE SMOOTH",
"75 648 OFFCURVE",
"65 636 OFFCURVE",
"65 622 CURVE SMOOTH",
"65 621 LINE SMOOTH",
"65 606 OFFCURVE",
"75 595 OFFCURVE",
"87 595 CURVE SMOOTH",
"223 595 LINE SMOOTH",
"235 595 OFFCURVE",
"245 583 OFFCURVE",
"245 569 CURVE SMOOTH",
"245 24 LINE SMOOTH",
"245 10 OFFCURVE",
"255 -2 OFFCURVE",
"267 -2 CURVE SMOOTH",
"312 -2 LINE SMOOTH",
"325 -2 OFFCURVE",
"334 10 OFFCURVE",
"334 24 CURVE SMOOTH",
"334 569 LINE SMOOTH",
"334 583 OFFCURVE",
"344 595 OFFCURVE",
"356 595 CURVE SMOOTH",
"493 595 LINE SMOOTH",
"505 595 OFFCURVE",
"515 606 OFFCURVE",
"515 621 CURVE SMOOTH",
"515 622 LINE SMOOTH",
"515 636 OFFCURVE",
"505 648 OFFCURVE",
"493 648 CURVE SMOOTH"
);
},
{
closed = 1;
nodes = (
"432 356 OFFCURVE",
"422 367 OFFCURVE",
"410 367 CURVE SMOOTH",
"322 367 LINE",
"322 314 LINE",
"410 314 LINE SMOOTH",
"422 314 OFFCURVE",
"432 326 OFFCURVE",
"432 340 CURVE SMOOTH",
"432 341 LINE SMOOTH"
);
}
);
width = 580;
}
);
unicode = 1271;
},
{
glyphname = "ti-ethiopic";
lastChange = "2019-02-19 04:41:49 +0000";
layers = (
{
layerId = "A36D14D1-FF07-4574-A62D-30DF65569781";
paths = (
{
closed = 1;
nodes = (
"356 648 LINE SMOOTH",
"344 648 OFFCURVE",
"334 660 OFFCURVE",
"334 674 CURVE SMOOTH",
"334 769 LINE SMOOTH",
"334 784 OFFCURVE",
"325 794 OFFCURVE",
"312 795 CURVE SMOOTH",
"268 797 LINE SMOOTH",
"255 798 OFFCURVE",
"245 785 OFFCURVE",
"245 769 CURVE SMOOTH",
"245 674 LINE SMOOTH",
"245 660 OFFCURVE",
"235 648 OFFCURVE",
"223 648 CURVE SMOOTH",
"87 648 LINE SMOOTH",
"75 648 OFFCURVE",
"65 636 OFFCURVE",
"65 622 CURVE SMOOTH",
"65 621 LINE SMOOTH",
"65 606 OFFCURVE",
"75 595 OFFCURVE",
"87 595 CURVE SMOOTH",
"223 595 LINE SMOOTH",
"235 595 OFFCURVE",
"245 583 OFFCURVE",
"245 569 CURVE SMOOTH",
"245 24 LINE SMOOTH",
"245 10 OFFCURVE",
"255 -2 OFFCURVE",
"267 -2 CURVE SMOOTH",
"312 -2 LINE SMOOTH",
"325 -2 OFFCURVE",
"334 10 OFFCURVE",
"334 24 CURVE SMOOTH",
"334 569 LINE SMOOTH",
"334 583 OFFCURVE",
"344 595 OFFCURVE",
"356 595 CURVE SMOOTH",
"493 595 LINE SMOOTH",
"505 595 OFFCURVE",
"515 606 OFFCURVE",
"515 621 CURVE SMOOTH",
"515 622 LINE SMOOTH",
"515 636 OFFCURVE",
"505 648 OFFCURVE",
"493 648 CURVE SMOOTH"
);
},
{
closed = 1;
nodes = (
"320 -2 LINE",
"441 -2 LINE SMOOTH",
"454 -2 OFFCURVE",
"463 10 OFFCURVE",
"463 24 CURVE SMOOTH",
"463 26 LINE SMOOTH",
"463 40 OFFCURVE",
"454 52 OFFCURVE",
"441 52 CURVE SMOOTH",
"320 52 LINE"
);
}
);
width = 580;
}
);
unicode = 1272;
},
{
glyphname = "taa-ethiopic";
lastChange = "2019-02-19 04:41:49 +0000";
layers = (
{
layerId = "A36D14D1-FF07-4574-A62D-30DF65569781";
paths = (
{
closed = 1;
nodes = (
"356 648 LINE SMOOTH",
"344 648 OFFCURVE",
"334 660 OFFCURVE",
"334 674 CURVE SMOOTH",
"334 769 LINE SMOOTH",
"334 784 OFFCURVE",
"325 794 OFFCURVE",
"312 795 CURVE SMOOTH",
"268 797 LINE SMOOTH",
"255 798 OFFCURVE",
"245 785 OFFCURVE",
"245 769 CURVE SMOOTH",
"245 674 LINE SMOOTH",
"245 660 OFFCURVE",
"235 648 OFFCURVE",
"223 648 CURVE SMOOTH",
"87 648 LINE SMOOTH",
"75 648 OFFCURVE",
"65 636 OFFCURVE",
"65 622 CURVE SMOOTH",
"65 621 LINE SMOOTH",
"65 606 OFFCURVE",
"75 595 OFFCURVE",
"87 595 CURVE SMOOTH",
"223 595 LINE SMOOTH",
"235 595 OFFCURVE",
"245 583 OFFCURVE",
"245 569 CURVE SMOOTH",
"245 24 LINE SMOOTH",
"245 10 OFFCURVE",
"255 -2 OFFCURVE",
"267 -2 CURVE SMOOTH",
"312 -2 LINE SMOOTH",
"325 -2 OFFCURVE",
"334 10 OFFCURVE",
"334 24 CURVE SMOOTH",
"334 569 LINE SMOOTH",
"334 583 OFFCURVE",
"344 595 OFFCURVE",
"356 595 CURVE SMOOTH",
"493 595 LINE SMOOTH",
"505 595 OFFCURVE",
"515 606 OFFCURVE",
"515 621 CURVE SMOOTH",
"515 622 LINE SMOOTH",
"515 636 OFFCURVE",
"505 648 OFFCURVE",
"493 648 CURVE SMOOTH"
);
},
{
closed = 1;
nodes = (
"168 52 LINE SMOOTH",
"156 52 OFFCURVE",
"146 40 OFFCURVE",
"146 26 CURVE SMOOTH",
"146 24 LINE SMOOTH",
"146 10 OFFCURVE",
"156 -2 OFFCURVE",
"168 -2 CURVE SMOOTH",
"289 -2 LINE",
"289 52 LINE"
);
},
{
closed = 1;
nodes = (
"245 -2 LINE",
"290 -2 LINE",
"290 183 LINE",
"245 182 LINE"
);
}
);
width = 580;
}
);
unicode = 1273;
},
{
glyphname = "tee-ethiopic";
lastChange = "2019-02-19 04:41:49 +0000";
layers = (
{
layerId = "A36D14D1-FF07-4574-A62D-30DF65569781";
paths = (
{
closed = 1;
nodes = (
"356 648 LINE SMOOTH",
"344 648 OFFCURVE",
"334 660 OFFCURVE",
"334 674 CURVE SMOOTH",
"334 769 LINE SMOOTH",
"334 784 OFFCURVE",
"325 794 OFFCURVE",
"312 795 CURVE SMOOTH",
"268 797 LINE SMOOTH",
"255 798 OFFCURVE",
"245 785 OFFCURVE",
"245 769 CURVE SMOOTH",
"245 674 LINE SMOOTH",
"245 660 OFFCURVE",
"235 648 OFFCURVE",
"223 648 CURVE SMOOTH",
"87 648 LINE SMOOTH",
"75 648 OFFCURVE",
"65 636 OFFCURVE",
"65 622 CURVE SMOOTH",
"65 621 LINE SMOOTH",
"65 606 OFFCURVE",
"75 595 OFFCURVE",
"87 595 CURVE SMOOTH",
"223 595 LINE SMOOTH",
"235 595 OFFCURVE",
"245 583 OFFCURVE",
"245 569 CURVE SMOOTH",
"245 24 LINE SMOOTH",
"245 10 OFFCURVE",
"255 -2 OFFCURVE",
"267 -2 CURVE SMOOTH",
"312 -2 LINE SMOOTH",
"325 -2 OFFCURVE",
"334 10 OFFCURVE",
"334 24 CURVE SMOOTH",
"334 569 LINE SMOOTH",
"334 583 OFFCURVE",
"344 595 OFFCURVE",
"356 595 CURVE SMOOTH",
"493 595 LINE SMOOTH",
"505 595 OFFCURVE",
"515 606 OFFCURVE",
"515 621 CURVE SMOOTH",
"515 622 LINE SMOOTH",
"515 636 OFFCURVE",
"505 648 OFFCURVE",
"493 648 CURVE SMOOTH"
);
},
{
closed = 1;
nodes = (
"435 -158 OFFCURVE",
"472 -110 OFFCURVE",
"472 -50 CURVE SMOOTH",
"472 10 OFFCURVE",
"435 58 OFFCURVE",
"385 58 CURVE SMOOTH",
"336 58 OFFCURVE",
"298 10 OFFCURVE",
"298 -50 CURVE SMOOTH",
"298 -110 OFFCURVE",
"336 -158 OFFCURVE",
"385 -158 CURVE SMOOTH"
);
},
{
closed = 1;
nodes = (
"354 -116 OFFCURVE",
"331 -88 OFFCURVE",
"331 -50 CURVE SMOOTH",
"331 -12 OFFCURVE",
"354 16 OFFCURVE",
"385 16 CURVE SMOOTH",
"416 16 OFFCURVE",
"439 -12 OFFCURVE",
"439 -50 CURVE SMOOTH",
"439 -88 OFFCURVE",
"416 -116 OFFCURVE",
"385 -116 CURVE SMOOTH"
);
}
);
width = 580;
}
);
unicode = 1274;
},
{
glyphname = "te-ethiopic";
lastChange = "2019-02-19 04:41:49 +0000";
layers = (
{
layerId = "A36D14D1-FF07-4574-A62D-30DF65569781";
paths = (
{
closed = 1;
nodes = (
"149 798 LINE",
"149 678 LINE",
"194 678 LINE",
"194 797 LINE"
);
},
{
closed = 1;
nodes = (
"356 558 LINE SMOOTH",
"344 558 OFFCURVE",
"334 570 OFFCURVE",
"334 584 CURVE SMOOTH",
"334 665 LINE SMOOTH",
"334 679 OFFCURVE",
"325 691 OFFCURVE",
"312 691 CURVE SMOOTH",
"268 692 LINE SMOOTH",
"255 692 OFFCURVE",
"245 680 OFFCURVE",
"245 665 CURVE SMOOTH",
"245 584 LINE SMOOTH",
"245 570 OFFCURVE",
"235 558 OFFCURVE",
"223 558 CURVE SMOOTH",
"87 558 LINE SMOOTH",
"75 558 OFFCURVE",
"65 546 OFFCURVE",
"65 532 CURVE SMOOTH",
"65 531 LINE SMOOTH",
"65 516 OFFCURVE",
"75 505 OFFCURVE",
"87 505 CURVE SMOOTH",
"223 505 LINE SMOOTH",
"235 505 OFFCURVE",
"245 493 OFFCURVE",
"245 479 CURVE SMOOTH",
"245 34 LINE SMOOTH",
"245 20 OFFCURVE",
"255 8 OFFCURVE",
"267 8 CURVE SMOOTH",
"312 8 LINE SMOOTH",
"325 8 OFFCURVE",
"334 20 OFFCURVE",
"334 34 CURVE SMOOTH",
"334 479 LINE SMOOTH",
"334 493 OFFCURVE",
"344 505 OFFCURVE",
"356 505 CURVE SMOOTH",
"493 505 LINE SMOOTH",
"505 505 OFFCURVE",
"515 516 OFFCURVE",
"515 531 CURVE SMOOTH",
"515 532 LINE SMOOTH",
"515 546 OFFCURVE",
"505 558 OFFCURVE",
"493 558 CURVE SMOOTH"
);
},
{
closed = 1;
nodes = (
"150 665 LINE",
"334 665 LINE",
"334 700 LINE",
"150 700 LINE"
);
}
);
width = 580;
}
);
unicode = 1275;
},
{
glyphname = "to-ethiopic";
lastChange = "2019-02-19 04:41:49 +0000";
layers = (
{
layerId = "A36D14D1-FF07-4574-A62D-30DF65569781";
paths = (
{
closed = 1;
nodes = (
"341 579 OFFCURVE",
"378 627 OFFCURVE",
"378 687 CURVE SMOOTH",
"378 746 OFFCURVE",
"341 795 OFFCURVE",
"292 795 CURVE SMOOTH",
"242 795 OFFCURVE",
"205 746 OFFCURVE",
"205 687 CURVE SMOOTH",
"205 627 OFFCURVE",
"242 579 OFFCURVE",
"292 579 CURVE SMOOTH"
);
},
{
closed = 1;
nodes = (
"261 620 OFFCURVE",
"238 649 OFFCURVE",
"238 687 CURVE SMOOTH",
"238 724 OFFCURVE",
"261 753 OFFCURVE",
"292 753 CURVE SMOOTH",
"322 753 OFFCURVE",
"345 724 OFFCURVE",
"345 687 CURVE SMOOTH",
"345 649 OFFCURVE",
"322 620 OFFCURVE",
"292 620 CURVE SMOOTH"
);
},
{
closed = 1;
nodes = (
"356 528 LINE SMOOTH",
"344 528 OFFCURVE",
"334 540 OFFCURVE",
"334 554 CURVE SMOOTH",
"334 580 LINE SMOOTH",
"334 594 OFFCURVE",
"325 606 OFFCURVE",
"312 606 CURVE SMOOTH",
"268 607 LINE SMOOTH",
"255 607 OFFCURVE",
"245 596 OFFCURVE",
"245 580 CURVE SMOOTH",
"245 554 LINE SMOOTH",
"245 540 OFFCURVE",
"235 528 OFFCURVE",
"223 528 CURVE SMOOTH",
"87 528 LINE SMOOTH",
"75 528 OFFCURVE",
"65 516 OFFCURVE",
"65 502 CURVE SMOOTH",
"65 501 LINE SMOOTH",
"65 486 OFFCURVE",
"75 475 OFFCURVE",
"87 475 CURVE SMOOTH",
"223 475 LINE SMOOTH",
"235 475 OFFCURVE",
"245 463 OFFCURVE",
"245 449 CURVE SMOOTH",
"245 24 LINE SMOOTH",
"245 10 OFFCURVE",
"255 -2 OFFCURVE",
"267 -2 CURVE SMOOTH",
"312 -2 LINE SMOOTH",
"325 -2 OFFCURVE",
"334 10 OFFCURVE",
"334 24 CURVE SMOOTH",
"334 449 LINE SMOOTH",
"334 463 OFFCURVE",
"344 475 OFFCURVE",
"356 475 CURVE SMOOTH",
"493 475 LINE SMOOTH",
"505 475 OFFCURVE",
"515 486 OFFCURVE",
"515 501 CURVE SMOOTH",
"515 502 LINE SMOOTH",
"515 516 OFFCURVE",
"505 528 OFFCURVE",
"493 528 CURVE SMOOTH"
);
}
);
width = 580;
}
);
unicode = 1276;
},
{
glyphname = "twa-ethiopic";
lastChange = "2019-02-19 04:41:49 +0000";
layers = (
{
layerId = "A36D14D1-FF07-4574-A62D-30DF65569781";
paths = (
{
closed = 1;
nodes = (
"356 648 LINE SMOOTH",
"344 648 OFFCURVE",
"334 660 OFFCURVE",
"334 674 CURVE SMOOTH",
"334 759 LINE SMOOTH",
"334 774 OFFCURVE",
"325 784 OFFCURVE",
"312 785 CURVE SMOOTH",
"268 787 LINE SMOOTH",
"255 788 OFFCURVE",
"245 775 OFFCURVE",
"245 759 CURVE SMOOTH",
"245 674 LINE SMOOTH",
"245 660 OFFCURVE",
"235 648 OFFCURVE",
"223 648 CURVE SMOOTH",
"87 648 LINE SMOOTH",
"75 648 OFFCURVE",
"65 636 OFFCURVE",
"65 622 CURVE SMOOTH",
"65 621 LINE SMOOTH",
"65 606 OFFCURVE",
"75 595 OFFCURVE",
"87 595 CURVE SMOOTH",
"223 595 LINE SMOOTH",
"235 595 OFFCURVE",
"245 583 OFFCURVE",
"245 569 CURVE SMOOTH",
"245 24 LINE SMOOTH",
"245 10 OFFCURVE",
"255 -2 OFFCURVE",
"267 -2 CURVE SMOOTH",
"312 -2 LINE SMOOTH",
"325 -2 OFFCURVE",
"334 10 OFFCURVE",
"334 24 CURVE SMOOTH",
"334 569 LINE SMOOTH",
"334 583 OFFCURVE",
"344 595 OFFCURVE",
"356 595 CURVE SMOOTH",
"493 595 LINE SMOOTH",
"505 595 OFFCURVE",
"515 606 OFFCURVE",
"515 621 CURVE SMOOTH",
"515 622 LINE SMOOTH",
"515 636 OFFCURVE",
"505 648 OFFCURVE",
"493 648 CURVE SMOOTH"
);
},
{
closed = 1;
nodes = (
"169 -18 LINE",
"169 -161 LINE SMOOTH",
"169 -175 OFFCURVE",
"179 -187 OFFCURVE",
"191 -187 CURVE SMOOTH",
"193 -187 LINE SMOOTH",
"205 -187 OFFCURVE",
"215 -175 OFFCURVE",
"215 -161 CURVE SMOOTH",
"215 -18 LINE"
);
},
{
closed = 1;
nodes = (
"326 -16 LINE",
"169 -16 LINE",
"169 -70 LINE",
"325 -70 LINE"
);
}
);
width = 580;
}
);
unicode = 1277;
},
{
glyphname = "ca-ethiopic";
lastChange = "2019-02-19 04:41:49 +0000";
layers = (
{
layerId = "A36D14D1-FF07-4574-A62D-30DF65569781";
paths = (
{
closed = 1;
nodes = (
"109 772 OFFCURVE",
"119 766 OFFCURVE",
"131 766 CURVE SMOOTH",
"448 766 LINE SMOOTH",
"460 766 OFFCURVE",
"470 773 OFFCURVE",
"470 782 CURVE SMOOTH",
"470 792 OFFCURVE",
"460 799 OFFCURVE",
"448 799 CURVE SMOOTH",
"131 799 LINE SMOOTH",
"119 799 OFFCURVE",
"109 792 OFFCURVE",
"109 782 CURVE SMOOTH"
);
},
{
closed = 1;
nodes = (
"356 648 LINE SMOOTH",
"344 648 OFFCURVE",
"334 660 OFFCURVE",
"334 674 CURVE SMOOTH",
"334 769 LINE SMOOTH",
"334 784 OFFCURVE",
"325 794 OFFCURVE",
"312 795 CURVE SMOOTH",
"268 797 LINE SMOOTH",
"255 798 OFFCURVE",
"245 785 OFFCURVE",
"245 769 CURVE SMOOTH",
"245 674 LINE SMOOTH",
"245 660 OFFCURVE",
"235 648 OFFCURVE",
"223 648 CURVE SMOOTH",
"87 648 LINE SMOOTH",
"75 648 OFFCURVE",
"65 636 OFFCURVE",
"65 622 CURVE SMOOTH",
"65 621 LINE SMOOTH",
"65 606 OFFCURVE",
"75 595 OFFCURVE",
"87 595 CURVE SMOOTH",
"223 595 LINE SMOOTH",
"235 595 OFFCURVE",
"245 583 OFFCURVE",
"245 569 CURVE SMOOTH",
"245 24 LINE SMOOTH",
"245 10 OFFCURVE",
"255 -2 OFFCURVE",
"267 -2 CURVE SMOOTH",
"312 -2 LINE SMOOTH",
"325 -2 OFFCURVE",
"334 10 OFFCURVE",
"334 24 CURVE SMOOTH",
"334 569 LINE SMOOTH",
"334 583 OFFCURVE",
"344 595 OFFCURVE",
"356 595 CURVE SMOOTH",
"493 595 LINE SMOOTH",
"505 595 OFFCURVE",
"515 606 OFFCURVE",
"515 621 CURVE SMOOTH",
"515 622 LINE SMOOTH",
"515 636 OFFCURVE",
"505 648 OFFCURVE",
"493 648 CURVE SMOOTH"
);
}
);
width = 580;
}
);
unicode = 1278;
},
{
glyphname = "cu-ethiopic";
lastChange = "2019-02-19 04:41:49 +0000";
layers = (
{
layerId = "A36D14D1-FF07-4574-A62D-30DF65569781";
paths = (
{
closed = 1;
nodes = (
"109 772 OFFCURVE",
"119 766 OFFCURVE",
"131 766 CURVE SMOOTH",
"448 766 LINE SMOOTH",
"460 766 OFFCURVE",
"470 773 OFFCURVE",
"470 782 CURVE SMOOTH",
"470 792 OFFCURVE",
"460 799 OFFCURVE",
"448 799 CURVE SMOOTH",
"131 799 LINE SMOOTH",
"119 799 OFFCURVE",
"109 792 OFFCURVE",
"109 782 CURVE SMOOTH"
);
},
{
closed = 1;
nodes = (
"356 648 LINE SMOOTH",
"344 648 OFFCURVE",
"334 660 OFFCURVE",
"334 674 CURVE SMOOTH",
"334 769 LINE SMOOTH",
"334 784 OFFCURVE",
"325 794 OFFCURVE",
"312 795 CURVE SMOOTH",
"268 797 LINE SMOOTH",
"255 798 OFFCURVE",
"245 785 OFFCURVE",
"245 769 CURVE SMOOTH",
"245 674 LINE SMOOTH",
"245 660 OFFCURVE",
"235 648 OFFCURVE",
"223 648 CURVE SMOOTH",
"87 648 LINE SMOOTH",
"75 648 OFFCURVE",
"65 636 OFFCURVE",
"65 622 CURVE SMOOTH",
"65 621 LINE SMOOTH",
"65 606 OFFCURVE",
"75 595 OFFCURVE",
"87 595 CURVE SMOOTH",
"223 595 LINE SMOOTH",
"235 595 OFFCURVE",
"245 583 OFFCURVE",
"245 569 CURVE SMOOTH",
"245 24 LINE SMOOTH",
"245 10 OFFCURVE",
"255 -2 OFFCURVE",
"267 -2 CURVE SMOOTH",
"312 -2 LINE SMOOTH",
"325 -2 OFFCURVE",
"334 10 OFFCURVE",
"334 24 CURVE SMOOTH",
"334 569 LINE SMOOTH",
"334 583 OFFCURVE",
"344 595 OFFCURVE",
"356 595 CURVE SMOOTH",
"493 595 LINE SMOOTH",
"505 595 OFFCURVE",
"515 606 OFFCURVE",
"515 621 CURVE SMOOTH",
"515 622 LINE SMOOTH",
"515 636 OFFCURVE",
"505 648 OFFCURVE",
"493 648 CURVE SMOOTH"
);
},
{
closed = 1;
nodes = (
"452 356 OFFCURVE",
"442 367 OFFCURVE",
"430 367 CURVE SMOOTH",
"342 367 LINE",
"342 314 LINE",
"430 314 LINE SMOOTH",
"442 314 OFFCURVE",
"452 326 OFFCURVE",
"452 340 CURVE SMOOTH",
"452 341 LINE SMOOTH"
);
}
);
width = 580;
}
);
unicode = 1279;
},
{
glyphname = "ci-ethiopic";
lastChange = "2019-02-19 04:41:49 +0000";
layers = (
{
layerId = "A36D14D1-FF07-4574-A62D-30DF65569781";
paths = (
{
closed = 1;
nodes = (
"109 775 OFFCURVE",
"119 769 OFFCURVE",
"131 769 CURVE SMOOTH",
"448 769 LINE SMOOTH",
"460 769 OFFCURVE",
"470 777 OFFCURVE",
"470 786 CURVE SMOOTH",
"470 795 OFFCURVE",
"460 803 OFFCURVE",
"448 803 CURVE SMOOTH",
"131 803 LINE SMOOTH",
"119 803 OFFCURVE",
"109 795 OFFCURVE",
"109 786 CURVE SMOOTH"
);
},
{
closed = 1;
nodes = (
"356 648 LINE SMOOTH",
"344 648 OFFCURVE",
"334 660 OFFCURVE",
"334 674 CURVE SMOOTH",
"334 775 LINE SMOOTH",
"334 790 OFFCURVE",
"325 800 OFFCURVE",
"312 801 CURVE SMOOTH",
"268 803 LINE SMOOTH",
"255 804 OFFCURVE",
"245 791 OFFCURVE",
"245 775 CURVE SMOOTH",
"245 674 LINE SMOOTH",
"245 660 OFFCURVE",
"235 648 OFFCURVE",
"223 648 CURVE SMOOTH",
"87 648 LINE SMOOTH",
"75 648 OFFCURVE",
"65 636 OFFCURVE",
"65 622 CURVE SMOOTH",
"65 621 LINE SMOOTH",
"65 606 OFFCURVE",
"75 595 OFFCURVE",
"87 595 CURVE SMOOTH",
"223 595 LINE SMOOTH",
"235 595 OFFCURVE",
"245 583 OFFCURVE",
"245 569 CURVE SMOOTH",
"245 24 LINE SMOOTH",
"245 10 OFFCURVE",
"255 -2 OFFCURVE",
"267 -2 CURVE SMOOTH",
"312 -2 LINE SMOOTH",
"325 -2 OFFCURVE",
"334 10 OFFCURVE",
"334 24 CURVE SMOOTH",
"334 569 LINE SMOOTH",
"334 583 OFFCURVE",
"344 595 OFFCURVE",
"356 595 CURVE SMOOTH",
"493 595 LINE SMOOTH",
"505 595 OFFCURVE",
"515 606 OFFCURVE",
"515 621 CURVE SMOOTH",
"515 622 LINE SMOOTH",
"515 636 OFFCURVE",
"505 648 OFFCURVE",
"493 648 CURVE SMOOTH"
);
},
{
closed = 1;
nodes = (
"290 -2 LINE",
"411 -2 LINE SMOOTH",
"424 -2 OFFCURVE",
"433 10 OFFCURVE",
"433 24 CURVE SMOOTH",
"433 26 LINE SMOOTH",
"433 40 OFFCURVE",
"424 52 OFFCURVE",
"411 52 CURVE SMOOTH",
"290 52 LINE"
);
},
{
closed = 1;
nodes = (
"289 183 LINE",
"289 -2 LINE",
"334 -2 LINE",
"334 182 LINE"
);
}
);
width = 580;
}
);
unicode = 127A;
},
